<svg width="79" height="48" viewBox="0 0 79 48" fill="none" xmlns="http://www.w3.org/2000/svg">
<path fill-rule="evenodd" clip-rule="evenodd" d="M17.5078 28.5956C17.2496 29.3335 16.9541 29.8867 16.2529 29.9981H15.8472C15.7732 29.9981 15.6996 30.0347 15.6996 30.1083C15.6996 30.1819 15.7732 30.2193 15.9947 30.2193C16.696 30.2193 17.5078 30.1819 17.6557 30.1819C17.8037 30.1819 18.4676 30.2193 18.7997 30.2193C18.9473 30.2193 19.0212 30.1819 19.0212 30.1083C19.0212 30.0347 18.9842 29.9981 18.8737 29.9981H18.7261C18.5049 29.9981 18.1724 29.8871 18.1724 29.592C18.1724 29.3335 18.246 28.9647 18.394 28.5956L19.2798 25.9752C19.3168 25.9016 19.3534 25.8643 19.4273 25.8643H22.6014C22.6754 25.8643 22.7124 25.8643 22.749 25.9378L24.1145 29.592C24.225 29.8132 24.1145 29.9607 24.0409 29.9981C23.9673 29.9981 23.9303 30.0347 23.9303 30.0717C23.9303 30.1819 24.0779 30.1819 24.373 30.1819C25.4064 30.2193 26.4771 30.2193 26.6983 30.2193C26.8458 30.2193 26.9934 30.1819 26.9934 30.1083C26.9934 30.0347 26.9198 29.9981 26.8458 29.9981C26.6983 29.9981 26.4767 29.9981 26.2552 29.9245C25.96 29.8509 25.5169 29.592 24.9637 28.2635C24.0779 26.0118 21.7526 19.8848 21.531 19.3312C21.3465 18.8881 21.2729 18.8145 21.1989 18.8145C21.1249 18.8145 21.0514 18.8881 20.8664 19.3682L17.5078 28.5956ZM19.5753 25.3102C19.5383 25.3102 19.5013 25.2728 19.5383 25.1992L20.8302 21.2133C20.9038 20.9918 20.9778 20.9918 21.0517 21.2133L22.4912 25.1992C22.4912 25.2728 22.4912 25.3102 22.4176 25.3102H19.5753ZM29.9097 30.3664C30.537 30.3664 31.2012 30.2189 31.6813 29.8867C32.5301 29.2965 32.7147 28.4107 32.7147 27.8936C32.7147 26.9712 32.3825 26.2326 30.9801 25.1256L30.6475 24.8671C29.5036 23.9443 29.1715 23.5382 29.1715 22.874C29.1715 21.9882 29.8357 21.4711 30.6475 21.4711C31.7549 21.4711 32.0504 21.9878 32.124 22.0984C32.1976 22.2459 32.2716 22.5415 32.2716 22.689C32.3086 22.7996 32.3086 22.8736 32.3825 22.8736C32.4561 22.8736 32.4561 22.7626 32.4561 22.5781C32.4561 21.7662 32.5301 21.3971 32.5301 21.3231C32.5301 21.2492 32.4931 21.2496 32.3825 21.2496C32.3086 21.2496 32.1976 21.2126 31.9764 21.1756C31.6813 21.1016 31.3492 21.065 30.8691 21.065C29.3556 21.065 28.3959 21.9138 28.3959 23.2057C28.3959 24.0175 28.691 24.7557 29.9459 25.7895L30.4996 26.2322C31.533 27.0444 31.8655 27.5241 31.8655 28.3729C31.8655 29.1111 31.3118 29.9233 30.1675 29.9233C29.3556 29.9233 28.5804 29.5908 28.3959 28.7424C28.3589 28.5575 28.3589 28.4099 28.3589 28.2989C28.3589 28.1887 28.3589 28.1514 28.2853 28.1514C28.2117 28.1514 28.2117 28.225 28.1747 28.3363C28.1747 28.5205 28.1377 29.0002 28.1377 29.5912C28.1377 29.9237 28.1377 29.9599 28.3223 30.0709C28.8024 30.2928 29.356 30.3664 29.9097 30.3664ZM38.7677 21.73L40.2441 21.767C41.3881 21.804 41.6466 22.0622 41.7202 22.4313V22.5418C41.7202 22.7264 41.7576 22.7634 41.8312 22.7634C41.8678 22.7634 41.9047 22.6898 41.9047 22.5788C41.9047 22.4683 41.9421 21.656 41.9421 21.2869C41.9421 21.2133 41.9421 21.1394 41.8678 21.1394C41.8312 21.1394 41.7202 21.1764 41.536 21.213C41.3511 21.213 41.0925 21.2499 40.6864 21.2499H36.2578C36.1103 21.2499 35.6672 21.2499 35.2981 21.213C35.0029 21.176 34.855 21.0654 34.7814 21.0654C34.7444 21.0654 34.6708 21.213 34.6708 21.2865C34.6338 21.3975 34.4123 22.3939 34.4123 22.5415C34.4123 22.5784 34.4123 22.615 34.4493 22.615C34.5229 22.615 34.5602 22.615 34.5968 22.5045L34.7814 22.1354C34.9659 21.8768 35.2611 21.7662 35.9993 21.7662L37.7709 21.7292V26.7493C37.7709 27.8932 37.7709 28.8526 37.6969 29.3327C37.6599 29.7014 37.5863 29.9599 37.3648 29.9973C37.2542 30.0339 37.1063 30.0339 36.9957 30.0339C36.9221 30.0339 36.8851 30.0713 36.8851 30.1075C36.8851 30.1811 36.9587 30.2185 37.0697 30.2185C37.4388 30.2185 38.177 30.1811 38.2506 30.1811C38.3246 30.1811 39.0624 30.2185 39.7274 30.2185C39.8376 30.2185 39.9116 30.1811 39.9116 30.1075C39.9116 30.0709 39.875 30.0339 39.8006 30.0339C39.6904 30.0339 39.4319 30.0339 39.2843 29.9973C38.9152 29.9599 38.8416 29.7014 38.8047 29.3327C38.7677 28.853 38.7677 27.8932 38.7677 26.7493V21.73ZM43.0861 25.7163C43.0861 27.857 44.4519 30.3664 47.7 30.3664C50.5793 30.3664 52.4615 28.1891 52.4615 25.5314C52.4615 22.7634 50.4683 21.0654 47.774 21.0654C44.4882 21.0658 43.0861 23.7968 43.0861 25.7163ZM44.2304 25.3842C44.2304 22.7638 45.7065 21.4719 47.6996 21.4719C49.5818 21.4719 51.3164 22.9853 51.3164 25.8643C51.3164 29.2969 49.1017 29.9245 48.0317 29.9245C45.8914 29.9241 44.2304 28.1521 44.2304 25.3842ZM55.8193 22.911C56.1888 23.3171 57.5547 24.8305 58.9198 26.3066C60.1755 27.6724 61.8727 29.4071 62.0203 29.518C62.6475 30.1819 62.7959 30.2928 62.8699 30.2928C62.9801 30.2928 62.9801 30.2193 62.9801 29.444L63.0174 22.5049C63.0174 21.7666 63.054 21.5081 63.4601 21.4345C63.6077 21.3975 63.6813 21.3975 63.7553 21.3975C63.8297 21.3975 63.8663 21.3605 63.8663 21.3239C63.8663 21.2503 63.7927 21.213 63.6451 21.213C63.1654 21.213 62.7593 21.2499 62.6479 21.2499C62.5004 21.2499 61.9467 21.213 61.393 21.213C61.2828 21.213 61.1719 21.2499 61.1719 21.3239C61.1719 21.3609 61.1719 21.3975 61.2828 21.3975C61.3564 21.3975 61.6516 21.3975 61.8365 21.4711C62.2052 21.5447 62.3162 21.8036 62.3162 22.5784L62.4264 28.6314C62.0577 28.2253 60.7654 26.7859 59.5844 25.531C57.7759 23.5748 56.0043 21.6557 55.8193 21.4341C55.7091 21.3235 55.4876 21.065 55.414 21.065C55.303 21.065 55.2657 21.1756 55.2657 21.6557V28.4465C55.2657 29.5538 55.1921 29.886 54.8969 29.9599C54.7128 30.0335 54.4908 30.0335 54.4172 30.0335C54.3437 30.0335 54.3071 30.0709 54.3071 30.1071C54.3071 30.1807 54.3806 30.2181 54.4912 30.2181C55.0449 30.2181 55.5246 30.1807 55.6356 30.1807C55.7457 30.1807 56.2258 30.2181 56.8905 30.2181C57.038 30.2181 57.1116 30.1807 57.1116 30.1071C57.1116 30.0705 57.075 30.0335 57.038 30.0335C56.9278 30.0335 56.6693 30.0335 56.4478 29.9599C56.1152 29.8864 56.0043 29.5538 55.9681 28.5948L55.8193 22.911ZM6.10302 36.1613C6.10302 37.8223 6.50873 38.6345 7.0624 39.1878C7.87461 39.926 9.05554 40 9.42465 40C10.1259 40 10.9751 39.8517 11.7869 39.1504C12.7097 38.339 12.8573 36.9357 12.8573 35.7186V34.5003V32.0271C12.8942 31.621 12.9682 31.4368 13.3004 31.3632C13.4479 31.3258 13.4849 31.3258 13.5955 31.3258C13.6325 31.3258 13.6695 31.3258 13.6695 31.2522C13.6695 31.2149 13.5955 31.1786 13.4849 31.1786C13.1528 31.1786 12.5991 31.2152 12.5251 31.2152C12.4515 31.2152 11.8239 31.1786 11.3072 31.1786C11.1966 31.1786 11.1227 31.2152 11.1227 31.2522C11.1227 31.3258 11.1596 31.3258 11.2332 31.3258C11.3068 31.3258 11.5288 31.3632 11.6023 31.3632C11.9715 31.4368 12.082 31.621 12.119 32.0271V35.9397C12.119 37.0837 11.9715 38.0805 11.4548 38.7077C11.0487 39.224 10.3474 39.5565 9.68319 39.5565C9.01894 39.5565 8.50226 39.4463 7.94859 38.9293C7.43191 38.4496 7.06279 37.7483 7.06279 36.0873V34.5003C7.06279 32.6917 7.06279 32.3962 7.09978 32.0271C7.13677 31.621 7.21075 31.3998 7.54287 31.3632C7.65345 31.3632 7.72743 31.3258 7.80141 31.3258C7.87539 31.3258 7.91238 31.3258 7.91238 31.2522C7.91238 31.2149 7.8384 31.1786 7.72782 31.1786C7.3957 31.1786 6.69446 31.2152 6.58349 31.2152C6.47291 31.2152 5.77167 31.1786 5.29198 31.1786C5.14441 31.1786 5.10742 31.2152 5.10742 31.2522C5.10742 31.3258 5.14441 31.3258 5.1814 31.3258C5.29198 31.3258 5.47654 31.3632 5.58711 31.3632C5.95623 31.4368 6.02982 31.621 6.06681 32.0271C6.1038 32.3958 6.1038 32.6917 6.1038 34.5003V36.1613H6.10302ZM17.6557 35.2015C17.9143 35.4967 18.7631 36.4198 19.6119 37.3422C20.4237 38.228 21.4941 39.298 21.568 39.3727C21.9738 39.7781 22.0477 39.8517 22.1217 39.8517C22.1587 39.8517 22.1953 39.8151 22.1953 39.3354V34.943C22.1953 34.5003 22.2323 34.3527 22.4904 34.2791H22.675C22.712 34.2791 22.7486 34.2417 22.7486 34.2055C22.7486 34.1682 22.675 34.1682 22.601 34.1682H21.1989C21.088 34.1682 21.0514 34.1682 21.0514 34.2055C21.0514 34.2421 21.0514 34.2791 21.0883 34.2791C21.1619 34.2791 21.3469 34.2791 21.4575 34.3157C21.716 34.3531 21.753 34.5377 21.753 35.017L21.8266 38.8195C21.2502 38.1546 20.6596 37.5022 20.055 36.8629C18.911 35.608 17.7667 34.4271 17.6557 34.2795C17.5822 34.2059 17.4712 34.0584 17.3972 34.0584C17.3602 34.0584 17.3236 34.1319 17.3236 34.4271V38.7085C17.3236 39.4097 17.2866 39.5943 17.1021 39.6683C16.9915 39.7049 16.8435 39.7049 16.7699 39.7049C16.733 39.7049 16.733 39.7049 16.733 39.7422C16.733 39.8158 16.7699 39.8158 16.8435 39.8158C17.1757 39.8158 17.5078 39.7785 17.5818 39.7785C17.6188 39.7785 17.9139 39.8158 18.357 39.8158C18.4306 39.8158 18.5045 39.8158 18.5045 39.7422C18.5045 39.7049 18.4676 39.7049 18.4306 39.7049C18.357 39.7049 18.209 39.7049 18.0615 39.6683C17.8399 39.5947 17.7659 39.4097 17.7659 38.7825L17.6557 35.2015ZM26.5877 36.3089C26.5877 35.1649 26.5877 34.943 26.6247 34.7218C26.6247 34.4633 26.6983 34.3157 26.8828 34.2791H27.0674C27.1044 34.2791 27.1413 34.2417 27.1413 34.2055C27.1413 34.1682 27.1044 34.1682 27.0308 34.1682H25.5173C25.4433 34.1682 25.4064 34.1682 25.4064 34.2055C25.4064 34.2421 25.4433 34.2791 25.4799 34.2791H25.7015C25.886 34.3157 25.96 34.4633 25.96 34.7218V37.6374C25.96 38.3756 25.96 38.9666 25.923 39.2618C25.923 39.4829 25.886 39.6305 25.7015 39.6679C25.6645 39.7045 25.5539 39.7045 25.4799 39.7045C25.443 39.7045 25.443 39.7419 25.443 39.7419C25.443 39.8154 25.4799 39.8154 25.5539 39.8154C25.7751 39.8154 26.2552 39.7781 26.2922 39.7781C26.3288 39.7781 26.8088 39.8154 27.2149 39.8154C27.2885 39.8154 27.3255 39.7781 27.3255 39.7419C27.3255 39.7419 27.3255 39.7045 27.2519 39.7045C27.2149 39.7045 27.0308 39.7045 26.9198 39.6679C26.6983 39.6305 26.6613 39.4829 26.6247 39.2618C26.5877 38.9666 26.5877 38.376 26.5877 37.6374V36.3089ZM30.7955 35.0539C30.6845 34.7954 30.574 34.5377 30.574 34.4629C30.574 34.3893 30.574 34.3527 30.6849 34.3153C30.7585 34.2787 30.8695 34.2787 30.9435 34.2787C31.0174 34.2787 31.017 34.2414 31.017 34.2051C31.017 34.1678 30.9801 34.1678 30.8325 34.1678H29.2458C29.1349 34.1678 29.0609 34.1678 29.0609 34.2051C29.0609 34.2417 29.0979 34.2787 29.1349 34.2787H29.3934C29.6885 34.3523 29.7995 34.4629 29.9471 34.869L31.7927 39.4463C31.9402 39.8151 31.9772 39.926 32.0512 39.926C32.1252 39.926 32.1618 39.8151 32.3837 39.335C32.5313 38.9662 32.8634 38.1906 33.3431 37.0833C33.7122 36.1609 34.0813 35.2747 34.1553 35.0536C34.3768 34.5373 34.4874 34.4263 34.5984 34.3523C34.709 34.2787 34.8935 34.2787 34.9305 34.2787C35.0041 34.2787 35.0411 34.2414 35.0411 34.2051C35.0411 34.1678 34.9675 34.1678 34.8935 34.1678H33.6016C33.4541 34.1678 33.4171 34.1678 33.4171 34.2051C33.4171 34.2417 33.4541 34.2787 33.491 34.2787H33.7862C33.8602 34.3153 33.8971 34.3889 33.8971 34.4629C33.8971 34.5373 33.8602 34.6478 33.8236 34.7588C33.639 35.2751 32.6422 37.8959 32.1995 38.8927L30.7955 35.0539ZM37.4758 37.6374C37.4758 38.3756 37.4758 38.9666 37.4388 39.2618C37.4018 39.4829 37.3652 39.6305 37.2176 39.6679C37.1436 39.7045 37.07 39.7045 36.9961 39.7045C36.9591 39.7045 36.9225 39.7419 36.9225 39.7419C36.9225 39.8154 36.9595 39.8154 37.0331 39.8154H37.4762C37.6237 39.8154 37.7717 39.7781 37.7717 39.7781C37.9928 39.7781 38.5099 39.8517 39.6172 39.8517C39.9124 39.8517 39.986 39.8517 40.0233 39.6305C40.06 39.4829 40.1335 38.9666 40.1335 38.9293C40.1335 38.8557 40.1335 38.8191 40.0969 38.8191C40.0596 38.8191 40.0233 38.8191 40.0233 38.9293C39.9498 39.2244 39.8758 39.3727 39.6908 39.4463C39.5063 39.5199 39.1738 39.5199 38.9526 39.5199C38.2144 39.5199 38.1034 39.4463 38.1034 38.9289V36.9731C38.1034 36.9731 38.1034 36.9357 38.1404 36.9357C38.288 36.9357 39.0262 36.9357 39.2108 36.9731C39.5059 37.0097 39.5795 37.1207 39.6169 37.2316C39.6535 37.3418 39.6535 37.4158 39.6535 37.4894C39.6535 37.5268 39.6535 37.563 39.6908 37.563C39.7282 37.563 39.7282 37.4528 39.7282 37.4154C39.7282 37.3418 39.7648 37.0829 39.7648 36.9357C39.8014 36.678 39.8384 36.567 39.8384 36.493C39.8384 36.4556 39.801 36.4557 39.801 36.4557C39.7644 36.4557 39.7278 36.493 39.6908 36.5292C39.6172 36.6028 39.5063 36.6402 39.3217 36.6402C39.1742 36.6776 38.2514 36.6776 38.1408 36.6776C38.1038 36.6776 38.1038 36.6402 38.1038 36.6032V34.5369C38.1038 34.4625 38.1038 34.4625 38.1408 34.4625H39.1742C39.5799 34.4999 39.6539 34.6109 39.6912 34.721C39.7286 34.832 39.7286 34.9422 39.7286 34.9796C39.7286 35.0532 39.7652 35.0905 39.8018 35.0905C39.8392 35.0905 39.8392 35.0532 39.8392 35.0162C39.8766 34.906 39.8766 34.5735 39.8766 34.4999C39.9132 34.3149 39.9501 34.2048 39.9501 34.1674C39.9501 34.1308 39.9502 34.0938 39.9128 34.0938C39.8762 34.0938 39.8392 34.1312 39.8018 34.1312C39.7652 34.1678 39.6542 34.1678 39.5071 34.1678H36.9233C36.8497 34.1678 36.8127 34.1678 36.8127 34.2051C36.8127 34.2417 36.8497 34.2787 36.8863 34.2787H37.1448C37.3664 34.3523 37.4399 34.4629 37.4399 34.7214C37.4769 34.9426 37.4769 35.1649 37.4769 36.3085V37.6374H37.4758ZM43.3446 37.6374C43.3446 38.3756 43.3446 38.9666 43.3072 39.2618C43.3072 39.4829 43.2706 39.6305 43.0861 39.6679C43.0495 39.7045 42.9385 39.7045 42.8649 39.7045C42.8275 39.7045 42.8275 39.7419 42.8275 39.7419C42.8275 39.8154 42.8649 39.8154 42.9385 39.8154C43.1597 39.8154 43.6397 39.7781 43.6397 39.7781C43.6771 39.7781 44.1568 39.8154 44.5629 39.8154C44.6365 39.8154 44.6731 39.7781 44.6731 39.7419C44.6731 39.7419 44.6731 39.7045 44.6365 39.7045C44.5629 39.7045 44.378 39.7045 44.267 39.6679C44.0458 39.6305 44.0085 39.4829 44.0085 39.2618C43.9719 38.9666 43.9719 38.376 43.9719 37.6374V37.4532C43.9719 37.4158 43.9719 37.4158 44.0085 37.4158H44.9316C44.9682 37.4158 45.0052 37.4158 45.0418 37.4532C45.1902 37.6743 45.5215 38.1544 45.854 38.5605C46.2601 39.1142 46.5187 39.4829 46.8512 39.6679C47.0354 39.7781 47.2199 39.8154 47.6626 39.8154H48.1797C48.3272 39.8154 48.3646 39.8154 48.3646 39.7419C48.3646 39.7419 48.3273 39.7045 48.2903 39.7045C48.2537 39.7045 48.1427 39.7045 47.9951 39.6679C47.811 39.6679 47.4788 39.5569 47.0727 39.1508C46.6666 38.6711 46.1496 38.0069 45.5223 37.232C46.2243 36.604 46.4455 36.0503 46.4455 35.4967C46.4455 34.9804 46.113 34.6116 45.9284 34.5003C45.5223 34.2051 45.0426 34.1678 44.5633 34.1678H42.8279C42.7543 34.1678 42.7177 34.1678 42.7177 34.2051C42.7177 34.2417 42.7543 34.2787 42.7543 34.2787H43.0129C43.2714 34.3523 43.3454 34.4629 43.3454 34.7214V37.6374H43.3446ZM43.9719 34.5377C43.9719 34.5003 43.9719 34.4633 44.0085 34.4267C44.0828 34.4267 44.3044 34.3893 44.5255 34.3893C45.3004 34.3893 45.8174 34.943 45.8174 35.9028C45.8174 36.4564 45.6325 36.8625 45.3377 37.0471C45.1902 37.1573 44.9682 37.1947 44.7841 37.1947C44.4515 37.1947 44.1194 37.1211 44.0085 37.0837C43.9719 37.0471 43.9719 37.0101 43.9719 36.9735V34.5377ZM50.7631 39.9264C51.1692 39.9264 51.5753 39.8154 51.9074 39.5939C52.4237 39.2244 52.5347 38.6707 52.5347 38.3756C52.5347 37.7483 52.3135 37.3056 51.4273 36.6036L51.2424 36.456C50.5412 35.8658 50.32 35.6072 50.32 35.1649C50.32 34.6478 50.7261 34.3153 51.2424 34.3153C51.9436 34.3153 52.1282 34.6112 52.1656 34.7214C52.2392 34.795 52.2758 34.98 52.2758 35.0909C52.2758 35.1275 52.2758 35.1645 52.3493 35.1645C52.3867 35.1645 52.3867 35.1271 52.3867 35.0162C52.3867 34.4999 52.4233 34.2414 52.4233 34.2048C52.4233 34.1674 52.3867 34.1674 52.3497 34.1674C52.2761 34.1674 52.2395 34.1674 52.092 34.1308C51.8612 34.0818 51.6259 34.0571 51.39 34.0572C50.4302 34.0572 49.8403 34.6109 49.8403 35.3857C49.8403 35.902 50.0253 36.3821 50.8001 37.0093L51.1326 37.3052C51.7965 37.8215 52.0176 38.1167 52.0176 38.6337C52.0176 39.1134 51.6489 39.6301 50.9476 39.6301C50.4306 39.6301 49.9513 39.4459 49.8403 38.8923C49.8029 38.7813 49.8029 38.6703 49.8029 38.5964C49.8029 38.5224 49.8029 38.5228 49.7663 38.5228C49.729 38.5228 49.6927 38.5601 49.6927 38.6337C49.6927 38.7439 49.6554 39.0398 49.6554 39.4459C49.6554 39.6301 49.6554 39.6671 49.7663 39.7037C50.0619 39.852 50.4306 39.9264 50.7631 39.9264ZM56.484 36.3089V34.7218C56.484 34.4633 56.5576 34.3157 56.7425 34.2791H56.9274C56.964 34.2791 57.001 34.2417 57.001 34.2055C57.001 34.1682 56.9637 34.1682 56.8901 34.1682H55.414C55.303 34.1682 55.2657 34.1682 55.2657 34.2055C55.2657 34.2421 55.303 34.2791 55.34 34.2791H55.5612C55.7454 34.3157 55.8189 34.4633 55.8189 34.7218V37.6374C55.8189 38.3756 55.8189 38.9666 55.7823 39.2618C55.7823 39.4829 55.745 39.6305 55.5974 39.6679C55.5238 39.7045 55.4132 39.7045 55.3762 39.7045C55.3026 39.7045 55.3027 39.7419 55.3027 39.7419C55.3027 39.8154 55.34 39.8154 55.4136 39.8154C55.6348 39.8154 56.1149 39.7781 56.1515 39.7781C56.1888 39.7781 56.6685 39.8154 57.0746 39.8154C57.1482 39.8154 57.1848 39.7781 57.1848 39.7419C57.1848 39.7419 57.1848 39.7045 57.1482 39.7045C57.0746 39.7045 56.8897 39.7045 56.7787 39.6679C56.5576 39.6305 56.521 39.4829 56.521 39.2618C56.4836 38.9666 56.4836 38.376 56.4836 37.6374V36.3089H56.484ZM62.0573 34.4633L62.9797 34.5007C63.7179 34.5007 63.8655 34.6856 63.9021 34.9068V34.9804C63.9394 35.0913 63.9394 35.1279 63.9764 35.1279C64.013 35.1279 64.013 35.0913 64.013 35.017C64.013 34.9434 64.0504 34.4267 64.0504 34.2055C64.0504 34.1682 64.0504 34.0946 64.013 34.0946C63.9764 34.0946 63.9021 34.1319 63.7919 34.1319C63.6809 34.1685 63.4967 34.1685 63.2748 34.1685H60.4702C60.3967 34.1685 60.1015 34.1685 59.8792 34.1319C59.695 34.1319 59.6214 34.0584 59.5475 34.0584C59.5101 34.0584 59.4731 34.1685 59.4731 34.2059C59.4731 34.2425 59.3255 34.9072 59.3255 34.9807C59.3255 35.0173 59.3255 35.0543 59.3629 35.0543C59.3629 35.0543 59.3995 35.017 59.4365 34.9807C59.4365 34.9072 59.4731 34.8698 59.5475 34.7222C59.6576 34.538 59.8426 34.5011 60.3223 34.5011L61.4296 34.4637V37.6377C61.4296 38.376 61.4296 38.967 61.3923 39.2622C61.3557 39.4833 61.3187 39.6309 61.1711 39.6683C61.0975 39.7049 61.0235 39.7049 60.9499 39.7049C60.9126 39.7049 60.8764 39.7422 60.8764 39.7422C60.8764 39.8158 60.9129 39.8158 60.9865 39.8158C61.2077 39.8158 61.6886 39.7785 61.7248 39.7785C61.7621 39.7785 62.2418 39.8158 62.6472 39.8158C62.7207 39.8158 62.7581 39.7785 62.7581 39.7422C62.7581 39.7422 62.7581 39.7049 62.7208 39.7049C62.6472 39.7049 62.4996 39.7049 62.389 39.6683C62.1671 39.6309 62.0931 39.4833 62.0931 39.2622C62.0565 38.967 62.0565 38.3764 62.0565 37.6377V34.4633H62.0573ZM68.9221 37.8597C68.9221 38.0439 68.9221 38.5235 68.8855 39.0036C68.8855 39.3361 68.7745 39.5573 68.553 39.6309C68.442 39.6309 68.2944 39.6683 68.1843 39.6683C68.1099 39.6683 68.1099 39.7049 68.1099 39.7419C68.1099 39.8154 68.1473 39.8154 68.2948 39.8154C68.6274 39.8154 69.3656 39.7781 69.4022 39.7781C69.4758 39.7781 70.1778 39.8154 70.8054 39.8154C70.953 39.8154 70.9896 39.7781 70.9896 39.7419C70.9896 39.7045 70.9896 39.6683 70.916 39.6683C70.8058 39.6683 70.5473 39.6309 70.3997 39.6309C70.0302 39.5573 69.9562 39.3357 69.92 39.0036C69.8827 38.5239 69.8827 38.0439 69.8827 37.8597V36.8625C69.8827 36.4938 69.8827 36.1247 70.0676 35.7186C70.2518 35.2389 71.8762 32.5445 72.2449 32.0644C72.5034 31.7685 72.6144 31.621 72.836 31.5108C73.0209 31.3632 73.2421 31.3258 73.3896 31.3258C73.4632 31.3258 73.5372 31.2892 73.5372 31.2522C73.5372 31.2152 73.4636 31.1786 73.3896 31.1786C73.1685 31.1786 72.3189 31.2152 72.2823 31.2152C72.1713 31.2152 71.8026 31.1786 71.5075 31.1786C71.3965 31.1786 71.3225 31.2152 71.3225 31.2522C71.3225 31.2892 71.3961 31.3258 71.5075 31.3632C71.655 31.3998 71.6916 31.5108 71.6916 31.6949C71.6916 31.8433 71.655 32.0275 71.5075 32.2486C71.2489 32.6547 69.8094 35.1279 69.5879 35.6076C69.3667 35.2751 67.6684 32.3596 67.4838 32.0275C67.4102 31.8433 67.3362 31.6949 67.3362 31.5478C67.3362 31.4742 67.4098 31.4002 67.4838 31.3636C67.5948 31.3262 67.6687 31.29 67.6687 31.2526C67.6687 31.2152 67.6321 31.179 67.5212 31.179C67.0785 31.179 66.6354 31.2156 66.5614 31.2156C66.4874 31.2156 65.639 31.179 65.4171 31.179C65.3069 31.179 65.2695 31.2156 65.2695 31.2526C65.2695 31.3262 65.3069 31.3262 65.3805 31.3262C65.4914 31.3262 65.713 31.3998 65.8602 31.5112C66.0813 31.6587 66.3765 31.9539 66.635 32.36C67.0411 32.951 68.5908 35.4604 68.6655 35.6454C68.8131 35.9771 68.9233 36.2357 68.9233 36.8629V37.8597H68.9221ZM22.786 9.95615C23.2291 10.5838 23.4506 11.3586 23.4506 12.2078C23.4506 14.4961 21.5684 16.3783 19.2798 16.3783C17.4712 16.3783 15.9211 15.2343 15.3305 13.6469L20.8668 15.9352L22.786 9.95615ZM15.0719 12.0599C15.1459 9.80819 16.9915 8 19.2798 8C20.0916 8 20.8298 8.22116 21.4575 8.62726L15.0719 12.0599Z" fill="#15538A"/>
<path fill-rule="evenodd" clip-rule="evenodd" d="M21.1619 10.2515L19.981 13.9792L16.7329 12.5767L21.1619 10.2515Z" fill="#15538A"/>
</svg>
