<svg width="48" height="48" viewBox="0 0 48 48" fill="none" xmlns="http://www.w3.org/2000/svg">
<path d="M25.4463 25.4251C28.9311 25.176 31.7989 22.579 32.6216 19.1312V26.2018C32.6216 26.2018 32.133 24.1107 29.9973 24.6982C28.6681 25.0636 27.6629 25.669 25.4463 25.4254V25.4251ZM32.6216 15.0715V8C32.6216 8 32.133 10.0923 29.9973 9.50455C28.6681 9.13927 27.6629 8.53363 25.4463 8.77708L25.4461 8.77756C28.9311 9.02638 31.799 11.624 32.6216 15.0715ZM20.8929 17.1013C20.8929 13.5884 23.2491 10.6525 26.396 9.93336C25.9132 9.82308 25.4112 9.76387 24.8967 9.76387C21.0291 9.76387 17.8945 13.049 17.8945 17.1013C17.8945 21.1538 21.0291 24.4388 24.8967 24.4388C25.4112 24.4388 25.9132 24.3802 26.396 24.2696C23.2491 23.5502 20.8929 20.6143 20.8929 17.1013Z" fill="#BF9C66"/>
<path d="M6.37618 32.0789C6.73621 31.6739 7.22838 31.4723 7.87981 31.4624C8.42554 31.4536 8.89968 31.5261 9.10837 31.5579C9.15874 31.5657 9.19247 31.5816 9.19457 31.6365C9.19457 31.6365 9.18284 32.4609 9.18284 32.4611C9.18097 32.5145 9.17895 32.5943 9.11894 32.5964C9.05552 32.5986 9.0528 32.5243 9.05093 32.4647C9.04417 32.2658 8.95774 32.0648 8.83539 31.9639C8.67582 31.8298 8.30047 31.6931 7.8537 31.7093C7.34598 31.7281 6.98408 31.8631 6.74686 32.1222C6.37485 32.5226 6.34003 33.0282 6.35441 33.4699C6.38519 34.3882 7.0744 35.3139 8.17502 35.2736C8.49083 35.2622 8.81044 35.2202 9.00873 34.992C9.1048 34.8787 9.15936 34.6551 9.17094 34.5639C9.17716 34.5201 9.18509 34.4652 9.2402 34.4633C9.258 34.4627 9.29904 34.4709 9.30215 34.5642C9.30362 34.6034 9.25916 35.0565 9.21494 35.2363C9.18688 35.3426 9.17436 35.3587 9.07821 35.4077C8.86866 35.5049 8.47909 35.5507 8.18474 35.5613C7.47221 35.5876 6.94328 35.4269 6.52106 35.0565C6.10701 34.6939 5.88595 34.1799 5.86426 33.529C5.85058 33.1211 5.97775 32.5258 6.37618 32.0789ZM12.687 35.3367C12.911 35.3367 14.0267 35.2521 14.0267 33.5864C14.0267 32.2909 13.2608 31.7012 12.5487 31.7012C11.6738 31.7012 11.1302 32.3445 11.1302 33.3795C11.1303 34.5317 11.7705 35.3367 12.687 35.3367ZM12.5836 31.4754C13.759 31.4754 14.5487 32.2654 14.5487 33.4408C14.5487 34.6822 13.7098 35.5832 12.5539 35.5832C11.2206 35.5832 10.6131 34.516 10.6131 33.525C10.6132 32.7322 11.1481 31.4754 12.5836 31.4754ZM22.6167 31.8036C22.8767 31.8132 22.9166 31.9073 22.9459 31.9766C22.9675 32.0318 22.9731 32.1131 22.9731 32.1521C22.9731 32.2291 23.0079 32.2457 23.0364 32.2457C23.0786 32.2457 23.09 32.1893 23.0944 32.1679C23.0949 32.1657 23.1585 31.5807 23.1585 31.5807C23.1585 31.556 23.1491 31.5354 23.1333 31.5215C23.1208 31.5114 23.1066 31.5074 23.0939 31.5099C22.9502 31.5496 22.8358 31.5469 22.8348 31.5469H20.945C20.9171 31.5469 20.8421 31.5474 20.8421 31.6136C20.8421 31.6463 20.8688 31.6697 20.9055 31.6697C20.9479 31.6697 21.0296 31.6752 21.068 31.685C21.2112 31.716 21.2374 31.7772 21.2478 31.9573C21.2478 31.9592 21.2481 35.128 21.2481 35.1376C21.2481 35.2839 21.206 35.3665 21.1234 35.3834C21.0686 35.3962 21.0152 35.4035 20.9796 35.4035C20.9358 35.4035 20.9163 35.4318 20.9163 35.4599C20.9163 35.5269 20.9912 35.5269 21.0196 35.5269H22.9226C23.1152 35.5269 23.1736 35.5269 23.2126 35.3729C23.2385 35.2606 23.2777 34.9056 23.2777 34.8646C23.2777 34.8263 23.2777 34.7619 23.2241 34.7619C23.1732 34.7619 23.1636 34.8182 23.1561 34.8598C23.1227 35.066 23.0663 35.1617 22.9477 35.2138C22.8242 35.2695 22.6103 35.2695 22.4825 35.2695C21.9967 35.2695 21.7486 35.1985 21.7347 34.8689V33.5437L22.6513 33.5439C22.8399 33.5439 22.8661 33.6386 22.8853 33.7076C22.9041 33.7705 22.9041 33.8191 22.9041 33.8713C22.9041 33.9146 22.9271 33.9426 22.9622 33.9426C23.0154 33.9426 23.017 33.8998 23.0194 33.8458L23.08 33.2005C23.08 33.1357 23.0431 33.1307 23.0318 33.1307C23.0033 33.1307 22.9826 33.1554 22.9516 33.1924L22.9394 33.2068C22.9022 33.2504 22.8608 33.271 22.7251 33.271H21.7347V31.8034H22.6167V31.8036ZM24.7373 32.4875C24.7488 32.8372 24.9442 33.1369 25.4991 33.5816L25.7278 33.7646C26.1793 34.1283 26.3223 34.335 26.3334 34.6717C26.3445 35.0013 26.105 35.3274 25.6569 35.344C25.474 35.3509 24.9381 35.3207 24.8333 34.8659C24.817 34.7963 24.8148 34.7259 24.8134 34.6801C24.8124 34.6512 24.8108 34.5985 24.7523 34.6004C24.6986 34.6024 24.6944 34.671 24.6925 34.7077C24.6925 34.709 24.6863 35.2581 24.6863 35.2581C24.6911 35.3971 24.6958 35.4349 24.7807 35.4747H24.7809C24.9708 35.5641 25.2913 35.599 25.5562 35.5893C25.8552 35.5781 26.1529 35.4766 26.3534 35.3352C26.7143 35.0798 26.7845 34.7127 26.7756 34.4423C26.7624 34.0419 26.5653 33.7181 25.9379 33.2365L25.7961 33.1281C25.3058 32.7361 25.1432 32.5965 25.1343 32.3227C25.1226 31.9788 25.3897 31.7159 25.7386 31.7031C26.1544 31.6882 26.4187 31.8617 26.462 31.9388C26.4909 31.9884 26.525 32.1232 26.5321 32.1851C26.5384 32.2253 26.5461 32.2747 26.5983 32.2726C26.6564 32.2707 26.654 32.1767 26.6521 32.1264C26.6521 32.1271 26.6528 31.5782 26.6528 31.5782C26.6507 31.5165 26.5995 31.5185 26.5775 31.5193C26.5389 31.5208 26.5012 31.5092 26.4091 31.4994C26.2292 31.4767 25.9989 31.4629 25.8247 31.4692C25.1895 31.4923 24.718 31.9068 24.7373 32.4875ZM33.8004 35.3367C34.0241 35.3367 35.1408 35.2521 35.1408 33.5864C35.1408 32.2909 34.3742 31.7012 33.6622 31.7012C32.787 31.7012 32.2434 32.3445 32.2434 33.3795C32.2434 34.5317 32.8836 35.3367 33.8004 35.3367ZM33.6967 31.4754C34.8724 31.4754 35.662 32.2654 35.662 33.4408C35.662 34.6822 34.8229 35.5832 33.6672 35.5832C32.3337 35.5832 31.7264 34.516 31.7264 33.525C31.7265 32.7322 32.2614 31.4754 33.6967 31.4754ZM37.5175 31.8055C36.9934 32.1503 36.681 32.7947 36.681 33.5287C36.681 34.2325 37.002 34.7733 37.2772 35.0227C37.6828 35.3949 38.2346 35.5832 38.9175 35.5832C39.2253 35.5832 39.6649 35.5213 39.9768 35.3473C40.0508 35.301 40.053 35.2743 40.053 35.0459V33.9281C40.0623 33.7536 40.1093 33.6798 40.226 33.6572C40.2258 33.6572 40.3452 33.6428 40.3452 33.6428C40.3822 33.6428 40.4091 33.6188 40.4091 33.5864C40.4091 33.5204 40.3368 33.5204 40.3055 33.5204H39.2636C39.2328 33.5204 39.1605 33.5204 39.1605 33.5864C39.1605 33.6188 39.1874 33.6428 39.2246 33.6428C39.2693 33.6428 39.3506 33.6476 39.3861 33.6569C39.5649 33.7083 39.5907 33.7435 39.5907 34.1663V35.0459C39.5907 35.1218 39.5632 35.1721 39.5039 35.2048C39.3845 35.2778 39.141 35.3106 38.9526 35.3106C38.4597 35.3106 38.0301 35.1267 37.6749 34.7639C37.4961 34.5819 37.1578 34.0528 37.1578 33.348C37.1578 32.7871 37.3376 32.3029 37.6382 32.053C37.9962 31.7578 38.351 31.717 38.6806 31.717C39.292 31.717 39.6945 31.922 39.8219 32.1255C39.9048 32.2634 39.9198 32.4236 39.9219 32.4543C39.9264 32.4997 39.9325 32.5553 39.98 32.5553C40.0482 32.5553 40.0482 32.4783 40.0482 32.4218C40.0482 32.4223 40.0826 31.6878 40.0826 31.6878C40.0826 31.6575 40.0684 31.622 40.0024 31.6154C39.8703 31.6097 39.7 31.5875 39.6054 31.5644C39.5624 31.5545 39.1829 31.4754 38.8439 31.4754C38.4614 31.4754 37.9652 31.513 37.5175 31.8055ZM43.1291 33.7483L42.645 32.3112L42.1949 33.7483H43.1291ZM42.1492 33.9845C42.1492 33.9845 41.7755 35.2131 41.7755 35.2795C41.7755 35.3699 41.8757 35.4036 41.9387 35.4036H41.9889C42.0521 35.4036 42.0618 35.4392 42.0618 35.4597C42.0618 35.4852 42.049 35.527 41.9639 35.527H41.0202C40.9849 35.527 40.9024 35.527 40.9024 35.4597C40.9024 35.427 40.9308 35.4036 40.9712 35.4036C40.9712 35.4036 41.1105 35.3936 41.1113 35.3933C41.3168 35.3659 41.4119 35.2001 41.5069 34.9241L42.6298 31.694C42.6894 31.522 42.713 31.4756 42.7612 31.4756C42.8076 31.4756 42.8309 31.5112 42.8918 31.6771C42.8918 31.6771 43.827 34.2291 44.0466 34.8025C44.2228 35.2598 44.3685 35.35 44.4641 35.3784C44.5196 35.3985 44.5819 35.4081 44.6539 35.4081C44.6719 35.4081 44.7267 35.4081 44.7267 35.4645C44.7267 35.495 44.7056 35.5259 44.6042 35.5259L43.8047 35.5261C43.7129 35.5216 43.6576 35.5188 43.6576 35.4669C43.6576 35.4362 43.6766 35.4141 43.7076 35.4068C43.7129 35.405 43.7374 35.4015 43.7374 35.354C43.7374 35.3388 43.7312 35.315 43.7228 35.2927C43.7228 35.2927 43.247 33.9845 43.247 33.9844H42.1492V33.9845ZM30.2757 31.8313C30.5699 31.8368 30.6941 31.8787 30.7691 31.9964C30.8201 32.0783 30.835 32.1136 30.8508 32.1509C30.8628 32.1846 30.8804 32.2194 30.9224 32.2194C30.9461 32.2194 30.9712 32.2007 30.9712 32.1479C30.9712 32.0891 30.8576 31.5906 30.8576 31.5906C30.8403 31.5183 30.8275 31.471 30.7888 31.4861L30.7263 31.5118C30.6828 31.5281 30.6511 31.5412 30.5716 31.5478H28.1273C28.0475 31.5412 28.0158 31.5281 27.9724 31.5118L27.9098 31.4861C27.8712 31.4708 27.8589 31.5184 27.8411 31.5904C27.8411 31.5904 27.7274 32.0891 27.7274 32.1479C27.7274 32.2005 27.7526 32.2194 27.7764 32.2194C27.8182 32.2194 27.8363 32.1846 27.8481 32.1506C27.8636 32.1136 27.8786 32.0783 27.9298 31.9964C28.0045 31.8787 28.129 31.8366 28.4232 31.8313L29.1211 31.8305V33.9868C29.1211 34.4791 29.1211 34.9041 29.0961 35.1205C29.0754 35.2783 29.0497 35.3674 28.9723 35.3835C28.9188 35.3958 28.8651 35.4034 28.8284 35.4034C28.7817 35.4034 28.7652 35.4339 28.7652 35.4595C28.7652 35.5262 28.837 35.5262 28.8678 35.5262H29.8324C29.8632 35.5262 29.9352 35.5262 29.9352 35.4595C29.9352 35.4339 29.9186 35.4034 29.8718 35.4034C29.8357 35.4034 29.7822 35.3958 29.7293 35.3835C29.6512 35.3674 29.6259 35.2818 29.6041 35.1199C29.5798 34.9041 29.5798 34.4791 29.5798 33.9868V31.8305L30.2757 31.8313ZM15.7112 31.5467C15.6436 31.5467 15.5881 31.5467 15.5881 31.6084C15.5881 31.6487 15.6102 31.6623 15.6515 31.6694C15.6789 31.6737 15.7049 31.6799 15.8 31.6945C15.9329 31.719 15.9692 31.7563 15.9742 32.0912L15.9757 34.7414C15.9757 35.2138 15.9499 35.344 15.8462 35.375C15.7817 35.3973 15.7005 35.4051 15.6501 35.4051C15.6032 35.4051 15.5864 35.4346 15.5864 35.4606C15.5864 35.5273 15.6535 35.5273 15.6896 35.5273H16.6873C16.7212 35.5273 16.8007 35.5273 16.8007 35.4606C16.8007 35.4336 16.7836 35.4051 16.7369 35.4051C16.7236 35.4051 16.6023 35.4036 16.4957 35.3747C16.3879 35.3412 16.3312 35.2425 16.3211 34.7973C16.3211 34.7973 16.2617 32.496 16.2583 32.3689C16.6157 32.7773 18.7425 35.1589 18.7958 35.2096C19.0782 35.5062 19.1241 35.5474 19.1724 35.5474C19.2346 35.5474 19.2553 35.4908 19.2553 35.1543L19.2504 32.1208C19.2504 31.8111 19.2715 31.7162 19.4139 31.6854C19.4715 31.6701 19.5043 31.6701 19.5278 31.6701C19.5853 31.6701 19.6059 31.6371 19.6059 31.6092C19.6059 31.5478 19.5326 31.5478 19.4932 31.5478H18.5596C18.5137 31.5478 18.4368 31.5478 18.4368 31.6092C18.4368 31.6495 18.4584 31.6701 18.5002 31.6701C18.5329 31.6701 18.6458 31.6747 18.7376 31.6953C18.8708 31.7318 18.9066 31.8283 18.9116 32.1632L18.909 34.7271C18.8285 34.6343 16.2836 31.7186 16.2836 31.7186C16.2144 31.6404 16.1492 31.5467 16.0812 31.5467H15.7112ZM12.0156 38.0877C11.9911 37.7538 11.7167 37.6156 11.4278 37.6156C10.8938 37.6156 10.666 38.0721 10.666 38.5803C10.666 39.094 10.8914 39.5457 11.4278 39.5457C11.712 39.5457 11.9838 39.3687 12.0353 39.058H11.8639C11.8194 39.2889 11.6239 39.3917 11.4278 39.3917C10.9745 39.3917 10.8376 38.9606 10.8376 38.5804C10.8376 38.2006 10.9745 37.7695 11.4278 37.7695C11.6287 37.7695 11.8148 37.8617 11.8442 38.0878H12.0156V38.0877ZM12.9122 38.1799C13.3042 38.1799 13.4854 38.5239 13.4854 38.8628C13.4854 39.2015 13.3042 39.5455 12.9122 39.5455C12.5202 39.5455 12.339 39.2015 12.339 38.8628C12.339 38.5238 12.5202 38.1799 12.9122 38.1799ZM13.3263 38.8628C13.3263 38.6244 13.2085 38.3212 12.9122 38.3212C12.6159 38.3212 12.4981 38.6244 12.4981 38.8628C12.4981 39.1015 12.6159 39.4044 12.9122 39.4044C13.2085 39.4044 13.3263 39.1015 13.3263 38.8628ZM14.0044 38.7653C14.0044 38.5341 14.115 38.3211 14.3572 38.3211C14.5582 38.3211 14.6807 38.4523 14.6807 38.6754V39.5071H14.8278V38.7012C14.8278 38.5524 14.7958 38.18 14.3942 38.18C14.2349 38.18 14.0953 38.2545 14.0096 38.4137L14.0045 38.4086L13.9973 38.2187H13.8454C13.8503 38.3058 13.8579 38.4086 13.8579 38.5089V39.5072H14.0045L14.0044 38.7653ZM15.4054 38.7653C15.4054 38.5341 15.516 38.3211 15.7582 38.3211C15.9591 38.3211 16.0817 38.4523 16.0817 38.6754V39.5071H16.2288V38.7012C16.2288 38.5524 16.197 38.18 15.7953 38.18C15.6359 38.18 15.4962 38.2545 15.4105 38.4137L15.4055 38.4086L15.3983 38.2187H15.2464C15.2513 38.3058 15.2589 38.4086 15.2589 38.5089V39.5072H15.4055L15.4054 38.7653ZM16.7308 38.8988C16.7358 39.1735 16.8555 39.4044 17.1568 39.4044C17.3308 39.4044 17.4755 39.2735 17.5122 39.0965H17.6665C17.5903 39.4044 17.4069 39.5455 17.1104 39.5455C16.7429 39.5455 16.5714 39.2146 16.5714 38.8628C16.5714 38.5138 16.7552 38.1799 17.1203 38.1799C17.5317 38.1799 17.6812 38.4959 17.6812 38.8988H16.7308ZM17.5219 38.7575C17.5048 38.5088 17.3775 38.3212 17.1227 38.3212C16.8824 38.3212 16.7553 38.5317 16.7358 38.7575H17.5219ZM19.0185 38.614C19.0063 38.3393 18.8005 38.1801 18.5481 38.1801C18.1834 38.1801 17.9993 38.5138 17.9993 38.8628C17.9993 39.2148 18.1708 39.5455 18.5383 39.5455C18.8179 39.5455 18.9793 39.3994 19.0185 39.1041H18.8591C18.8469 39.2813 18.715 39.4044 18.5237 39.4044C18.2983 39.4044 18.1586 39.1554 18.1586 38.8602C18.1586 38.5676 18.2983 38.3211 18.5237 38.3211C18.727 38.3211 18.8469 38.416 18.8591 38.614H19.0185ZM19.496 39.1632C19.496 39.3377 19.4787 39.5457 19.7901 39.5457C19.8392 39.5457 19.893 39.5353 19.9396 39.5225V39.389C19.9002 39.4018 19.8561 39.4046 19.812 39.4046C19.6993 39.4046 19.6407 39.3403 19.643 39.2223V38.3596H19.9223V38.2186H19.643V37.8774L19.4959 37.9439V38.2186H19.2513V38.3596H19.4959L19.496 39.1632ZM22.1106 39.5071V39.3533H21.221V37.6538H21.0619V39.5071H22.1106ZM22.622 37.6538H22.4507V37.8462H22.622V37.6538ZM22.61 38.2186H22.4632V39.5071H22.61V38.2186ZM23.3422 39.5071V38.3597H23.6214V38.2187H23.3422V38.0545C23.3347 37.8694 23.3396 37.7644 23.541 37.7644C23.57 37.7644 23.6017 37.7694 23.6313 37.7747V37.6513C23.5874 37.641 23.5381 37.6228 23.4914 37.6228C23.2812 37.6228 23.1953 37.7232 23.1953 37.9438V38.2185H22.9477V38.3595H23.1953V39.507H23.3422V39.5071ZM23.974 38.8988C23.979 39.1735 24.0989 39.4044 24.4002 39.4044C24.5742 39.4044 24.7187 39.2735 24.7554 39.0965H24.9097C24.8336 39.4044 24.6501 39.5455 24.3536 39.5455C23.9864 39.5455 23.8148 39.2146 23.8148 38.8628C23.8148 38.5138 23.9986 38.1799 24.3637 38.1799C24.7751 38.1799 24.9246 38.4959 24.9246 38.8988H23.974ZM24.7656 38.7575C24.7483 38.5088 24.621 38.3212 24.3662 38.3212C24.1261 38.3212 23.9987 38.5317 23.979 38.7575H24.7656ZM26.6511 38.5986C26.6362 38.3881 26.5333 38.3214 26.3594 38.3214C26.2051 38.3214 26.0777 38.37 26.0582 38.5447H25.9015C25.9383 38.2801 26.1266 38.1801 26.3618 38.1801C26.6337 38.1801 26.8027 38.3109 26.7979 38.6061V39.2169C26.7955 39.317 26.8054 39.4197 26.8101 39.5071H26.6582L26.6534 39.317H26.6483L26.6412 39.3349C26.5871 39.4429 26.4229 39.5457 26.2564 39.5457C26.0289 39.5457 25.8474 39.3993 25.8474 39.1478C25.8474 38.973 25.9479 38.8396 26.0947 38.7756C26.2588 38.7011 26.472 38.727 26.651 38.7166L26.6511 38.5986ZM26.0068 39.1479C26.0068 39.3224 26.1342 39.4047 26.2837 39.4047C26.6045 39.4047 26.6658 39.1274 26.6511 38.8578C26.4427 38.8653 26.0068 38.8242 26.0068 39.1479ZM27.3761 38.7653C27.3761 38.5341 27.4864 38.3211 27.7286 38.3211C27.9295 38.3211 28.0521 38.4523 28.0521 38.6754V39.5071H28.1989V38.7012C28.1989 38.5524 28.1672 38.18 27.7657 38.18C27.6061 38.18 27.4667 38.2545 27.3809 38.4137L27.3761 38.4086L27.3686 38.2187H27.2168C27.2217 38.3058 27.2287 38.4086 27.2287 38.5089V39.5072H27.3761V38.7653ZM29.4755 39.3173L29.4705 39.307C29.3701 39.4609 29.2205 39.5457 29.0492 39.5457C28.6842 39.5457 28.5446 39.181 28.5446 38.8579C28.5446 38.5239 28.6842 38.1802 29.0492 38.1802C29.2133 38.1802 29.3847 38.2626 29.4705 38.4139L29.4755 38.4084V37.6539H29.6224V39.2174C29.6224 39.3174 29.6298 39.4198 29.6346 39.5072H29.4827L29.4755 39.3173ZM29.4704 38.832C29.4704 38.5702 29.3601 38.3214 29.0734 38.3214C28.7944 38.3214 28.7036 38.5931 28.7036 38.8396C28.7036 39.0786 28.7699 39.4044 29.0516 39.4044C29.3725 39.4044 29.4704 39.1246 29.4704 38.832ZM31.7525 39.5071V39.3533H30.8634V37.6538H30.7038V39.5071H31.7525ZM32.1173 38.8988C32.1222 39.1735 32.2422 39.4044 32.5435 39.4044C32.7175 39.4044 32.862 39.2735 32.8986 39.0965H33.0532C32.977 39.4044 32.7933 39.5455 32.4969 39.5455C32.1294 39.5455 31.9581 39.2146 31.9581 38.8628C31.9581 38.5138 32.1419 38.1799 32.5067 38.1799C32.9182 38.1799 33.0679 38.4959 33.0679 38.8988H32.1173ZM32.9084 38.7575C32.8915 38.5088 32.7639 38.3212 32.5094 38.3212C32.2691 38.3212 32.142 38.5317 32.1223 38.7575H32.9084ZM34.1529 38.5986C34.1384 38.3881 34.0353 38.3214 33.8616 38.3214C33.7073 38.3214 33.5795 38.37 33.56 38.5447H33.4033C33.4401 38.2801 33.6284 38.1801 33.8637 38.1801C34.1355 38.1801 34.3047 38.3109 34.2999 38.6061V39.2169C34.2973 39.317 34.3071 39.4197 34.3121 39.5071H34.1602L34.155 39.317H34.1504L34.1429 39.3349C34.0891 39.4429 33.925 39.5457 33.7585 39.5457C33.5303 39.5457 33.3494 39.3993 33.3494 39.1478C33.3494 38.973 33.4499 38.8396 33.5967 38.7756C33.7611 38.7011 33.974 38.727 34.1528 38.7166V38.5986H34.1529ZM33.5086 39.1479C33.5086 39.3224 33.6362 39.4047 33.7854 39.4047C34.1065 39.4047 34.1678 39.1274 34.1529 38.8578C33.9448 38.8653 33.5086 38.8242 33.5086 39.1479ZM34.8926 38.7321C34.8976 38.4856 35.0128 38.3211 35.2307 38.3211C35.2603 38.3211 35.2919 38.3289 35.3213 38.3315V38.1827C35.2723 38.1799 35.2235 38.1775 35.1744 38.1799C35.0519 38.1851 34.9416 38.2776 34.8976 38.4086H34.8926L34.8854 38.2187H34.7335C34.7383 38.3058 34.7481 38.4086 34.7457 38.5089V39.5072H34.8926V38.7321ZM35.7868 38.7653C35.7868 38.5341 35.8971 38.3211 36.1396 38.3211C36.3402 38.3211 36.4628 38.4523 36.4628 38.6754V39.5071H36.6101V38.7012C36.6101 38.5524 36.5781 38.18 36.1763 38.18C36.017 38.18 35.8776 38.2545 35.7919 38.4137L35.7868 38.4086L35.7796 38.2187H35.6277C35.6326 38.3058 35.6398 38.4086 35.6398 38.5089V39.5072H35.7868V38.7653H35.7868ZM37.2001 37.6538H37.0288V37.8462H37.2001V37.6538ZM37.1877 38.2186H37.0409V39.5071H37.1877V38.2186ZM37.7708 38.7653C37.7708 38.5341 37.8811 38.3211 38.1238 38.3211C38.3244 38.3211 38.4468 38.4523 38.4468 38.6754V39.5071H38.5941V38.7012C38.5941 38.5524 38.5624 38.18 38.1603 38.18C38.0012 38.18 37.8616 38.2545 37.7759 38.4137L37.7708 38.4086L37.7636 38.2187H37.6117C37.6165 38.3058 37.624 38.4086 37.624 38.5089V39.5072H37.7708V38.7653H37.7708ZM39.8891 38.2189H40.041C40.0361 38.306 40.0287 38.4085 40.0287 38.5085V39.2812C40.0287 39.5378 40.041 39.8073 39.7692 39.941C39.6711 39.9896 39.6051 40 39.4902 40C39.2669 40 39.0023 39.9204 39.0023 39.6535H39.1618C39.1788 39.8074 39.3525 39.8587 39.5094 39.8587C39.7006 39.8587 39.8769 39.7178 39.882 39.5019V39.2604H39.8769C39.8058 39.4123 39.6371 39.5019 39.4778 39.5019C39.1077 39.5019 38.9486 39.2069 38.9486 38.8527C38.9486 38.5035 39.098 38.1801 39.4729 38.1801C39.6518 38.1801 39.7791 38.2698 39.8769 38.4186L39.8819 38.4086L39.8891 38.2189ZM39.8819 38.8346C39.8819 38.5881 39.7519 38.3214 39.4875 38.3214C39.2203 38.3214 39.1076 38.6034 39.1076 38.8396C39.1076 39.0757 39.2227 39.3608 39.4923 39.3608C39.774 39.3609 39.8819 39.0861 39.8819 38.8346Z" fill="black"/>
</svg>
