<svg width="50" height="48" viewBox="0 0 50 48" fill="none" xmlns="http://www.w3.org/2000/svg">
<path fill-rule="evenodd" clip-rule="evenodd" d="M5.04834 9.85015C5.04834 9.85015 10.8457 10.0614 15.004 13.6738V17.8323C15.004 17.8323 12.5548 11.9293 5.06584 10.8897L5.04834 9.85015ZM18.4578 10.2025V13.6563C13.5239 10.2909 8.53735 9.85015 8.53735 9.85015V8.81057C8.53735 8.81057 15.286 9.11021 18.4578 10.2025ZM21.9468 8.423C19.3918 8.29964 13.436 8 13.436 8L13.4535 8.81057C13.4535 8.81057 18.3345 9.23357 21.9643 10.2025L21.9468 8.423Z" fill="#BFA639"/>
<path fill-rule="evenodd" clip-rule="evenodd" d="M21.9469 17.6919L22.1936 17.586C22.3699 17.5156 22.3699 17.4275 22.3699 17.0574V14.8547C22.3699 14.6786 22.317 14.6257 22.1936 14.5728L21.9823 14.4846V14.379H22.6518L22.7048 14.4142C22.8281 14.5728 23.0748 14.9428 23.3743 15.3304L24.5724 16.9515C24.5901 17.0043 24.6251 17.0397 24.6429 17.0397C24.6783 17.0397 24.6783 16.9868 24.6783 16.8986V14.9251C24.6783 14.6784 24.6606 14.6607 24.4668 14.5728L24.2026 14.4846V14.379H25.3653V14.4846L25.2244 14.5198C24.9248 14.6257 24.9248 14.6609 24.9248 15.0308V17.0043C24.9248 17.3216 24.9425 17.6563 24.9425 17.7444L24.9071 17.7973H24.696L24.6429 17.7444C24.5547 17.6563 24.3963 17.4273 24.1496 17.0924L22.775 15.2598C22.7046 15.1716 22.6693 15.1187 22.6516 15.1187C22.6164 15.1187 22.6164 15.1716 22.6164 15.2421V17.2156C22.6164 17.4446 22.5989 17.5327 22.8102 17.5856L23.1273 17.6915V17.7971H21.9469V17.6919ZM27.0392 17.0574C27.0392 17.1808 27.0214 17.4098 26.916 17.4979C26.8102 17.5508 26.6868 17.6213 26.4928 17.6213C26.1932 17.6213 25.9996 17.41 25.9996 17.0574C25.9996 16.8636 26.0877 16.7228 26.2638 16.6698C26.4399 16.6169 26.8099 16.564 26.9158 16.564C27.0389 16.564 27.0389 16.5992 27.0389 16.705L27.0392 17.0574ZM27.797 17.7975V17.6919L27.5682 17.6213C27.4094 17.5685 27.4269 17.5331 27.4269 17.2866V16.0532C27.4269 15.5598 27.2861 15.2602 26.7222 15.2602C26.458 15.2602 26.2463 15.3306 26.1934 15.3835L26.1229 15.454L25.806 15.7536L25.8941 15.8417C26.035 15.7184 26.2465 15.5421 26.5461 15.5421C26.9335 15.5421 27.0394 15.7359 27.0394 16.2293C27.0394 16.2822 27.0216 16.3175 26.9866 16.335C26.9512 16.3702 26.4051 16.4408 26.0881 16.5465C26.0173 16.5817 25.577 16.7755 25.577 17.181C25.577 17.5863 25.8412 17.8682 26.2817 17.8682C26.7049 17.8682 26.8106 17.6392 26.9514 17.6392C27.0219 17.6392 27.0573 17.7273 27.0927 17.7978L27.797 17.7975ZM29.2067 17.7975C29.0654 17.8503 29.0306 17.868 28.9247 17.868C28.4842 17.868 28.3609 17.7269 28.3609 17.2689V15.7007C28.3609 15.5773 28.3432 15.5421 28.2373 15.5246L27.9908 15.4717V15.3658L28.255 15.3131C28.3963 15.2956 28.3963 15.2602 28.4311 15.1193L28.5547 14.6436H28.6782L28.7664 15.1545C28.7837 15.2779 28.8014 15.2779 28.9952 15.3131L29.3125 15.3658V15.4717L28.9952 15.5246C28.7486 15.5598 28.7486 15.5775 28.7486 15.7713V16.9695C28.7486 17.4277 28.8368 17.639 29.2069 17.639C29.2596 17.639 29.33 17.6213 29.3829 17.6213L29.4007 17.7094L29.2067 17.7975ZM29.788 17.6919L30.0172 17.6213C30.1758 17.5685 30.1758 17.5508 30.1758 17.2866V15.8065C30.1758 15.5775 30.1581 15.5775 29.9997 15.5421L29.7709 15.4717V15.4012L30.5284 15.2779L30.5461 15.3131V17.2866C30.5461 17.5333 30.5461 17.5685 30.7049 17.6213L30.9337 17.6919V17.7975H29.7882V17.6919H29.788ZM30.1054 14.5023C30.1054 14.3262 30.2112 14.2381 30.3696 14.2381C30.5109 14.2381 30.6338 14.3262 30.6338 14.5023C30.6338 14.6609 30.5107 14.7665 30.3696 14.7665C30.211 14.7665 30.1054 14.6609 30.1054 14.5023ZM31.7263 16.4583C31.7263 15.8238 31.9024 15.4715 32.3783 15.4715C32.9072 15.4715 33.1362 15.8945 33.1362 16.5463C33.1362 17.1808 32.9953 17.6565 32.4665 17.6565C31.9909 17.6565 31.7263 17.2864 31.7263 16.4583ZM32.3256 17.868C33.1185 17.868 33.5415 17.3745 33.5415 16.4054C33.5415 15.6123 33.136 15.26 32.484 15.26C31.9024 15.26 31.3035 15.5946 31.3035 16.5288C31.3035 17.3218 31.5855 17.868 32.3256 17.868ZM33.9642 17.6919L34.1935 17.6213C34.352 17.5685 34.352 17.5331 34.352 17.2866V15.8065C34.352 15.595 34.352 15.5775 34.1935 15.5421L33.982 15.4715V15.401L34.669 15.2777C34.7044 15.3658 34.7221 15.5067 34.7925 15.5067C34.8984 15.5067 35.0922 15.26 35.5504 15.26C35.8673 15.26 36.2551 15.3833 36.2551 16.0705V17.2864C36.2551 17.5331 36.2551 17.5683 36.4139 17.6211L36.6427 17.6917V17.7973H35.4973V17.6917L35.7265 17.6211C35.8673 17.5683 35.8673 17.5506 35.8673 17.2864V16.2468C35.8673 15.8063 35.7792 15.5067 35.2862 15.5067C35.0924 15.5067 34.74 15.5596 34.74 16.0001V17.2864C34.74 17.5331 34.74 17.5683 34.8809 17.6211L35.1101 17.6917V17.7973H33.9647V17.6919H33.9642ZM38.4224 17.0574C38.4224 17.1808 38.4224 17.4098 38.2988 17.4979C38.2107 17.5508 38.0873 17.6213 37.8933 17.6213C37.5764 17.6213 37.3826 17.41 37.3826 17.0574C37.3826 16.8636 37.4708 16.7228 37.6646 16.6698C37.8406 16.6169 38.193 16.564 38.2988 16.564C38.4224 16.564 38.4224 16.5992 38.4224 16.705V17.0574ZM39.1976 17.7975V17.6919L38.9688 17.6213C38.8102 17.5685 38.8102 17.5331 38.8102 17.2866V16.0532C38.8102 15.5598 38.6689 15.2602 38.1228 15.2602C37.8585 15.2602 37.6468 15.3306 37.5766 15.3835L37.5062 15.454L37.2065 15.7536L37.277 15.8415C37.4183 15.7182 37.647 15.5419 37.929 15.5419C38.3168 15.5419 38.4224 15.7357 38.4224 16.2291C38.4224 16.282 38.4224 16.3173 38.387 16.3348C38.3343 16.37 37.7881 16.4406 37.4885 16.5463C37.4003 16.5815 36.96 16.7753 36.96 17.1808C36.96 17.586 37.242 17.868 37.6648 17.868C38.1053 17.868 38.1932 17.639 38.3522 17.639C38.4049 17.639 38.4403 17.7271 38.4753 17.7975H39.1976ZM39.5499 17.6919L39.7791 17.6213C39.9377 17.5685 39.9377 17.5331 39.9377 17.2866V14.6609C39.9377 14.4671 39.9377 14.4142 39.7791 14.379L39.5499 14.3262V14.2381L40.2728 14.1147L40.3255 14.15V17.2864C40.3255 17.5331 40.3078 17.5683 40.4841 17.6211L40.6956 17.6917V17.7973H39.5501L39.5499 17.6919ZM24.6958 22.6783C24.5899 22.9427 24.4666 23.2069 24.3784 23.2776C24.308 23.3303 23.9733 23.4361 23.4622 23.4361C22.4931 23.4361 21.9644 22.8371 21.9644 21.7269C21.9644 20.4228 22.7575 19.8944 23.7441 19.8944C24.1319 19.8944 24.7308 20.0178 24.7308 20.3878C24.7308 20.4231 24.7135 20.476 24.6958 20.4937L24.537 20.8461H24.4489C24.3961 20.4937 24.0615 20.1413 23.4799 20.1413C22.7575 20.1413 22.4403 20.617 22.4403 21.6039C22.4403 22.5731 22.7927 23.1898 23.6035 23.1898C24.2728 23.1898 24.537 22.6789 24.6606 22.4497L24.7841 22.5026L24.6958 22.6783ZM25.5943 22.044C25.5943 21.4097 25.7704 21.0571 26.2463 21.0571C26.757 21.0571 27.0041 21.4799 27.0041 22.1319C27.0041 22.7664 26.8629 23.2421 26.3344 23.2421C25.8587 23.2424 25.5943 22.8723 25.5943 22.044ZM26.1934 23.4361C26.9866 23.4361 27.4092 22.9602 27.4092 21.9911C27.4092 21.1982 27.0041 20.8456 26.3521 20.8456C25.7706 20.8456 25.1717 21.1805 25.1717 22.1144C25.1717 22.9075 25.4532 23.4361 26.1934 23.4361ZM27.7616 23.2776L27.9908 23.2071C28.1494 23.1542 28.1494 23.119 28.1494 22.8548V20.2468C28.1494 20.053 28.1317 20.0001 27.9908 19.9648L27.7616 19.9121V19.8065L28.4844 19.7006L28.5371 19.7358V22.8548C28.5371 23.119 28.5194 23.1544 28.6784 23.2071L28.9072 23.2776V23.3832H27.7618L27.7616 23.2776ZM29.1714 23.2776L29.4007 23.2071C29.5592 23.1542 29.5592 23.119 29.5592 22.8548V20.2468C29.5592 20.053 29.5592 20.0001 29.4007 19.9648L29.1714 19.9121V19.8065L29.8939 19.7006L29.947 19.7358V22.8548C29.947 23.119 29.9293 23.1544 30.1056 23.2071L30.3171 23.2776V23.3832H29.1716L29.1714 23.2776ZM31.2681 21.8854C31.1095 21.8854 31.057 21.8854 31.057 21.7269C31.057 21.4449 31.2156 21.0573 31.6382 21.0573C32.0437 21.0573 32.2902 21.4097 32.2902 21.7621C32.2902 21.8679 32.2375 21.8854 32.1141 21.8854H31.2681ZM32.5898 23.0838L32.5544 22.9956C32.3958 23.0838 32.1843 23.1717 31.9201 23.1717C31.18 23.1717 31.057 22.5197 31.057 22.2555C31.057 22.0969 31.1274 22.0969 31.2858 22.0969H32.5017C32.5721 22.0969 32.5898 22.0969 32.6252 22.0617C32.678 22.0265 32.6957 22.0265 32.6957 21.9208C32.6957 20.9692 32.1141 20.8458 31.7972 20.8458C31.1452 20.8458 30.634 21.2863 30.634 22.0969C30.634 22.9602 31.0041 23.4361 31.6915 23.4361C31.938 23.4361 32.22 23.3832 32.3435 23.2776L32.5898 23.0838ZM33.5765 21.5683C33.5765 21.2686 33.7525 21.0573 34.1053 21.0573C34.4577 21.0573 34.6865 21.3393 34.6865 21.6918C34.6865 22.0265 34.4927 22.2203 34.1757 22.2203C33.8407 22.2203 33.5765 21.9561 33.5765 21.5683ZM35.3741 20.7929L35.321 20.7225L34.8982 20.8986C34.845 20.9161 34.7923 20.9515 34.7396 20.9515C34.6688 20.9515 34.5458 20.8456 34.2285 20.8456C33.6646 20.8456 33.1537 21.1276 33.1537 21.7089C33.1537 21.9734 33.2772 22.0967 33.3652 22.2024C33.4706 22.308 33.6294 22.308 33.6294 22.3609C33.6294 22.4139 33.5763 22.4314 33.4706 22.4843C33.4179 22.5195 33.3652 22.537 33.3475 22.5899C33.277 22.7487 33.2239 22.9071 33.2239 22.96C33.2239 23.1011 33.5058 23.1538 33.5058 23.2419C33.5058 23.3478 33.0653 23.2597 33.0653 23.7177C33.0653 24.299 33.4881 24.5632 34.1933 24.5632C34.8098 24.5632 35.3385 24.1932 35.3385 23.5239C35.3385 23.1715 35.1799 23.0129 34.8803 22.9248C34.7567 22.8896 34.5633 22.8896 34.2987 22.8896C33.7525 22.8896 33.5763 22.8896 33.5763 22.6958C33.594 22.4843 33.7878 22.4139 34.1224 22.4139C34.5806 22.4139 35.1095 22.1671 35.1095 21.6033C35.1095 21.3918 35.0213 21.2686 35.0213 21.2157C35.0213 21.1628 35.0741 21.1276 35.1095 21.0924L35.3741 20.7929ZM33.4535 23.6651C33.4535 23.2421 33.9117 23.1892 34.2287 23.1892C34.6342 23.1892 34.9511 23.3126 34.9511 23.7002C34.9511 24.1052 34.7223 24.3524 34.2818 24.3524C33.7705 24.3526 33.4535 24.1056 33.4535 23.6651ZM36.3253 21.8854C36.1668 21.8854 36.1142 21.8854 36.1142 21.7269C36.1142 21.4449 36.2728 21.0573 36.6954 21.0573C37.1009 21.0573 37.3474 21.4097 37.3474 21.7621C37.3474 21.8679 37.2947 21.8854 37.1713 21.8854H36.3253ZM37.647 23.0838L37.612 22.9956C37.4533 23.0838 37.242 23.1717 36.9773 23.1717C36.2372 23.1717 36.1142 22.5197 36.1142 22.2555C36.1142 22.0969 36.1847 22.0969 36.343 22.0969H37.5589C37.6293 22.0969 37.6293 22.0969 37.6825 22.0617C37.7352 22.0265 37.7529 22.0265 37.7529 21.9208C37.7529 20.9692 37.1713 20.8458 36.8544 20.8458C36.2024 20.8458 35.6913 21.2863 35.6913 22.0969C35.6913 22.9602 36.0613 23.4361 36.7487 23.4361C36.9953 23.4361 37.2772 23.3832 37.4007 23.2776L37.647 23.0838ZM21.9292 29.4273L22.2288 29.3215C22.4226 29.251 22.4403 29.1979 22.4403 28.7222V26.1673C22.4403 25.7091 22.4403 25.6389 22.2288 25.5684L21.9292 25.4799V25.3567H23.4622V25.4799L23.1626 25.5684C22.9513 25.6389 22.9513 25.6916 22.9513 26.1673V28.7222C22.9513 29.2156 22.9513 29.251 23.1626 29.3215L23.4622 29.4273V29.5332H21.9292V29.4273ZM23.85 29.4273L24.1142 29.3392C24.308 29.2683 24.308 29.2333 24.308 28.916V27.0835C24.308 26.837 24.308 26.8193 24.1142 26.7666L23.8677 26.6957V26.5899L24.7308 26.4667C24.7662 26.5899 24.7839 26.7487 24.8544 26.7487C24.8898 26.7487 25.0658 26.6251 25.2421 26.5017C25.3303 26.449 25.4532 26.4313 25.5418 26.4313C25.7351 26.4313 25.9291 26.5017 25.9291 26.6428C25.9291 26.6782 25.9114 26.7132 25.9114 26.7487L25.7706 27.1187H25.6647C25.612 26.9602 25.5766 26.8191 25.2596 26.8191C24.8719 26.8191 24.7837 27.0306 24.7837 27.295V28.916C24.7837 29.251 24.7837 29.286 24.9948 29.3392L25.3122 29.4273V29.5332H23.8496V29.4273H23.85ZM26.9687 27.718C26.7926 27.718 26.7222 27.718 26.7222 27.5069C26.7222 27.1719 26.916 26.6788 27.4269 26.6788C27.9204 26.6788 28.2198 27.1371 28.2198 27.5596C28.2198 27.7009 28.1494 27.7182 28.0087 27.7182L26.9687 27.718ZM28.5901 29.1804L28.5369 29.0749C28.3432 29.1981 28.0964 29.286 27.7791 29.286C26.8629 29.286 26.7043 28.4932 26.7043 28.1585C26.7043 27.982 26.8101 27.982 26.9862 27.982H28.4665C28.5724 27.982 28.5724 27.982 28.6426 27.9293C28.6953 27.8939 28.713 27.8939 28.713 27.7532C28.713 26.5728 28.0083 26.4315 27.6205 26.4315C26.8277 26.4315 26.193 26.9777 26.193 27.982C26.193 29.0395 26.6512 29.6211 27.4797 29.6211C27.7966 29.6211 28.1312 29.5502 28.2902 29.4273L28.5901 29.1804ZM29.0656 29.4273L29.3475 29.3392C29.5413 29.2683 29.5413 29.2333 29.5413 28.916V25.7091C29.5413 25.4799 29.5413 25.4094 29.3475 25.3567L29.0656 25.2863V25.1804L29.9645 25.0392L30.0172 25.0746V28.9158C30.0172 29.2331 30.0172 29.2681 30.211 29.339L30.4929 29.4271V29.533H29.0654L29.0656 29.4273ZM32.7134 28.6342C32.7134 28.793 32.6957 29.0751 32.5546 29.1804C32.4314 29.2512 32.2904 29.3217 32.0614 29.3392C31.6736 29.3392 31.4444 29.0749 31.4444 28.634C31.4444 28.4052 31.5502 28.2289 31.7794 28.1585C31.9909 28.0877 32.4314 28.0172 32.5546 28.0172C32.7134 28.0172 32.7134 28.07 32.7134 28.1933V28.6342ZM33.6473 29.5332V29.4273L33.3654 29.3392C33.1716 29.2683 33.1893 29.2156 33.1893 28.916V27.3832C33.1893 26.7839 33.0128 26.4138 32.3258 26.4138C32.0084 26.4138 31.7619 26.5197 31.6738 26.5726C31.6384 26.6076 31.6211 26.6253 31.5857 26.6607L31.2156 27.0308L31.3214 27.1367C31.48 26.9779 31.7619 26.7666 32.0966 26.7666C32.5725 26.7666 32.7136 27.0131 32.7136 27.612C32.7136 27.6651 32.6959 27.7178 32.6604 27.7532C32.6077 27.7887 31.938 27.8768 31.5679 27.9997C31.4621 28.0352 30.9159 28.2994 30.9159 28.793C30.9159 29.3037 31.251 29.6211 31.7794 29.6211C32.3079 29.6211 32.4314 29.3565 32.6075 29.3565C32.678 29.3565 32.7307 29.4623 32.7661 29.533L33.6473 29.5332ZM33.982 29.4273L34.2639 29.3392C34.4577 29.2683 34.4577 29.2333 34.4577 28.916V27.1012C34.4577 26.837 34.4577 26.8193 34.2639 26.7666L33.9997 26.6957V26.5899L34.8628 26.4667C34.8982 26.5726 34.9159 26.7132 35.004 26.7132C35.1272 26.7132 35.3741 26.4136 35.9203 26.4136C36.3253 26.4136 36.8011 26.5724 36.8011 27.4184V28.9158C36.8011 29.2154 36.8011 29.2681 36.9948 29.339L37.2768 29.4271V29.533H35.8496V29.4271L36.1315 29.339C36.3249 29.2681 36.3249 29.2331 36.3249 28.9158V27.6295C36.3249 27.0833 36.2018 26.7132 35.6025 26.7132C35.356 26.7132 34.9332 26.7837 34.9332 27.3302V28.9158C34.9332 29.2154 34.9332 29.2681 35.1093 29.339L35.3912 29.4271V29.533H33.982V29.4273ZM39.7614 28.6697C39.7614 28.987 39.691 29.1102 39.5853 29.1981C39.4093 29.3039 39.1976 29.3394 39.0392 29.3394C38.3872 29.3394 38.1934 28.7401 38.1934 27.8941C38.1934 27.031 38.4226 26.6786 39.0392 26.6786C39.1628 26.6786 39.462 26.6959 39.6031 26.8372C39.7266 26.9431 39.7616 27.031 39.7616 27.4188V28.6697H39.7614ZM40.7133 29.5332V29.4273L40.4313 29.3392C40.2376 29.2683 40.2376 29.251 40.2376 28.916V25.0748L40.1848 25.0394L39.2509 25.1806V25.2865L39.5328 25.3569C39.7616 25.4096 39.7616 25.4451 39.7616 25.7093V26.3082C39.7616 26.4669 39.7439 26.4669 39.7089 26.4669C39.6208 26.4669 39.5501 26.4669 39.4797 26.4492C39.4093 26.4315 39.3211 26.4315 39.1805 26.4315C38.4226 26.4315 37.6827 26.8547 37.6827 28.1587C37.6827 29.0218 37.9646 29.6213 38.8279 29.6213C39.3568 29.6213 39.533 29.3394 39.6737 29.3394C39.7441 29.3394 39.7795 29.4625 39.815 29.5332H40.7133ZM38.8629 21.815C38.8629 21.5508 38.9688 20.9163 39.4091 20.9163C39.6206 20.9163 39.7087 21.0573 39.7087 21.3216C39.7087 21.6739 39.5851 22.2201 39.1976 22.2201C38.9333 22.2203 38.8629 22.0792 38.8629 21.815ZM39.0746 22.3261C39.7793 22.3261 39.9554 21.6566 39.9554 21.3041C39.9554 20.9869 39.7968 20.8106 39.4972 20.8106C38.8983 20.8106 38.6164 21.3216 38.6164 21.8502C38.6164 22.2026 38.8275 22.3261 39.0746 22.3261ZM40.0613 22.9604C40.079 22.9075 40.1317 22.6962 40.2021 22.3613C40.2198 22.238 40.2553 22.0971 40.273 21.9561L40.4138 21.1103C40.4315 21.0928 40.4315 21.0573 40.4315 21.0398C40.4315 21.0046 40.4138 20.9869 40.3434 20.9694L40.1848 20.9519V20.8815L40.3434 20.864C40.4843 20.8463 40.467 20.811 40.4843 20.7229C40.5197 20.6523 40.5197 20.5641 40.5901 20.441C40.7137 20.1943 40.9252 20.1413 41.0483 20.1413C41.1015 20.1413 41.1719 20.1413 41.1896 20.1765C41.2246 20.1941 41.2423 20.2295 41.2423 20.247V20.3174L41.1719 20.476H41.1188C41.1188 20.4231 41.066 20.2647 40.9254 20.2647C40.7139 20.2647 40.6962 20.5818 40.6962 20.7756C40.6962 20.8461 40.7139 20.8461 40.802 20.8638L41.0485 20.899L41.0308 20.9694L40.7843 20.9869C40.6962 21.0044 40.6785 21.0044 40.6608 21.1103L40.432 22.0971C40.3615 22.4143 40.3084 22.661 40.2205 22.8018L40.1146 22.9604H40.0613Z" fill="#2F316D"/>
<path fill-rule="evenodd" clip-rule="evenodd" d="M22.0703 36.035L22.2289 35.9822C22.3522 35.9291 22.3345 35.8941 22.37 35.7176L22.599 34.4667C22.6165 34.449 22.6165 34.449 22.6165 34.4313C22.6165 34.3786 22.5812 34.3786 22.4579 34.3786C22.176 34.3786 22.1935 34.4313 22.1232 34.5195L21.9999 34.6955H21.9117L21.9824 34.2905L21.9999 34.2727H23.4802L23.4979 34.2905L23.4274 34.6955H23.3566L23.3039 34.5195C23.251 34.4136 23.2332 34.3786 23.0042 34.3786C22.8632 34.3786 22.8282 34.3786 22.8105 34.4667L22.5815 35.753C22.5615 35.7977 22.5495 35.8455 22.5462 35.8943C22.5462 35.9293 22.5815 35.9647 22.6696 35.9825L22.8107 36.0352L22.793 36.0879H22.0528L22.0703 36.035ZM23.7265 36.0527C23.6915 36.0704 23.5856 36.1054 23.5327 36.1054C23.5154 36.1054 23.4623 36.0527 23.4623 35.9822V35.9468L23.7442 34.8014C23.7796 34.6605 23.8323 34.4136 23.8323 34.3609C23.8323 34.3432 23.8323 34.3082 23.7442 34.2905L23.6206 34.2727V34.2373C23.7794 34.2023 23.938 34.1492 24.0084 34.1492C24.0438 34.1492 24.0788 34.1669 24.0788 34.1846C24.0788 34.2023 24.0615 34.22 24.0615 34.2373L23.9203 34.7835V34.8366C23.9203 34.8543 23.9203 34.8543 23.938 34.8543C23.9907 34.8543 24.1668 34.7485 24.3962 34.7485C24.5548 34.7485 24.6427 34.8012 24.6427 34.907C24.6427 34.9775 24.625 35.0306 24.6077 35.1008L24.4841 35.612C24.4664 35.7001 24.4487 35.7705 24.4487 35.8585C24.4487 35.9464 24.5195 35.982 24.59 35.982C24.6781 35.982 24.8015 35.9112 24.8542 35.8762L24.8365 35.9466C24.766 35.9993 24.625 36.1227 24.4664 36.1227C24.3433 36.1227 24.2553 36.0346 24.2376 35.9112C24.2376 35.8585 24.2726 35.788 24.2903 35.7174L24.4139 35.1713C24.4316 35.1185 24.4489 35.0654 24.4489 35.0127C24.4489 34.9245 24.3785 34.8541 24.2555 34.8541C24.1497 34.8541 23.9028 34.8718 23.8323 35.2242L23.6915 35.7703C23.6738 35.8231 23.6738 35.8585 23.6738 35.9289C23.6738 35.9643 23.6737 35.9993 23.7265 36.017V36.0527ZM25.3651 35.3653C25.3124 35.383 25.277 35.383 25.242 35.383C25.2243 35.383 25.2066 35.3653 25.2066 35.3653C25.2066 35.3302 25.2947 34.8368 25.6471 34.8368C25.7883 34.8368 25.8408 34.925 25.8408 35.0483C25.8408 35.2417 25.6823 35.3125 25.5239 35.3302L25.3651 35.3653ZM25.929 35.8412C25.8586 35.8766 25.6298 35.9825 25.4531 35.9825C25.2243 35.9825 25.1715 35.8237 25.1715 35.6297C25.1715 35.5415 25.1715 35.5242 25.1888 35.5065C25.2066 35.4888 25.2947 35.4711 25.3826 35.4534L25.5587 35.4184C25.7175 35.4007 25.8938 35.3475 25.9465 35.2771C26.0169 35.2067 26.0523 35.101 26.0523 35.0129C26.0523 34.8191 25.9111 34.7487 25.735 34.7487C25.2066 34.7487 24.9421 35.2948 24.9421 35.7176C24.9421 35.9822 25.083 36.1231 25.3299 36.1231C25.5764 36.1231 25.8058 35.9822 25.9111 35.9293L25.929 35.8412ZM27.8498 35.9293C27.7443 35.9997 27.5328 36.1231 27.2863 36.1231C27.1098 36.1231 26.9163 36.0173 26.9163 35.7176C26.9163 35.4711 27.0044 35.1892 27.1273 35.0129C27.2686 34.8368 27.4624 34.7487 27.6912 34.7487C27.7793 34.7487 27.9027 34.7664 27.9381 34.8191C27.9554 34.8545 27.9731 34.8895 27.9731 34.9072C27.9731 34.9427 27.9554 34.9604 27.9381 34.9777L27.8496 35.1538H27.8146C27.7968 35.0656 27.7791 34.8368 27.568 34.8368C27.3034 34.8368 27.1448 35.3653 27.1448 35.6474C27.1448 35.8589 27.233 35.9825 27.4268 35.9825C27.568 35.9825 27.7614 35.8943 27.8673 35.8412L27.8498 35.9293ZM28.2373 35.6474C28.2373 35.4009 28.3255 34.8368 28.7308 34.8368C28.9246 34.8368 29.0127 34.9777 29.0127 35.1892C29.0127 35.5242 28.8891 36.0173 28.5368 36.0173C28.3082 36.0173 28.2373 35.8943 28.2373 35.6474ZM28.4313 36.1231C29.0656 36.1231 29.2246 35.5065 29.2246 35.1892C29.2246 34.8895 29.0833 34.7487 28.8014 34.7487C28.273 34.7487 28.0086 35.2069 28.0086 35.6826C28.0086 35.9995 28.2025 36.1231 28.4313 36.1231ZM30.0173 35.9293C29.9468 35.9824 29.7881 36.1231 29.6472 36.1231C29.5591 36.1231 29.4357 36.0704 29.4357 35.8766C29.4357 35.8589 29.4357 35.8062 29.4534 35.7707L29.6826 34.7837C29.7176 34.6605 29.7708 34.4136 29.7708 34.3609C29.7708 34.3432 29.7531 34.3082 29.6826 34.2905L29.5591 34.2727V34.2373C29.7176 34.2023 29.8764 34.1492 29.9468 34.1492C29.9819 34.1492 30.0173 34.1669 30.0173 34.1846C30.0173 34.2023 29.9996 34.22 29.9996 34.2373L29.6999 35.4709C29.6649 35.5945 29.6295 35.7001 29.6295 35.8233C29.6295 35.9291 29.6826 35.982 29.7531 35.982C29.8589 35.982 29.9646 35.8939 30.035 35.8408L30.0173 35.9293ZM30.7574 35.9293C30.7047 35.9824 30.5282 36.1231 30.3873 36.1231C30.3169 36.1231 30.1758 36.0704 30.1758 35.8766C30.1758 35.8589 30.1936 35.8062 30.1936 35.7707L30.4228 34.7837C30.4578 34.6605 30.5109 34.4136 30.5109 34.3609C30.5109 34.3432 30.5109 34.3082 30.4228 34.2905L30.2992 34.2727V34.2373C30.4578 34.2023 30.6339 34.1492 30.687 34.1492C30.722 34.1492 30.7574 34.1669 30.7574 34.1846C30.7574 34.2023 30.7574 34.22 30.7397 34.2373L30.4401 35.4709C30.4051 35.5945 30.3873 35.7001 30.3873 35.8233C30.3873 35.9291 30.4228 35.982 30.4932 35.982C30.5991 35.982 30.722 35.8939 30.7751 35.8408L30.7574 35.9293ZM31.2859 35.3653C31.2508 35.383 31.2154 35.383 31.1627 35.383C31.145 35.383 31.145 35.3653 31.145 35.3653C31.145 35.3302 31.2331 34.8368 31.5855 34.8368C31.7091 34.8368 31.7793 34.925 31.7793 35.0483C31.7793 35.2417 31.6207 35.3125 31.4619 35.3302L31.2859 35.3653ZM31.8674 35.8412C31.797 35.8766 31.5678 35.9825 31.3915 35.9825C31.145 35.9825 31.0919 35.8237 31.0919 35.6297C31.0919 35.5415 31.1096 35.5242 31.1273 35.5065C31.145 35.4888 31.2331 35.4711 31.3211 35.4534L31.4796 35.4184C31.6382 35.4007 31.8143 35.3475 31.8851 35.2771C31.9379 35.2067 31.991 35.101 31.991 35.0129C31.991 34.8191 31.8322 34.7487 31.6736 34.7487C31.1452 34.7487 30.8808 35.2948 30.8808 35.7176C30.8808 35.9822 31.0039 36.1231 31.2508 36.1231C31.5151 36.1231 31.7441 35.9822 31.8497 35.9293L31.8674 35.8412ZM32.3961 35.1538C32.3961 34.9777 32.5196 34.8191 32.6957 34.8191C32.8718 34.8191 32.9599 34.925 32.9599 35.0833C32.9599 35.2948 32.8364 35.4184 32.6426 35.4184C32.4842 35.4184 32.3961 35.3302 32.3961 35.1538ZM33.3654 34.731L33.33 34.6782L33.1008 34.7664C33.0835 34.7664 33.0658 34.7837 33.0481 34.7837C33.0127 34.7837 32.8895 34.7487 32.7484 34.7487C32.3961 34.7487 32.1846 34.9425 32.1846 35.1892C32.1846 35.3127 32.2377 35.3653 32.2727 35.4007C32.3258 35.4361 32.3613 35.4534 32.3613 35.4888C32.3613 35.5415 32.2554 35.5592 32.2025 35.6297C32.1675 35.6474 32.1675 35.7005 32.1675 35.7355C32.1675 35.8064 32.2729 35.8064 32.2729 35.8591C32.2729 35.9295 31.9206 35.9649 31.9206 36.2292C31.9206 36.5111 32.1675 36.6169 32.4317 36.6169C32.8722 36.6169 33.1364 36.3877 33.1364 36.1235C33.1364 36 33.101 35.9297 32.9426 35.8593C32.7311 35.7712 32.3788 35.7534 32.3788 35.6128C32.3788 35.5774 32.4319 35.5069 32.4669 35.5069H32.6082C32.8547 35.5069 33.1543 35.3834 33.1543 35.1014C33.1543 35.0487 33.1366 34.9779 33.1366 34.9606C33.1366 34.9252 33.172 34.8897 33.1898 34.8897L33.3654 34.731ZM32.1141 36.2112C32.1141 36.0527 32.2727 35.9116 32.4315 35.9116C32.5901 35.9116 32.9422 35.9997 32.9422 36.2112C32.9422 36.3873 32.7836 36.5286 32.5544 36.5286C32.3256 36.5286 32.1141 36.4227 32.1141 36.2112ZM33.7882 35.3653C33.7528 35.383 33.7001 35.383 33.6647 35.383C33.6474 35.383 33.6296 35.3653 33.6296 35.3653C33.6296 35.3302 33.7178 34.8368 34.0701 34.8368C34.211 34.8368 34.2639 34.925 34.2639 35.0483C34.2639 35.2417 34.1227 35.3125 33.9643 35.3302L33.7882 35.3653ZM34.3521 35.8412C34.2816 35.8766 34.0524 35.9825 33.8762 35.9825C33.6474 35.9825 33.5942 35.8237 33.5942 35.6297C33.5942 35.5415 33.5942 35.5242 33.6119 35.5065C33.6296 35.4888 33.7355 35.4711 33.8234 35.4534L33.982 35.4184C34.1406 35.4007 34.3167 35.3475 34.3698 35.2771C34.4402 35.2067 34.4929 35.101 34.4929 35.0129C34.4929 34.8191 34.3344 34.7487 34.1583 34.7487C33.6299 34.7487 33.3827 35.2948 33.3827 35.7176C33.3827 35.9822 33.5063 36.1231 33.7528 36.1231C33.9997 36.1231 34.2287 35.9822 34.3521 35.9293V35.8412ZM35.3387 36.687C35.3564 36.6342 35.4092 36.4405 35.4623 36.1408C35.4973 36.0173 35.515 35.9116 35.5327 35.7707L35.6736 35.0129V34.9425C35.6736 34.9247 35.6736 34.907 35.6032 34.8893L35.4446 34.8543L35.4623 34.8012L35.6032 34.7835C35.7267 34.7662 35.709 34.7308 35.7267 34.6603C35.7444 34.6072 35.7621 34.5191 35.8149 34.3961C35.8566 34.3207 35.9179 34.258 35.9923 34.2146C36.0667 34.1711 36.1515 34.1485 36.2376 34.1492C36.2908 34.1492 36.3435 34.1492 36.3612 34.1669C36.3966 34.1846 36.4143 34.22 36.4143 34.2373C36.4143 34.255 36.4143 34.2727 36.3966 34.2905L36.3435 34.449H36.3085C36.3085 34.3963 36.2554 34.2552 36.1324 34.2552C35.9386 34.2552 35.9209 34.5372 35.9209 34.7135C35.9209 34.7666 35.9386 34.7839 36.0091 34.7839L36.2379 34.8193L36.2206 34.8897L35.9913 34.9075C35.9209 34.9252 35.9032 34.9252 35.8855 35.0133L35.6917 35.8945C35.6213 36.1937 35.5686 36.423 35.4806 36.5461L35.3925 36.6874H35.3387V36.687ZM36.4139 35.6474C36.4139 35.4009 36.5021 34.8368 36.9072 34.8368C37.1009 34.8368 37.1891 34.9777 37.1891 35.1892C37.1891 35.5242 37.0655 36.0173 36.7132 36.0173C36.4842 36.0173 36.4139 35.8943 36.4139 35.6474ZM36.6073 36.1231C37.242 36.1231 37.4006 35.5065 37.4006 35.1892C37.4006 34.8895 37.2593 34.7487 36.9774 34.7487C36.4489 34.7487 36.1845 35.2069 36.1845 35.6826C36.1845 35.9995 36.3785 36.1231 36.6073 36.1231ZM37.8936 36.0527C37.8409 36.0704 37.7704 36.1054 37.7002 36.1054C37.6648 36.1054 37.6294 36.035 37.6294 35.9995V35.9291L37.8409 35.1535C37.8586 35.1008 37.8586 35.0481 37.8586 34.995C37.8586 34.9068 37.7882 34.8891 37.7527 34.8891C37.7 34.8891 37.6646 34.9068 37.6119 34.9068L37.6292 34.8364C37.6823 34.8187 37.823 34.7483 37.9111 34.7483C37.9293 34.7479 37.9472 34.7526 37.9627 34.762C37.9783 34.7713 37.991 34.7848 37.9992 34.801C38.0347 34.8187 38.0524 34.8541 38.0701 34.8541C38.1228 34.8541 38.1582 34.8187 38.2287 34.801C38.2814 34.766 38.3522 34.7483 38.4575 34.7483C38.5106 34.7483 38.5456 34.766 38.5456 34.7833C38.5633 34.801 38.581 34.8364 38.581 34.8541C38.581 34.8718 38.5633 34.9068 38.5456 34.9245L38.4752 35.0481H38.4402C38.4402 35.0127 38.387 34.8893 38.2814 34.8893C38.1228 34.8893 38.0526 35.0129 37.9995 35.2417L37.8586 35.7705C37.8409 35.8233 37.8232 35.8764 37.8232 35.9114C37.8232 35.9995 37.8586 35.9995 37.8936 36.0173V36.0527ZM40.202 35.5065C40.167 35.6474 40.1315 35.7885 40.0788 35.8589C40.008 35.9647 39.8496 35.9997 39.7969 35.9997C39.6383 35.9997 39.5677 35.9116 39.5677 35.7355C39.5677 35.489 39.7089 34.837 40.1138 34.837C40.202 34.837 40.3076 34.9075 40.3076 35.0131C40.3076 35.1012 40.2726 35.1892 40.2549 35.2773L40.202 35.5065ZM40.7133 35.8766C40.6602 35.9116 40.5547 35.9647 40.4668 35.9647C40.396 35.9647 40.3255 35.9293 40.3255 35.8062C40.3255 35.753 40.3432 35.6649 40.361 35.5947L40.4491 35.2069C40.5018 35.0131 40.5549 34.7837 40.5722 34.7487L40.5372 34.7132L40.4668 34.7487C40.4491 34.7664 40.4314 34.7837 40.396 34.7837C40.3783 34.7837 40.361 34.7664 40.3255 34.7664C40.2901 34.7487 40.2551 34.7487 40.1847 34.7487C39.5327 34.7487 39.3566 35.4888 39.3566 35.753C39.3566 36.0173 39.462 36.1231 39.6558 36.1231C39.8673 36.1231 40.079 35.9995 40.1317 35.9995C40.1849 35.9995 40.2553 36.1231 40.361 36.1231C40.4841 36.1231 40.6602 35.9822 40.6956 35.947L40.7133 35.8766ZM22.4404 39.295C22.37 39.3477 22.1937 39.4883 22.0703 39.4883C21.9822 39.4883 21.8413 39.4356 21.8413 39.2418C21.8413 39.2241 21.8588 39.1714 21.8765 39.136L22.088 38.167C22.1232 38.0258 22.1762 37.797 22.1762 37.7265C22.1762 37.7088 22.1762 37.6734 22.1057 37.6734L21.9647 37.6384L21.9824 37.603C22.1234 37.5676 22.2995 37.5148 22.37 37.5148C22.3875 37.5148 22.4227 37.5325 22.4227 37.5503V37.6207L22.1055 38.8538C22.088 38.9597 22.0526 39.0653 22.0526 39.1889C22.0526 39.2948 22.0878 39.3475 22.1585 39.3475C22.2818 39.3475 22.3875 39.2593 22.4581 39.2239L22.4404 39.295ZM22.9688 38.7311C22.9161 38.7488 22.8807 38.7488 22.8455 38.7488C22.828 38.7488 22.8102 38.7311 22.8102 38.7311C22.8102 38.7134 22.8984 38.2023 23.2508 38.2023C23.3918 38.2023 23.4445 38.2908 23.4445 38.4315C23.4445 38.6075 23.286 38.678 23.1274 38.7134L22.9688 38.7311ZM23.5327 39.207C23.4623 39.2598 23.2332 39.3479 23.057 39.3479C22.828 39.3479 22.775 39.1893 22.775 39.0132C22.775 38.9074 22.775 38.8897 22.7925 38.872C22.8103 38.8543 22.8984 38.837 22.9863 38.8193L23.1449 38.8015C23.3212 38.7661 23.4975 38.7134 23.5502 38.643C23.6206 38.5721 23.656 38.4842 23.656 38.3788C23.656 38.185 23.5152 38.1141 23.3387 38.1141C22.8103 38.1141 22.5458 38.678 22.5458 39.0835C22.5458 39.3477 22.6869 39.4886 22.9334 39.4886C23.1801 39.4886 23.4093 39.3654 23.5152 39.2952L23.5327 39.207ZM24.5902 38.872C24.5548 39.0132 24.5197 39.1716 24.4666 39.2243C24.3785 39.3302 24.2378 39.3831 24.1847 39.3831C24.0261 39.3831 23.9559 39.2773 23.9559 39.1012C23.9559 38.872 24.079 38.2023 24.502 38.2023C24.5902 38.2023 24.6781 38.2731 24.6781 38.3788C24.6781 38.4669 24.6604 38.5548 24.6427 38.643L24.5902 38.872ZM25.1009 39.242C25.0482 39.2775 24.9423 39.3302 24.8544 39.3302C24.784 39.3302 24.7135 39.2952 24.7135 39.1716C24.7135 39.1185 24.7308 39.0303 24.7485 38.9601L24.8367 38.5723C24.8721 38.379 24.9425 38.1495 24.9602 38.1141L24.9248 38.0968L24.8544 38.1141C24.8367 38.1318 24.8017 38.1495 24.784 38.1495C24.7663 38.1495 24.7485 38.1318 24.7135 38.1318C24.6781 38.1141 24.6427 38.1141 24.5723 38.1141C23.9203 38.1141 23.7442 38.8543 23.7442 39.1185C23.7442 39.3831 23.85 39.4886 24.0438 39.4886C24.2553 39.4886 24.4666 39.3654 24.5197 39.3654C24.5725 39.3654 24.6429 39.4886 24.7485 39.4886C24.8721 39.4886 25.0482 39.3477 25.0832 39.3125L25.1009 39.242ZM25.5241 39.4181C25.471 39.4358 25.4005 39.4713 25.3303 39.4713C25.2949 39.4713 25.2599 39.4004 25.2599 39.3654V39.3123L25.471 38.5194C25.4887 38.4667 25.4887 38.4136 25.4887 38.3608C25.4887 38.2727 25.4183 38.255 25.3828 38.255C25.3301 38.255 25.2947 38.2727 25.242 38.2727L25.2597 38.2196C25.3124 38.1845 25.4531 38.1137 25.5416 38.1137C25.5766 38.1137 25.612 38.1314 25.6298 38.1668C25.6648 38.2018 25.6825 38.2196 25.7002 38.2196C25.7529 38.2196 25.7883 38.2018 25.8588 38.1668C25.9115 38.1314 25.9823 38.1137 26.088 38.1137C26.1407 38.1137 26.1761 38.1314 26.1761 38.1491C26.198 38.1734 26.2104 38.2046 26.2111 38.2373C26.2111 38.255 26.1934 38.2727 26.1761 38.2904L26.1053 38.4136H26.0703C26.0703 38.3785 26.0171 38.2727 25.8942 38.2727C25.7529 38.2727 25.6827 38.3958 25.63 38.6073L25.4887 39.1358C25.471 39.1889 25.4533 39.2416 25.4533 39.2771C25.4533 39.3652 25.4887 39.3829 25.5241 39.4002V39.4181ZM26.493 39.1362C26.4753 39.1893 26.458 39.2243 26.458 39.295C26.458 39.33 26.458 39.3654 26.5108 39.3831V39.4181C26.4753 39.4358 26.3699 39.4713 26.317 39.4713C26.2993 39.4713 26.2465 39.4181 26.2465 39.3477V39.3123L26.458 38.5194C26.4753 38.4667 26.493 38.4136 26.493 38.3785C26.493 38.2727 26.4226 38.255 26.3872 38.255C26.3345 38.255 26.2991 38.2727 26.2463 38.2727L26.264 38.2018C26.3168 38.1845 26.4751 38.1137 26.5633 38.1137C26.6514 38.1137 26.6691 38.2196 26.7221 38.2196C26.7748 38.2196 27.0213 38.1137 27.198 38.1137C27.4445 38.1137 27.4622 38.2018 27.4622 38.3252C27.4622 38.3606 27.4268 38.4311 27.4268 38.4665L27.2682 39.0654C27.2682 39.1008 27.2505 39.1535 27.2505 39.2066C27.2505 39.3121 27.3209 39.3475 27.3741 39.3475C27.4622 39.3475 27.6029 39.2593 27.656 39.2416L27.6383 39.3121C27.5851 39.3475 27.4268 39.4881 27.2682 39.4881C27.1446 39.4881 27.0567 39.3827 27.0567 39.2771C27.0567 39.2416 27.0744 39.1712 27.0744 39.1358L27.233 38.5369C27.233 38.4838 27.2507 38.4311 27.2507 38.3783C27.2507 38.3075 27.2153 38.2196 27.0569 38.2196C26.8281 38.2196 26.7045 38.3431 26.6341 38.6073L26.493 39.1362ZM28.4313 39.33C28.3609 39.3831 28.1848 39.4886 28.0613 39.4886C27.9731 39.4886 27.8498 39.4004 27.8498 39.2775C27.8498 39.1716 27.8852 39.066 27.9206 38.9601L28.0265 38.555C28.0438 38.5019 28.0615 38.4138 28.0615 38.3612C28.0615 38.2731 27.9383 38.2731 27.8327 38.2731V38.22C27.9208 38.185 28.185 38.1141 28.2378 38.1141C28.2555 38.1141 28.3086 38.1673 28.3086 38.185C28.3086 38.2377 28.2378 38.4669 28.185 38.6605L28.1146 38.9424C28.0792 39.0132 28.0615 39.1362 28.0615 39.1893C28.0615 39.3125 28.1319 39.3479 28.185 39.3479C28.2732 39.3479 28.3788 39.2952 28.4493 39.2598L28.4313 39.33ZM28.1848 37.7268C28.1848 37.6559 28.2553 37.6032 28.3257 37.6032C28.4138 37.6032 28.4493 37.6386 28.4493 37.709C28.4493 37.7972 28.3965 37.8499 28.3084 37.8499C28.2373 37.8499 28.1848 37.8149 28.1848 37.7268ZM28.8894 39.1362C28.8716 39.1893 28.8543 39.2243 28.8543 39.295C28.8543 39.33 28.8543 39.3654 28.9071 39.3831V39.4181C28.8716 39.4358 28.7662 39.4713 28.7133 39.4713C28.6956 39.4713 28.6428 39.4181 28.6428 39.3477V39.3123L28.8543 38.5194C28.8716 38.4667 28.8894 38.4136 28.8894 38.3785C28.8894 38.2727 28.8012 38.255 28.7835 38.255C28.7308 38.255 28.6781 38.2727 28.6426 38.2727L28.6603 38.2018C28.7131 38.1845 28.8714 38.1137 28.9596 38.1137C29.0481 38.1137 29.0481 38.2196 29.1184 38.2196C29.1711 38.2196 29.418 38.1137 29.5766 38.1137C29.8231 38.1137 29.8585 38.2018 29.8585 38.3252C29.8585 38.3606 29.8231 38.4311 29.8231 38.4665L29.6645 39.0654C29.6645 39.1008 29.6468 39.1535 29.6468 39.2066C29.6468 39.3121 29.6995 39.3475 29.7704 39.3475C29.8585 39.3475 29.9992 39.2593 30.0523 39.2416L30.0346 39.3121C29.9814 39.3475 29.8054 39.4881 29.6645 39.4881C29.5409 39.4881 29.453 39.3827 29.453 39.2771C29.453 39.2416 29.453 39.1712 29.4707 39.1358L29.6293 38.5369C29.6293 38.4838 29.647 38.4311 29.647 38.3783C29.647 38.3075 29.6116 38.2196 29.4532 38.2196C29.2244 38.2196 29.0831 38.3431 29.0127 38.6073L28.8894 39.1362ZM30.4932 38.5373C30.4932 38.3435 30.6164 38.2023 30.7928 38.2023C30.9862 38.2023 31.0748 38.2908 31.0748 38.4492C31.0748 38.6603 30.9512 38.8015 30.7574 38.8015C30.5811 38.8015 30.4932 38.6957 30.4932 38.5373ZM31.4621 38.0968L31.4444 38.0437L31.2154 38.1318C31.1977 38.1495 31.1627 38.1495 31.145 38.1495C31.1096 38.1495 30.9862 38.1141 30.8631 38.1141C30.493 38.1141 30.2992 38.3079 30.2992 38.555C30.2992 38.6782 30.3346 38.7311 30.3873 38.7661C30.4228 38.8015 30.4578 38.8193 30.4578 38.8543C30.4578 38.9074 30.3519 38.9251 30.2992 38.9955C30.2815 39.0305 30.2638 39.066 30.2638 39.1014C30.2638 39.1718 30.3696 39.1718 30.3696 39.2245C30.3696 39.2954 30.035 39.3304 30.035 39.5946C30.035 39.8765 30.2638 40.0001 30.5457 40.0001C30.9689 40.0001 31.2508 39.7536 31.2508 39.489C31.2508 39.3658 31.1977 39.3129 31.0393 39.2247C30.8456 39.1366 30.4932 39.1189 30.4932 38.9782C30.4932 38.9428 30.5459 38.8724 30.5813 38.8724H30.7222C30.9514 38.8724 31.2511 38.7492 31.2511 38.4673V38.326C31.2511 38.291 31.2684 38.2733 31.2861 38.2556L31.4621 38.0968ZM30.2288 39.5771C30.2288 39.4183 30.3696 39.2775 30.528 39.2775C30.6868 39.2775 31.0391 39.3656 31.0391 39.5771C31.0391 39.7705 30.8979 39.894 30.6691 39.894C30.4401 39.894 30.2288 39.7882 30.2288 39.5771ZM33.0835 38.4669C33.0658 38.396 33.0304 38.2023 32.8366 38.2023C32.6957 38.2023 32.6078 38.2908 32.6078 38.3961C32.6078 38.5898 32.8193 38.6603 32.9424 38.7838C33.0483 38.8543 33.101 38.9074 33.101 39.0481C33.101 39.295 32.8722 39.4886 32.5903 39.4886C32.4317 39.4886 32.2906 39.4181 32.2729 39.3654C32.2729 39.3477 32.2556 39.3123 32.2556 39.2595C32.2556 39.2418 32.2729 39.2241 32.2729 39.2068L32.3438 39.0481H32.3965C32.3965 39.1716 32.4846 39.3831 32.6961 39.3831C32.8197 39.3831 32.9249 39.295 32.9249 39.1716C32.9249 38.8543 32.4317 38.8193 32.4317 38.5019C32.4317 38.2554 32.6782 38.1141 32.9424 38.1141C33.066 38.1141 33.1362 38.1495 33.1716 38.185C33.1893 38.2023 33.2066 38.22 33.2066 38.2731C33.2066 38.2908 33.2066 38.3081 33.1893 38.3258L33.1185 38.4671H33.0835V38.4669ZM33.5588 39.0303C33.5588 38.7838 33.6647 38.2023 34.0522 38.2023C34.246 38.2023 34.3342 38.3435 34.3342 38.5723C34.3342 38.8897 34.2106 39.3833 33.8582 39.3833C33.6474 39.3831 33.5588 39.2598 33.5588 39.0303ZM33.7705 39.4886C34.3871 39.4886 34.5638 38.872 34.5638 38.555C34.5638 38.2554 34.4225 38.1141 34.1406 38.1141C33.6121 38.1141 33.3477 38.5723 33.3477 39.0481C33.3477 39.3654 33.5415 39.4886 33.7705 39.4886ZM35.6207 39.295C35.5148 39.3654 35.321 39.4883 35.0745 39.4883C34.8807 39.4883 34.7044 39.3829 34.7044 39.0833C34.7044 38.8368 34.7926 38.5548 34.9159 38.3785C34.9804 38.2953 35.0633 38.2281 35.158 38.1822C35.2527 38.1363 35.3568 38.1129 35.4621 38.1139C35.5679 38.1139 35.6909 38.1493 35.7263 38.2021C35.744 38.2198 35.744 38.2552 35.744 38.2906C35.744 38.3079 35.7263 38.3256 35.7263 38.3433L35.6382 38.5194H35.585C35.585 38.4313 35.5677 38.2021 35.3562 38.2021C35.0743 38.2021 34.9157 38.7309 34.9157 39.013C34.9157 39.2418 35.0039 39.3477 35.1977 39.3477C35.3562 39.3477 35.55 39.2773 35.6382 39.2068L35.6207 39.295ZM36.4664 39.33C36.396 39.3831 36.2199 39.4886 36.0964 39.4886C35.9905 39.4886 35.8849 39.4004 35.8849 39.2775C35.8849 39.1716 35.9203 39.066 35.9553 38.9601L36.0612 38.555C36.0789 38.5019 36.0966 38.4138 36.0966 38.3612C36.0966 38.2731 35.973 38.2731 35.8674 38.2731V38.22C35.9382 38.185 36.2024 38.1141 36.2729 38.1141C36.2906 38.1141 36.3433 38.1673 36.3433 38.185C36.3433 38.2377 36.2729 38.4669 36.2201 38.6605L36.1493 38.9424C36.1143 39.0132 36.0789 39.1362 36.0789 39.1893C36.0789 39.3125 36.167 39.3479 36.2201 39.3479C36.3083 39.3479 36.4139 39.2952 36.4844 39.2598L36.4664 39.33ZM36.2199 37.7268C36.2199 37.6559 36.2904 37.6032 36.3608 37.6032C36.4312 37.6032 36.4844 37.6386 36.4844 37.709C36.4846 37.7276 36.4811 37.7461 36.4741 37.7633C36.4671 37.7806 36.4567 37.7962 36.4435 37.8093C36.4303 37.8225 36.4147 37.8328 36.3974 37.8398C36.3802 37.8468 36.3617 37.8502 36.3431 37.8499C36.2727 37.8499 36.2199 37.8149 36.2199 37.7268ZM37.0305 38.7311C36.9951 38.7488 36.9424 38.7488 36.9069 38.7488C36.8892 38.7488 36.8715 38.7311 36.8715 38.7311C36.8715 38.7134 36.9601 38.2023 37.3124 38.2023C37.4533 38.2023 37.5062 38.2908 37.5062 38.4315C37.5062 38.6075 37.365 38.678 37.2066 38.7134L37.0305 38.7311ZM37.6121 39.207C37.5239 39.2598 37.3124 39.3479 37.1187 39.3479C36.8894 39.3479 36.8367 39.1893 36.8367 39.0132C36.8367 38.9074 36.8367 38.8897 36.8544 38.872C36.8717 38.8543 36.9776 38.837 37.0655 38.8193L37.2243 38.8015C37.3829 38.7661 37.559 38.7134 37.6121 38.643C37.6825 38.5721 37.7352 38.4842 37.7352 38.3788C37.7352 38.185 37.5767 38.1141 37.4006 38.1141C36.8717 38.1141 36.625 38.678 36.625 39.0835C36.625 39.3477 36.7486 39.4886 36.9951 39.4886C37.242 39.4886 37.471 39.3654 37.5944 39.2952L37.6121 39.207ZM38.4402 39.33C38.3693 39.3831 38.1932 39.4886 38.0524 39.4886C37.9642 39.4886 37.8586 39.4358 37.8586 39.2952C37.8586 39.2243 37.8763 39.1716 37.8936 39.1014L38.0524 38.379C38.0524 38.3612 38.0701 38.3258 38.0701 38.3081C38.0701 38.2908 38.0524 38.2731 37.9992 38.2554L37.8584 38.2377L37.8761 38.185L38.017 38.1495C38.1051 38.1495 38.1051 38.1318 38.1405 38.0614L38.2637 37.7972H38.3168V38.0968C38.3168 38.1318 38.3522 38.1495 38.3872 38.1495L38.6164 38.185L38.5987 38.2377L38.3522 38.2731C38.2814 38.2731 38.2464 38.3081 38.2464 38.379L38.1051 38.9074C38.0874 38.9955 38.0701 39.1185 38.0701 39.1716C38.0701 39.2952 38.1228 39.3477 38.2287 39.3477C38.3168 39.3477 38.4047 39.295 38.4575 39.2595L38.4402 39.33ZM38.5456 39.8586H38.5987C38.8275 39.8586 39.0569 39.7178 39.0569 39.4535C39.0569 39.3831 39.0215 39.0658 38.9688 38.7838C38.9334 38.5196 38.9157 38.2731 38.7573 38.2731C38.7046 38.2731 38.6515 38.3081 38.6337 38.3258V38.2554C38.7046 38.2023 38.7925 38.1141 38.8984 38.1141C39.0392 38.1141 39.0745 38.2906 39.1095 38.5373C39.1803 38.9778 39.1803 39.3302 39.2153 39.3302C39.2684 39.3302 39.6385 38.59 39.6385 38.3258C39.6385 38.2908 39.6031 38.2554 39.55 38.2554C39.515 38.2554 39.4972 38.2554 39.4618 38.2731V38.22C39.55 38.1673 39.6031 38.1141 39.7265 38.1141C39.7969 38.1141 39.8319 38.1673 39.8319 38.2554C39.8319 38.5019 39.0567 39.9999 38.7394 39.9999C38.7044 39.9999 38.669 39.9645 38.6513 39.9645L38.5454 39.894V39.8586H38.5456Z" fill="#BFA639"/>
</svg>
