<svg width="72" height="48" viewBox="0 0 72 48" fill="none" xmlns="http://www.w3.org/2000/svg">
<path d="M34.1918 20.2271V11.6333H32.6561V17.4947H32.6305L29.2647 11.6333H27.5562V20.2271H29.0983V14.1097H29.1175L32.6177 20.2271" fill="black"/>
<path d="M37.065 14.0396H35.5933V20.2273H37.065V14.0396Z" fill="black"/>
<path d="M37.065 11.5186H35.5933V12.9007H37.065V11.5186Z" fill="black"/>
<path d="M49.575 13.9178C48.8775 13.8922 48.4104 14.0842 48.1288 14.4681C47.7513 14.1354 47.1306 13.9178 46.6123 13.9178C45.0125 13.9178 44.1807 14.9864 44.1807 16.0742C44.1807 16.8229 44.5838 17.3028 45.0957 17.7188C44.8206 17.8019 44.1359 18.2563 44.1359 18.8514C44.1359 19.5169 44.763 19.6704 45.0509 19.8496V19.8752C44.5198 19.8752 43.9375 20.2463 43.9375 21.0206C43.9375 21.4045 44.1103 21.7117 44.411 21.9485V30.0559H45.8828V22.4476C46.1323 22.4796 46.4011 22.4924 46.689 22.4924C48.6599 22.4924 49.543 21.5389 49.543 20.6559C49.543 18.1795 45.486 19.5361 45.486 18.5378C45.486 18.1795 45.998 18.1539 46.6378 18.1539C48.18 18.1539 48.9607 17.322 48.9607 16.151C48.9607 15.6711 48.8199 15.3192 48.6279 15.0568C48.8519 14.916 49.2358 14.916 49.575 14.916M46.3243 20.112C47.7449 20.112 48.1864 20.5407 48.1864 20.8286C48.1864 21.0398 47.8664 21.5197 46.9194 21.5197C45.6844 21.5197 45.2813 21.3086 45.2813 20.8286C45.2813 20.5663 45.518 20.112 46.3243 20.112ZM46.5995 17.0661C45.9724 17.0661 45.5308 16.6117 45.5308 16.0422C45.5308 15.4727 45.9724 15.0184 46.5995 15.0184C47.1562 15.0184 47.6041 15.4727 47.6041 16.0422C47.6041 16.6117 47.1562 17.0661 46.5995 17.0661Z" fill="black"/>
<path d="M54.8155 19.3378V16.4199C54.8155 14.5642 54.1052 13.9563 52.4415 13.9179C51.5392 13.8923 50.5218 14.3915 50.1443 15.0505L51.0913 15.78C51.3729 15.3897 51.7568 15.0186 52.4415 15.0186C52.9598 15.0186 53.3437 15.2809 53.3437 15.7544V16.2791C50.9505 16.5671 49.8115 17.303 49.8115 18.7107C49.8115 19.5554 50.3682 20.3553 51.4816 20.3553C52.2495 20.3553 52.8062 20.1057 53.4013 19.7026L53.4973 20.2401H54.9307C54.8347 19.9585 54.8155 19.645 54.8155 19.3378ZM53.3437 18.602C53.0366 18.8643 52.4543 19.2546 51.9936 19.2546C51.5776 19.2546 51.2833 18.9923 51.2833 18.5316C51.2833 17.6613 52.3647 17.4565 53.3437 17.271V18.602Z" fill="black"/>
<path d="M43.0669 19.3378V16.4199C43.0669 14.5642 42.3566 13.9563 40.6993 13.9179C39.797 13.8923 38.7796 14.3915 38.4021 15.0505L39.3491 15.78C39.6307 15.3897 40.0146 15.0186 40.6993 15.0186C41.2176 15.0186 41.6015 15.2809 41.6015 15.7544V16.2791C39.2083 16.5671 38.0693 17.303 38.0693 18.7107C38.0693 19.5554 38.626 20.3553 39.7395 20.3553C40.5137 20.3553 41.0704 20.1057 41.6591 19.7026L41.7551 20.2401H43.1885C43.0925 19.9585 43.0669 19.645 43.0669 19.3378ZM41.5951 18.602C41.288 18.8643 40.7057 19.2546 40.245 19.2546C39.829 19.2546 39.5347 18.9923 39.5347 18.5316C39.5347 17.6613 40.6161 17.4565 41.5951 17.271V18.602Z" fill="black"/>
<path d="M59.0389 15.4665C59.1477 15.4665 59.2308 15.4665 59.3012 15.4793V13.918C58.4246 13.9436 57.9255 14.3595 57.5735 15.0954H57.5479V14.0331H56.1978V20.2209H57.6695V16.4583C57.6631 16.3112 58.303 15.4665 59.0389 15.4665Z" fill="black"/>
<path d="M64.5161 19.3378V16.4199C64.5161 14.5642 63.8058 13.9563 62.1485 13.9179C61.2463 13.8923 60.2288 14.3915 59.8513 15.0505L60.7983 15.78C61.0799 15.3897 61.4638 15.0186 62.1485 15.0186C62.6668 15.0186 63.0508 15.2809 63.0508 15.7544V16.2791C60.6576 16.5671 59.5186 17.303 59.5186 18.7107C59.5186 19.5554 60.0753 20.3553 61.1887 20.3553C61.9629 20.3553 62.5133 20.1057 63.1084 19.7026L63.2043 20.2401H64.6377C64.5353 19.9585 64.5161 19.645 64.5161 19.3378ZM63.0444 18.602C62.7372 18.8643 62.1549 19.2546 61.6942 19.2546C61.2783 19.2546 60.9839 18.9923 60.9839 18.5316C60.9839 17.6613 62.0589 17.4565 63.0444 17.271V18.602Z" fill="black"/>
<path d="M26.9482 25.7558C26.9482 28.565 28.2088 30.1711 30.3845 30.1711C31.9458 30.1711 33.0656 29.4096 33.5711 27.9251L32.0546 27.5219C31.5683 28.533 31.1203 28.7953 30.3845 28.7953C29.1495 28.7953 28.5608 27.7715 28.58 25.7558C28.58 23.7466 29.2455 22.7227 30.3333 22.7227C31.1395 22.7227 31.6515 23.2347 31.8882 23.9577L33.3728 23.5994C32.9696 22.0765 32.0226 21.3406 30.3845 21.3406C28.2088 21.3406 26.9482 22.9467 26.9482 25.7558Z" fill="black"/>
<path d="M36.9434 23.7468C35.2732 23.7468 34.2622 24.9946 34.2622 26.9591C34.2622 28.9236 35.2732 30.1714 36.9434 30.1714C38.6135 30.1714 39.6245 28.9236 39.6245 26.9591C39.6245 24.9946 38.6199 23.7468 36.9434 23.7468ZM36.9434 28.9812C36.1243 28.9812 35.734 28.3349 35.734 26.9591C35.734 25.5769 36.1243 24.937 36.9434 24.937C37.7624 24.937 38.1528 25.5833 38.1528 26.9591C38.1528 28.3413 37.7624 28.9812 36.9434 28.9812Z" fill="black"/>
<path d="M42.4337 21.4558H40.9619V30.0496H42.4337V21.4558Z" fill="black"/>
<path d="M52.4098 26.5878C52.4098 25.0969 51.5076 23.7275 49.895 23.7403C48.2249 23.7403 47.2139 24.9945 47.2139 26.9526C47.2139 28.9171 48.2185 30.1649 49.8182 30.1649C51.002 30.1649 51.8339 29.7809 52.4034 28.9043L51.3348 28.2388C50.97 28.6675 50.6437 28.9746 49.959 28.9746C49.2743 28.9746 48.7048 28.4755 48.6792 27.1893H52.4034M48.6856 26.1975C48.7112 25.3401 49.1591 24.8409 49.8694 24.8409C50.5797 24.8409 51.034 25.3401 51.0532 26.1975H48.6856Z" fill="black"/>
<path d="M64.6701 26.5878C64.6701 25.0969 63.7678 23.7275 62.1553 23.7403C60.4852 23.7403 59.4741 24.9945 59.4741 26.9526C59.4741 28.9171 60.4788 30.1649 62.0849 30.1649C63.2687 30.1649 64.1006 29.7809 64.6701 28.9043L63.6014 28.2452C63.2303 28.6739 62.9103 28.981 62.2257 28.981C61.5346 28.981 60.9651 28.4819 60.9459 27.1957H64.6701M60.9459 26.1975C60.9715 25.3401 61.4194 24.8409 62.1297 24.8409C62.84 24.8409 63.2943 25.3401 63.3135 26.1975H60.9459Z" fill="black"/>
<path d="M26.9482 35.5783C26.9482 38.3875 28.2088 39.9936 30.3845 39.9936C31.9458 39.9936 33.0656 39.2321 33.5711 37.7412L32.0546 37.3381C31.5683 38.3491 31.1203 38.6114 30.3845 38.6114C29.1495 38.6114 28.5608 37.5876 28.58 35.5783C28.58 33.5691 29.2455 32.5453 30.3333 32.5453C31.1395 32.5453 31.6515 33.0572 31.8882 33.7802L33.3728 33.4219C32.9696 31.899 32.0226 31.1631 30.3845 31.1631C28.2088 31.1631 26.9482 32.7692 26.9482 35.5783Z" fill="black"/>
<path d="M39.0552 38.9826V36.0647C39.0552 34.209 38.345 33.6011 36.6812 33.5627C35.779 33.5371 34.7616 34.0426 34.384 34.6953L35.3311 35.4184C35.6126 35.0281 35.9965 34.6569 36.6812 34.6569C37.1995 34.6569 37.5835 34.9193 37.5835 35.3928V35.9175C35.1903 36.2055 34.0513 36.9413 34.0513 38.3491C34.0513 39.1938 34.608 39.9936 35.7214 39.9936C36.4893 39.9936 37.046 39.7441 37.6411 39.3409L37.7371 39.8784H39.1704C39.0808 39.6033 39.0552 39.2897 39.0552 38.9826ZM37.5835 38.2467C37.2763 38.5091 36.694 38.8994 36.2333 38.8994C35.8174 38.8994 35.523 38.6371 35.523 38.1763C35.523 37.3061 36.598 37.1013 37.5835 36.9157V38.2467Z" fill="black"/>
<path d="M40.6484 39.8721H42.1202V35.4056C42.3698 35.1177 42.8561 34.7529 43.496 34.7529C43.9951 34.7529 44.251 35.0153 44.251 35.8472V39.8721H45.7228V35.636C45.7228 34.3754 45.1277 33.5627 43.8991 33.5627C43.176 33.5627 42.5489 33.9659 41.9986 34.3498V33.6843H40.6484" fill="black"/>
<path d="M51.8145 38.9826V36.0647C51.8145 34.209 51.1042 33.6011 49.4405 33.5627C48.5383 33.5371 47.5208 34.0426 47.1433 34.6953L48.0903 35.4184C48.3783 35.0281 48.7558 34.6569 49.4405 34.6569C49.9588 34.6569 50.3428 34.9193 50.3428 35.3928V35.9175C47.9496 36.2055 46.8105 36.9413 46.8105 38.3491C46.8105 39.1938 47.3673 39.9936 48.4807 39.9936C49.2549 39.9936 49.8116 39.7441 50.4004 39.3409L50.4963 39.8784H51.9297C51.8401 39.6033 51.8145 39.2897 51.8145 38.9826ZM50.3428 38.2467C50.0356 38.5091 49.4533 38.8994 48.9926 38.8994C48.5767 38.8994 48.2823 38.6371 48.2823 38.1763C48.2823 37.3061 49.3637 37.1013 50.3428 36.9157V38.2467Z" fill="black"/>
<path d="M64.5738 38.9826V36.0647C64.5738 34.209 63.8635 33.6011 62.1998 33.5627C61.2975 33.5371 60.2801 34.0426 59.9026 34.6953L60.8496 35.4184C61.1312 35.0281 61.5151 34.6569 62.1998 34.6569C62.7245 34.6569 63.102 34.9193 63.102 35.3928V35.9175C60.7088 36.2055 59.5698 36.9413 59.5698 38.3491C59.5698 39.1938 60.1265 39.9936 61.2399 39.9936C62.0078 39.9936 62.5645 39.7441 63.1596 39.3409L63.2556 39.8784H64.689C64.5994 39.6033 64.5738 39.2897 64.5738 38.9826ZM63.102 38.2467C62.7949 38.5091 62.2126 38.8994 61.7519 38.8994C61.3359 38.8994 61.0416 38.6371 61.0416 38.1763C61.0416 37.3061 62.1166 37.1013 63.102 36.9157V38.2467Z" fill="black"/>
<path d="M58.9044 23.7466C58.207 23.7211 57.7398 23.913 57.4583 24.297C57.0807 23.9642 56.4601 23.7466 55.9417 23.7466C54.342 23.7466 53.5101 24.8153 53.5101 25.9031C53.5101 26.6518 53.9133 27.1317 54.4252 27.5476C54.15 27.6308 53.4654 28.0851 53.4654 28.6802C53.4654 29.3457 54.0924 29.4993 54.3804 29.6785V29.7041C53.8493 29.7041 53.267 30.0752 53.267 30.8495C53.267 31.8221 54.3612 32.3276 56.0185 32.3276C56.3897 32.3276 56.716 32.2956 57.0168 32.2316V34.2665H56.9912C56.6968 33.8762 55.9929 33.5754 55.5002 33.5754C53.9133 33.5754 53.0366 35.0984 53.0366 36.6213C53.0366 38.5474 53.8621 39.9999 55.5002 39.9999C56.1657 39.9999 56.652 39.7248 57.1703 39.2129L57.2407 39.8784H58.4885V31.451C58.7509 31.1566 58.8789 30.8111 58.8789 30.4783C58.8789 28.0019 54.8219 29.3585 54.8219 28.3603C54.8219 28.0019 55.3338 27.9827 55.9737 27.9827C57.5159 27.9827 58.2965 27.1509 58.2965 25.9799C58.2965 25.5 58.1558 25.148 57.9638 24.8857C58.1878 24.7449 58.5717 24.7449 58.9108 24.7449M57.0104 38.253C56.7032 38.4898 56.4984 38.8033 55.8714 38.8033C54.9947 38.8033 54.4956 38.0867 54.4956 36.7813C54.4956 35.4695 54.9947 34.7592 55.8714 34.7592C56.3449 34.7592 56.7096 35.0088 57.0104 35.2839V38.253ZM55.6538 29.9344C57.0743 29.9344 57.5159 30.3631 57.5159 30.6511C57.5159 30.8687 57.1959 31.3422 56.2489 31.3422C55.0139 31.3422 54.6108 31.1246 54.6108 30.6511C54.6108 30.3887 54.8475 29.9344 55.6538 29.9344ZM55.9289 26.8885C55.3018 26.8885 54.8603 26.4342 54.8603 25.8647C54.8603 25.2952 55.3018 24.8409 55.9289 24.8409C56.4856 24.8409 56.9336 25.2952 56.9336 25.8647C56.9336 26.4342 56.4856 26.8885 55.9289 26.8885Z" fill="black"/>
<path d="M34.1918 20.2271V11.6333H32.6561V17.4947H32.6305L29.2647 11.6333H27.5562V20.2271H29.0983V14.1097H29.1175L32.6177 20.2271" fill="black"/>
<path d="M37.065 14.0396H35.5933V20.2273H37.065V14.0396Z" fill="black"/>
<path d="M37.065 11.5186H35.5933V12.9007H37.065V11.5186Z" fill="black"/>
<path d="M49.575 13.9178C48.8775 13.8922 48.4104 14.0842 48.1288 14.4681C47.7513 14.1354 47.1306 13.9178 46.6123 13.9178C45.0125 13.9178 44.1807 14.9864 44.1807 16.0742C44.1807 16.8229 44.5838 17.3028 45.0957 17.7188C44.8206 17.8019 44.1359 18.2563 44.1359 18.8514C44.1359 19.5169 44.763 19.6704 45.0509 19.8496V19.8752C44.5198 19.8752 43.9375 20.2463 43.9375 21.0206C43.9375 21.4045 44.1103 21.7117 44.411 21.9485V30.0559H45.8828V22.4476C46.1323 22.4796 46.4011 22.4924 46.689 22.4924C48.6599 22.4924 49.543 21.5389 49.543 20.6559C49.543 18.1795 45.486 19.5361 45.486 18.5378C45.486 18.1795 45.998 18.1539 46.6378 18.1539C48.18 18.1539 48.9607 17.322 48.9607 16.151C48.9607 15.6711 48.8199 15.3192 48.6279 15.0568C48.8519 14.916 49.2358 14.916 49.575 14.916M46.3243 20.112C47.7449 20.112 48.1864 20.5407 48.1864 20.8286C48.1864 21.0398 47.8664 21.5197 46.9194 21.5197C45.6844 21.5197 45.2813 21.3086 45.2813 20.8286C45.2813 20.5663 45.518 20.112 46.3243 20.112ZM46.5995 17.0661C45.9724 17.0661 45.5308 16.6117 45.5308 16.0422C45.5308 15.4727 45.9724 15.0184 46.5995 15.0184C47.1562 15.0184 47.6041 15.4727 47.6041 16.0422C47.6041 16.6117 47.1562 17.0661 46.5995 17.0661Z" fill="black"/>
<path d="M54.8155 19.3378V16.4199C54.8155 14.5642 54.1052 13.9563 52.4415 13.9179C51.5392 13.8923 50.5218 14.3915 50.1443 15.0505L51.0913 15.78C51.3729 15.3897 51.7568 15.0186 52.4415 15.0186C52.9598 15.0186 53.3437 15.2809 53.3437 15.7544V16.2791C50.9505 16.5671 49.8115 17.303 49.8115 18.7107C49.8115 19.5554 50.3682 20.3553 51.4816 20.3553C52.2495 20.3553 52.8062 20.1057 53.4013 19.7026L53.4973 20.2401H54.9307C54.8347 19.9585 54.8155 19.645 54.8155 19.3378ZM53.3437 18.602C53.0366 18.8643 52.4543 19.2546 51.9936 19.2546C51.5776 19.2546 51.2833 18.9923 51.2833 18.5316C51.2833 17.6613 52.3647 17.4565 53.3437 17.271V18.602Z" fill="black"/>
<path d="M43.0669 19.3378V16.4199C43.0669 14.5642 42.3566 13.9563 40.6993 13.9179C39.797 13.8923 38.7796 14.3915 38.4021 15.0505L39.3491 15.78C39.6307 15.3897 40.0146 15.0186 40.6993 15.0186C41.2176 15.0186 41.6015 15.2809 41.6015 15.7544V16.2791C39.2083 16.5671 38.0693 17.303 38.0693 18.7107C38.0693 19.5554 38.626 20.3553 39.7395 20.3553C40.5137 20.3553 41.0704 20.1057 41.6591 19.7026L41.7551 20.2401H43.1885C43.0925 19.9585 43.0669 19.645 43.0669 19.3378ZM41.5951 18.602C41.288 18.8643 40.7057 19.2546 40.245 19.2546C39.829 19.2546 39.5347 18.9923 39.5347 18.5316C39.5347 17.6613 40.6161 17.4565 41.5951 17.271V18.602Z" fill="black"/>
<path d="M59.0389 15.4665C59.1477 15.4665 59.2308 15.4665 59.3012 15.4793V13.918C58.4246 13.9436 57.9255 14.3595 57.5735 15.0954H57.5479V14.0331H56.1978V20.2209H57.6695V16.4583C57.6631 16.3112 58.303 15.4665 59.0389 15.4665Z" fill="black"/>
<path d="M64.5161 19.3378V16.4199C64.5161 14.5642 63.8058 13.9563 62.1485 13.9179C61.2463 13.8923 60.2288 14.3915 59.8513 15.0505L60.7983 15.78C61.0799 15.3897 61.4638 15.0186 62.1485 15.0186C62.6668 15.0186 63.0508 15.2809 63.0508 15.7544V16.2791C60.6576 16.5671 59.5186 17.303 59.5186 18.7107C59.5186 19.5554 60.0753 20.3553 61.1887 20.3553C61.9629 20.3553 62.5133 20.1057 63.1084 19.7026L63.2043 20.2401H64.6377C64.5353 19.9585 64.5161 19.645 64.5161 19.3378ZM63.0444 18.602C62.7372 18.8643 62.1549 19.2546 61.6942 19.2546C61.2783 19.2546 60.9839 18.9923 60.9839 18.5316C60.9839 17.6613 62.0589 17.4565 63.0444 17.271V18.602Z" fill="black"/>
<path d="M26.9482 25.7558C26.9482 28.565 28.2088 30.1711 30.3845 30.1711C31.9458 30.1711 33.0656 29.4096 33.5711 27.9251L32.0546 27.5219C31.5683 28.533 31.1203 28.7953 30.3845 28.7953C29.1495 28.7953 28.5608 27.7715 28.58 25.7558C28.58 23.7466 29.2455 22.7227 30.3333 22.7227C31.1395 22.7227 31.6515 23.2347 31.8882 23.9577L33.3728 23.5994C32.9696 22.0765 32.0226 21.3406 30.3845 21.3406C28.2088 21.3406 26.9482 22.9467 26.9482 25.7558Z" fill="black"/>
<path d="M36.9434 23.7468C35.2732 23.7468 34.2622 24.9946 34.2622 26.9591C34.2622 28.9236 35.2732 30.1714 36.9434 30.1714C38.6135 30.1714 39.6245 28.9236 39.6245 26.9591C39.6245 24.9946 38.6199 23.7468 36.9434 23.7468ZM36.9434 28.9812C36.1243 28.9812 35.734 28.3349 35.734 26.9591C35.734 25.5769 36.1243 24.937 36.9434 24.937C37.7624 24.937 38.1528 25.5833 38.1528 26.9591C38.1528 28.3413 37.7624 28.9812 36.9434 28.9812Z" fill="black"/>
<path d="M42.4337 21.4558H40.9619V30.0496H42.4337V21.4558Z" fill="black"/>
<path d="M52.4098 26.5878C52.4098 25.0969 51.5076 23.7275 49.895 23.7403C48.2249 23.7403 47.2139 24.9945 47.2139 26.9526C47.2139 28.9171 48.2185 30.1649 49.8182 30.1649C51.002 30.1649 51.8339 29.7809 52.4034 28.9043L51.3348 28.2388C50.97 28.6675 50.6437 28.9746 49.959 28.9746C49.2743 28.9746 48.7048 28.4755 48.6792 27.1893H52.4034M48.6856 26.1975C48.7112 25.3401 49.1591 24.8409 49.8694 24.8409C50.5797 24.8409 51.034 25.3401 51.0532 26.1975H48.6856Z" fill="black"/>
<path d="M64.6701 26.5878C64.6701 25.0969 63.7678 23.7275 62.1553 23.7403C60.4852 23.7403 59.4741 24.9945 59.4741 26.9526C59.4741 28.9171 60.4788 30.1649 62.0849 30.1649C63.2687 30.1649 64.1006 29.7809 64.6701 28.9043L63.6014 28.2452C63.2303 28.6739 62.9103 28.981 62.2257 28.981C61.5346 28.981 60.9651 28.4819 60.9459 27.1957H64.6701M60.9459 26.1975C60.9715 25.3401 61.4194 24.8409 62.1297 24.8409C62.84 24.8409 63.2943 25.3401 63.3135 26.1975H60.9459Z" fill="black"/>
<path d="M26.9482 35.5783C26.9482 38.3875 28.2088 39.9936 30.3845 39.9936C31.9458 39.9936 33.0656 39.2321 33.5711 37.7412L32.0546 37.3381C31.5683 38.3491 31.1203 38.6114 30.3845 38.6114C29.1495 38.6114 28.5608 37.5876 28.58 35.5783C28.58 33.5691 29.2455 32.5453 30.3333 32.5453C31.1395 32.5453 31.6515 33.0572 31.8882 33.7802L33.3728 33.4219C32.9696 31.899 32.0226 31.1631 30.3845 31.1631C28.2088 31.1631 26.9482 32.7692 26.9482 35.5783Z" fill="black"/>
<path d="M39.0552 38.9826V36.0647C39.0552 34.209 38.345 33.6011 36.6812 33.5627C35.779 33.5371 34.7616 34.0426 34.384 34.6953L35.3311 35.4184C35.6126 35.0281 35.9965 34.6569 36.6812 34.6569C37.1995 34.6569 37.5835 34.9193 37.5835 35.3928V35.9175C35.1903 36.2055 34.0513 36.9413 34.0513 38.3491C34.0513 39.1938 34.608 39.9936 35.7214 39.9936C36.4893 39.9936 37.046 39.7441 37.6411 39.3409L37.7371 39.8784H39.1704C39.0808 39.6033 39.0552 39.2897 39.0552 38.9826ZM37.5835 38.2467C37.2763 38.5091 36.694 38.8994 36.2333 38.8994C35.8174 38.8994 35.523 38.6371 35.523 38.1763C35.523 37.3061 36.598 37.1013 37.5835 36.9157V38.2467Z" fill="black"/>
<path d="M40.6484 39.8721H42.1202V35.4056C42.3698 35.1177 42.8561 34.7529 43.496 34.7529C43.9951 34.7529 44.251 35.0153 44.251 35.8472V39.8721H45.7228V35.636C45.7228 34.3754 45.1277 33.5627 43.8991 33.5627C43.176 33.5627 42.5489 33.9659 41.9986 34.3498V33.6843H40.6484" fill="black"/>
<path d="M51.8145 38.9826V36.0647C51.8145 34.209 51.1042 33.6011 49.4405 33.5627C48.5383 33.5371 47.5208 34.0426 47.1433 34.6953L48.0903 35.4184C48.3783 35.0281 48.7558 34.6569 49.4405 34.6569C49.9588 34.6569 50.3428 34.9193 50.3428 35.3928V35.9175C47.9496 36.2055 46.8105 36.9413 46.8105 38.3491C46.8105 39.1938 47.3673 39.9936 48.4807 39.9936C49.2549 39.9936 49.8116 39.7441 50.4004 39.3409L50.4963 39.8784H51.9297C51.8401 39.6033 51.8145 39.2897 51.8145 38.9826ZM50.3428 38.2467C50.0356 38.5091 49.4533 38.8994 48.9926 38.8994C48.5767 38.8994 48.2823 38.6371 48.2823 38.1763C48.2823 37.3061 49.3637 37.1013 50.3428 36.9157V38.2467Z" fill="black"/>
<path d="M64.5738 38.9826V36.0647C64.5738 34.209 63.8635 33.6011 62.1998 33.5627C61.2975 33.5371 60.2801 34.0426 59.9026 34.6953L60.8496 35.4184C61.1312 35.0281 61.5151 34.6569 62.1998 34.6569C62.7245 34.6569 63.102 34.9193 63.102 35.3928V35.9175C60.7088 36.2055 59.5698 36.9413 59.5698 38.3491C59.5698 39.1938 60.1265 39.9936 61.2399 39.9936C62.0078 39.9936 62.5645 39.7441 63.1596 39.3409L63.2556 39.8784H64.689C64.5994 39.6033 64.5738 39.2897 64.5738 38.9826ZM63.102 38.2467C62.7949 38.5091 62.2126 38.8994 61.7519 38.8994C61.3359 38.8994 61.0416 38.6371 61.0416 38.1763C61.0416 37.3061 62.1166 37.1013 63.102 36.9157V38.2467Z" fill="black"/>
<path d="M58.9044 23.7466C58.207 23.7211 57.7398 23.913 57.4583 24.297C57.0807 23.9642 56.4601 23.7466 55.9417 23.7466C54.342 23.7466 53.5101 24.8153 53.5101 25.9031C53.5101 26.6518 53.9133 27.1317 54.4252 27.5476C54.15 27.6308 53.4654 28.0851 53.4654 28.6802C53.4654 29.3457 54.0924 29.4993 54.3804 29.6785V29.7041C53.8493 29.7041 53.267 30.0752 53.267 30.8495C53.267 31.8221 54.3612 32.3276 56.0185 32.3276C56.3897 32.3276 56.716 32.2956 57.0168 32.2316V34.2665H56.9912C56.6968 33.8762 55.9929 33.5754 55.5002 33.5754C53.9133 33.5754 53.0366 35.0984 53.0366 36.6213C53.0366 38.5474 53.8621 39.9999 55.5002 39.9999C56.1657 39.9999 56.652 39.7248 57.1703 39.2129L57.2407 39.8784H58.4885V31.451C58.7509 31.1566 58.8789 30.8111 58.8789 30.4783C58.8789 28.0019 54.8219 29.3585 54.8219 28.3603C54.8219 28.0019 55.3338 27.9827 55.9737 27.9827C57.5159 27.9827 58.2965 27.1509 58.2965 25.9799C58.2965 25.5 58.1558 25.148 57.9638 24.8857C58.1878 24.7449 58.5717 24.7449 58.9108 24.7449M57.0104 38.253C56.7032 38.4898 56.4984 38.8033 55.8714 38.8033C54.9947 38.8033 54.4956 38.0867 54.4956 36.7813C54.4956 35.4695 54.9947 34.7592 55.8714 34.7592C56.3449 34.7592 56.7096 35.0088 57.0104 35.2839V38.253ZM55.6538 29.9344C57.0743 29.9344 57.5159 30.3631 57.5159 30.6511C57.5159 30.8687 57.1959 31.3422 56.2489 31.3422C55.0139 31.3422 54.6108 31.1246 54.6108 30.6511C54.6108 30.3887 54.8475 29.9344 55.6538 29.9344ZM55.9289 26.8885C55.3018 26.8885 54.8603 26.4342 54.8603 25.8647C54.8603 25.2952 55.3018 24.8409 55.9289 24.8409C56.4856 24.8409 56.9336 25.2952 56.9336 25.8647C56.9336 26.4342 56.4856 26.8885 55.9289 26.8885Z" fill="black"/>
<path d="M13.6902 8.04369C12.7272 8.17422 11.4916 8.55304 10.6341 8.99393C10.4728 9.07455 10.0876 9.31067 9.77664 9.51544C7.75202 10.8573 6.41656 12.8506 5.88225 15.3289C5.68964 16.2356 5.68964 17.9812 5.88225 18.888C6.28666 20.7584 7.2305 22.4541 8.57812 23.7211C12.1871 27.1125 17.7644 27.0255 21.2736 23.5221C22.5719 22.218 23.4723 20.4787 23.7826 18.671C23.9253 17.8699 23.9503 16.5965 23.8383 15.8261C23.304 11.9816 20.3541 8.88195 16.509 8.13071C15.8889 8.00657 14.3052 7.95666 13.6902 8.04369Z" fill="white"/>
<path d="M13.6902 8.04369C12.7272 8.17422 11.4916 8.55304 10.6341 8.99393C10.4728 9.07455 10.0876 9.31067 9.77664 9.51544C7.75202 10.8573 6.41656 12.8506 5.88225 15.3289C5.68964 16.2356 5.68964 17.9812 5.88225 18.888C6.28666 20.7584 7.2305 22.4541 8.57812 23.7211C12.1871 27.1125 17.7644 27.0255 21.2736 23.5221C22.5719 22.218 23.4723 20.4787 23.7826 18.671C23.9253 17.8699 23.9503 16.5965 23.8383 15.8261C23.304 11.9816 20.3541 8.88195 16.509 8.13071C15.8889 8.00657 14.3052 7.95666 13.6902 8.04369ZM13.3421 14.0996C13.9014 14.3358 14.2239 14.783 14.3423 15.4972C14.3736 15.7147 14.4043 16.839 14.4043 17.9876V20.0871H12.9134V17.8948C12.9134 15.9381 12.9012 15.6834 12.8014 15.4914C12.6837 15.2489 12.4725 15.119 12.1929 15.119C11.864 15.119 11.3917 15.293 11.1243 15.5292L10.8632 15.7525V20.0871H9.43494V14.0619H10.7397V14.3722C10.7397 14.5399 10.7582 14.6826 10.7768 14.6826C10.7953 14.6826 10.8888 14.6327 10.9758 14.5648C11.2676 14.3601 11.8141 14.1054 12.1372 14.0248C12.4917 13.932 13.0254 13.9691 13.3421 14.0996ZM18.4421 14.0069C19.169 14.1188 19.8082 14.5162 20.1563 15.0691C20.4545 15.5349 20.4424 15.5599 19.7961 15.8082L19.2247 16.0315L19.0321 15.7147C18.572 14.9385 17.5289 14.9136 17.1124 15.6776C16.8763 16.1121 16.7835 16.8761 16.8763 17.6152C16.9882 18.5283 17.2736 18.9507 17.8329 19.0313C18.3979 19.1119 18.8388 18.8944 19.162 18.3856L19.336 18.106L19.8082 18.3607C20.4667 18.7145 20.4603 18.7088 20.2677 19.0006C19.6656 19.9137 19.0007 20.249 17.8828 20.1991C17.3613 20.1805 17.2308 20.1492 16.8705 19.9758C15.8639 19.4786 15.3303 18.3236 15.4167 16.8262C15.5158 15.0806 16.4104 14.0561 17.9449 13.9441C17.9948 13.9448 18.2181 13.9691 18.4421 14.0069Z" fill="#0077BE"/>
</svg>
