<svg width="196" height="48" viewBox="0 0 196 48" fill="none" xmlns="http://www.w3.org/2000/svg">
<path opacity="0.5" d="M126.255 39.7649L125.873 37.9741H123.172L122.791 39.7649H120.148L123.172 27.9044H125.961L128.985 39.7649H126.255ZM124.523 31.4273L123.583 35.7722H125.462L124.523 31.4273ZM133.624 39.7649H129.866V27.875H133.213C135.62 27.875 136.706 29.431 136.706 30.9576C136.706 32.1319 136.383 32.9539 135.591 33.5117C136.677 34.0695 137.147 35.0089 137.147 36.3007C137.147 38.4145 135.649 39.7649 133.624 39.7649ZM133.271 30.1356H132.391V32.4255H133.271C133.859 32.4255 134.24 31.9264 134.24 31.2805C134.27 30.6053 133.859 30.1356 133.271 30.1356ZM133.418 34.7447H132.391V37.4163H133.418C134.093 37.4163 134.563 36.8878 134.563 36.0952C134.534 35.3025 134.093 34.7447 133.418 34.7447ZM144.31 39.7649V37.3869H141.198V34.8034H144.016V32.4255H141.198V30.3117H144.163V27.875H138.556V39.7355H144.31V39.7649ZM150.651 39.7649L149.359 35.7429H148.332V39.7649H145.748V27.875H149.301C151.561 27.875 153 29.431 153 31.8089C153 33.1007 152.559 34.1869 151.767 34.8915L153.499 39.7355H150.651V39.7649ZM149.154 30.1356H148.332V33.453H149.154C149.947 33.453 150.416 32.8658 150.416 31.7796C150.416 30.7227 149.947 30.1356 149.154 30.1356ZM161.514 37.9154C161.044 38.9723 159.958 39.7649 158.196 39.7649H154.556V27.875H158.196C159.928 27.875 161.014 28.6383 161.514 29.7245C161.719 30.1943 161.837 30.6933 161.837 31.5154V36.0952C161.837 36.9466 161.719 37.4456 161.514 37.9154ZM159.224 31.7209C159.224 31.3392 159.194 31.1337 159.106 30.9576C158.959 30.5759 158.637 30.2823 158.02 30.2823H157.198V37.3576H158.02C158.637 37.3576 158.93 37.064 159.106 36.6823C159.194 36.5062 159.224 36.3007 159.224 35.919V31.7209ZM169.205 39.7649V37.3869H166.093V34.8034H168.941V32.4255H166.093V30.3117H169.059V27.875H163.451V39.7355H169.205V39.7649ZM176.427 39.7649V37.3869H173.315V34.8034H176.134V32.4255H173.315V30.3117H176.281V27.875H170.673V39.7355H176.427V39.7649ZM185.147 39.7649V27.875H182.622V34.5099L180.332 27.875H177.866V39.7355H180.391V33.042L182.681 39.7355H185.147V39.7649Z" fill="#78217D"/>
<path d="M115.598 34.4807V39.7358H112.985V34.4807L110.108 27.8752H112.721L114.306 31.9266L115.892 27.8752H115.833H118.475L115.598 34.4807ZM52.244 38.2973C52.5376 37.7982 52.655 37.2404 52.655 36.389V27.8752H50.0128V36.389C50.0128 36.6826 49.9834 36.8587 49.9247 37.0055C49.7779 37.3872 49.455 37.622 48.9853 37.622C48.5155 37.622 48.222 37.3872 48.0458 37.0055C47.9871 36.8587 47.9577 36.7119 47.9577 36.389V27.8752H45.3449V36.389C45.3449 37.2404 45.4623 37.7982 45.7559 38.2973C46.3137 39.2954 47.4293 40 48.9853 40C50.5412 40 51.6568 39.2954 52.244 38.2973ZM59.1137 39.7651L56.8238 33.0716V39.7651H54.299V27.8752H56.7651L59.055 34.5101V27.8752H61.5798V39.7358H59.1137V39.7651ZM63.2825 27.8752H65.8954V39.7358H63.2825V27.8752ZM71.9724 39.7651H69.477L66.7761 27.9046H69.3889L70.71 35.3321L72.0311 27.9046H74.644L71.9724 39.7651ZM75.5247 39.7651V27.8752H81.132V30.2532H78.1669V32.367H80.9853V34.745H78.1669V37.3284H81.2788V39.7064H75.5247V39.7651ZM87.5908 39.7651L86.299 35.7431H85.2715V39.7651H82.688V27.8752H86.2403C88.5009 27.8752 89.9394 29.4312 89.9394 31.8092C89.9394 33.1009 89.499 34.1872 88.7064 34.8917L90.4385 39.7358H87.5908V39.7651ZM86.1229 30.1358H85.3009V33.4532H86.1229C86.9155 33.4532 87.3853 32.8661 87.3853 31.7798C87.3853 30.7229 86.9155 30.1358 86.1229 30.1358ZM94.4605 40C92.9045 40 91.5834 39.4128 91.2605 39.178V36.389C91.5541 36.6826 92.6403 37.622 94.1669 37.622C95.0183 37.622 95.3999 37.1817 95.3999 36.6532C95.3999 35.7431 94.0495 35.0092 93.11 34.2752C92.2293 33.6 91.0844 32.778 91.0844 30.811C91.0844 28.844 92.611 27.6404 94.5779 27.6404C96.31 27.6404 97.455 28.1982 97.6605 28.3156V30.811C97.044 30.4 95.9871 29.8716 94.9009 29.8716C94.1669 29.8716 93.8146 30.2826 93.8146 30.8697C93.8146 31.6624 94.5779 32.1028 95.8697 33.0422C96.7798 33.7174 98.1596 34.6275 98.1596 36.6826C98.1302 38.5321 96.8385 40 94.4605 40ZM99.3045 27.8752H101.947V39.7358H99.3045V27.8752ZM107.76 30.2826V39.7651H105.147V30.2826H102.974V27.8752H109.932V30.2532H107.76V30.2826ZM51.921 24.3229L50.1889 18.9211H48.8385V24.3229H45.3743V8.3523H50.1596C53.2128 8.3523 55.1504 10.4367 55.1504 13.6661C55.1504 15.3982 54.5632 16.8661 53.477 17.8055L55.8256 24.3229H51.921ZM49.9541 11.3761H48.8385V15.8385H49.9541C51.011 15.8385 51.6275 15.0459 51.6275 13.6073C51.6275 12.1688 51.011 11.3761 49.9541 11.3761ZM66.4238 22.356C65.6605 23.7064 64.1632 24.6459 62.0201 24.6459C59.877 24.6459 58.3798 23.7064 57.6165 22.356C57.2348 21.6807 57.0587 20.9174 57.0587 19.8018V12.844C57.0587 11.7284 57.2348 10.9651 57.6165 10.2899C58.3798 8.93945 59.877 8 62.0201 8C64.1632 8 65.6605 8.93945 66.4238 10.2899C66.8054 10.9651 66.9816 11.7284 66.9816 12.844V19.8018C66.9816 20.9468 66.8054 21.7101 66.4238 22.356ZM63.4587 12.844C63.4587 12.433 63.4293 12.2275 63.3412 12.022C63.1357 11.4936 62.6954 11.2 62.0201 11.2C61.3449 11.2 60.9045 11.4936 60.699 12.022C60.6403 12.1982 60.5816 12.433 60.5816 12.844V19.8312C60.5816 20.2422 60.611 20.4477 60.699 20.6532C60.9045 21.1817 61.3449 21.4752 62.0201 21.4752C62.6954 21.4752 63.1357 21.1817 63.3412 20.6532C63.3999 20.4477 63.4587 20.2422 63.4587 19.8312V12.844ZM74.233 24.3229H69.1541V8.3523H73.6752C76.9045 8.3523 78.3724 10.4367 78.3724 12.4917C78.3724 14.0771 77.9614 15.1927 76.8458 15.9266C78.3137 16.6899 78.9302 17.9523 78.9302 19.6844C78.9596 22.5321 76.9632 24.3229 74.233 24.3229ZM73.7632 11.3761H72.5596V14.4294H73.7632C74.5559 14.4294 75.0843 13.7541 75.0843 12.9028C75.0843 12.022 74.5559 11.3761 73.7632 11.3761ZM73.9394 17.6H72.5889V21.211H73.9394C74.8495 21.211 75.466 20.4771 75.466 19.4202C75.466 18.334 74.8495 17.6 73.9394 17.6ZM80.8972 24.3229V8.3523H88.4421V11.5523H84.4495V14.4H88.266V17.6294H84.4495V21.0936H88.6476V24.3229H80.8972ZM97.132 24.3229L95.3999 18.9211H94.0495V24.3229H90.5853V8.3523H95.3706C98.4238 8.3523 100.361 10.4367 100.361 13.6661C100.361 15.3982 99.7743 16.8661 98.688 17.8055L101.037 24.3229H97.132ZM95.1651 11.3761H94.0495V15.8385H95.1651C96.222 15.8385 96.8385 15.0459 96.8385 13.6073C96.8385 12.1688 96.222 11.3761 95.1651 11.3761ZM107.789 11.5523V24.3229H104.266V11.5523H101.36V8.3523H110.725V11.5523H107.789ZM120.53 24.6459C118.446 24.6459 117.007 23.7064 116.215 22.356C115.833 21.7101 115.657 20.9468 115.657 19.8018V12.844C115.657 11.7284 115.833 10.9064 116.244 10.1725C116.978 8.9101 118.446 8.02936 120.56 8.02936C122.321 8.02936 123.76 8.46972 124.758 9.02752V12.4917C123.554 11.7284 121.998 11.2 121 11.2C119.561 11.2 119.18 11.9633 119.18 13.2551V19.8018C119.18 20.2128 119.209 20.4183 119.297 20.6239C119.503 21.1523 119.884 21.4459 120.589 21.4459C121.117 21.4459 121.675 21.2697 121.822 21.1817V17.7174H120.706V14.4881H125.374V23.1193C124.699 23.7945 122.615 24.6459 120.53 24.6459ZM136.853 22.356C136.09 23.7064 134.593 24.6459 132.449 24.6459C130.306 24.6459 128.809 23.7064 128.046 22.356C127.664 21.6807 127.488 20.9174 127.488 19.8018V12.844C127.488 11.7284 127.664 10.9651 128.046 10.2899C128.809 8.93945 130.306 8 132.449 8C134.593 8 136.09 8.93945 136.853 10.2899C137.235 10.9651 137.411 11.7284 137.411 12.844V19.8018C137.411 20.9468 137.235 21.7101 136.853 22.356ZM133.859 12.844C133.859 12.433 133.829 12.2275 133.741 12.022C133.536 11.4936 133.095 11.2 132.42 11.2C131.745 11.2 131.305 11.4936 131.099 12.022C131.04 12.1982 130.982 12.433 130.982 12.844V19.8312C130.982 20.2422 131.011 20.4477 131.099 20.6532C131.305 21.1817 131.745 21.4752 132.42 21.4752C133.095 21.4752 133.536 21.1817 133.741 20.6532C133.8 20.4477 133.859 20.2422 133.859 19.8312V12.844ZM146.16 24.3229L144.427 18.9211H143.077V24.3229H139.613V8.3523H144.398C147.451 8.3523 149.389 10.4367 149.389 13.6661C149.389 15.3982 148.802 16.8661 147.716 17.8055L150.064 24.3229H146.16ZM144.163 11.3761H143.048V15.8385H144.163C145.22 15.8385 145.837 15.0459 145.837 13.6073C145.866 12.1688 145.249 11.3761 144.163 11.3761ZM160.78 21.8569C160.134 23.2954 158.666 24.3229 156.317 24.3229H151.415V8.3523H156.317C158.666 8.3523 160.134 9.37982 160.78 10.8184C161.073 11.4642 161.22 12.1395 161.22 13.2551V19.4202C161.22 20.5358 161.073 21.211 160.78 21.8569ZM157.697 13.4899C157.697 12.9908 157.638 12.6972 157.55 12.433C157.345 11.9339 156.905 11.5523 156.112 11.5523H154.996V21.0936H156.112C156.934 21.0936 157.345 20.7119 157.55 20.2128C157.638 19.9486 157.697 19.6844 157.697 19.156V13.4899ZM172.611 22.356C171.848 23.7064 170.35 24.6459 168.207 24.6459C166.064 24.6459 164.567 23.7064 163.804 22.356C163.422 21.6807 163.246 20.9174 163.246 19.8018V12.844C163.246 11.7284 163.422 10.9651 163.804 10.2899C164.567 8.93945 166.064 8 168.207 8C170.35 8 171.848 8.93945 172.611 10.2899C172.993 10.9651 173.169 11.7284 173.169 12.844V19.8018C173.169 20.9468 172.993 21.7101 172.611 22.356ZM169.646 12.844C169.646 12.433 169.616 12.2275 169.528 12.022C169.323 11.4936 168.883 11.2 168.207 11.2C167.532 11.2 167.092 11.4936 166.886 12.022C166.827 12.1982 166.769 12.433 166.769 12.844V19.8312C166.769 20.2422 166.798 20.4477 166.886 20.6532C167.092 21.1817 167.532 21.4752 168.207 21.4752C168.883 21.4752 169.323 21.1817 169.528 20.6532C169.587 20.4477 169.646 20.2422 169.646 19.8312V12.844ZM181.859 24.3229L178.776 15.3101V24.3229H175.371V8.3523H178.659L181.741 17.3064V8.3523H185.147V24.3229H181.859ZM40.4128 9.90826C40.4128 9.05688 39.7082 8.3523 38.8568 8.3523H10.5853C9.73388 8.3523 9.0293 9.05688 9.0293 9.90826V38.2092C9.0293 39.0606 9.73388 39.7651 10.5853 39.7651H38.8862C39.7376 39.7651 40.4421 39.0606 40.4421 38.2092V9.90826H40.4128Z" fill="#78217D"/>
<path d="M17.162 34.8619L15.8409 30.6638H14.784V34.8619H12.0538V22.4729H15.7529C16.34 22.4729 16.8685 22.561 17.3675 22.7665C17.8373 22.972 18.2483 23.2362 18.5712 23.5885C18.8941 23.9408 19.1584 24.3812 19.3639 24.8803C19.54 25.3794 19.6281 25.9665 19.6281 26.583C19.6281 27.2583 19.5107 27.8748 19.3051 28.4326C19.0703 28.9904 18.7767 29.4307 18.3363 29.8124L20.1565 34.8619H17.162ZM16.9272 26.583C16.9272 26.0252 16.8097 25.5849 16.5749 25.2913C16.34 24.9977 16.0171 24.8509 15.6061 24.8509H14.7547V28.3151H15.6061C16.0171 28.3151 16.34 28.1684 16.5749 27.8748C16.8097 27.5518 16.9272 27.1408 16.9272 26.583ZM37.2428 32.4839C37.3015 32.161 37.3308 31.7794 37.3308 31.3683V22.4729H34.6006V31.3683C34.6006 31.5151 34.6006 31.6619 34.5712 31.75C34.5712 31.8381 34.5418 31.9262 34.5125 32.0142C34.4244 32.2197 34.307 32.3665 34.1602 32.4839C33.984 32.6014 33.7785 32.6601 33.5437 32.6601C33.3088 32.6601 33.1033 32.6014 32.9272 32.4839C32.7804 32.3665 32.6336 32.2197 32.5749 32.0142C32.5455 31.9262 32.5162 31.8674 32.5162 31.75C32.4868 31.6619 32.4868 31.5445 32.4868 31.3683V22.4729H29.7565V31.3683C29.7565 31.8087 29.7859 32.1904 29.874 32.4839C29.9327 32.8069 30.0501 33.0711 30.1969 33.3353C30.3437 33.5995 30.5198 33.8344 30.7547 34.0399C30.9602 34.2454 31.2244 34.4509 31.518 34.5977C31.8116 34.7445 32.1051 34.8619 32.4574 34.95C32.8097 35.0381 33.1914 35.0674 33.573 35.0674C33.984 35.0674 34.3363 35.0381 34.6886 34.95C35.0409 34.8619 35.3345 34.7445 35.6281 34.5977C35.9217 34.4509 36.1565 34.2454 36.3914 34.0399C36.5969 33.8344 36.8024 33.5995 36.9492 33.3353C37.0666 33.1005 37.1547 32.8069 37.2428 32.4839ZM27.7895 34.3335C28.0538 34.1867 28.2593 34.0693 28.3767 33.9225V27.2289H24.7657V29.7243H25.6464V32.4252C25.6171 32.4546 25.5877 32.4839 25.4996 32.4839C25.4409 32.5133 25.3529 32.5427 25.2648 32.5427C25.1767 32.572 25.0886 32.572 24.9712 32.6014C24.8538 32.6014 24.7657 32.6307 24.6483 32.6307C24.384 32.6307 24.1492 32.572 24.0024 32.4546C23.8556 32.3372 23.7382 32.1904 23.6501 31.9849C23.6207 31.8968 23.5914 31.8381 23.5914 31.7206C23.562 31.6326 23.562 31.5151 23.562 31.339V26.2601C23.562 25.9959 23.5914 25.7904 23.6207 25.5849C23.6501 25.3794 23.7382 25.2326 23.8556 25.0858C23.973 24.939 24.1198 24.8509 24.296 24.7628C24.4721 24.7041 24.707 24.6454 24.9712 24.6454C25.1767 24.6454 25.3822 24.6748 25.6171 24.7041C25.8519 24.7628 26.1162 24.8216 26.351 24.9096C26.6152 24.9977 26.8795 25.1151 27.1143 25.2326C27.3785 25.35 27.6134 25.4968 27.8483 25.6436V22.972C27.4666 22.7665 26.9969 22.561 26.4391 22.4142C25.8813 22.2674 25.2648 22.1794 24.5896 22.1794C24.1785 22.1794 23.7969 22.2087 23.474 22.2968C23.1217 22.3849 22.8281 22.5023 22.5345 22.6491C22.2409 22.7959 22.0061 22.972 21.8006 23.1775C21.5951 23.383 21.4189 23.6179 21.2721 23.8527C21.096 24.1463 20.9785 24.4399 20.9198 24.7922C20.8611 25.1151 20.8024 25.4968 20.8024 25.9372V31.339C20.8024 31.7794 20.8318 32.161 20.9198 32.4546C20.9785 32.7775 21.096 33.0417 21.2428 33.306C21.3896 33.5702 21.5657 33.805 21.7712 34.0106C21.9767 34.2161 22.2409 34.4216 22.5051 34.5683C22.7987 34.7151 23.0923 34.8326 23.4446 34.9206C23.7969 35.0087 24.1492 35.0381 24.5602 35.0381C24.9712 35.0381 25.3529 35.0087 25.7639 34.9206C26.1455 34.8619 26.5272 34.7445 26.8501 34.6564C27.2318 34.5977 27.5547 34.4803 27.7895 34.3335ZM36.1272 17.7757C36.1272 17.7757 32.1932 14.7518 29.4629 13.7537C26.7033 12.7261 23.8556 12.7849 21.7125 13.7537L12.0244 18.1867C12.0244 18.1867 15.7235 21.005 20.1859 21.005C23.6795 21.005 29.874 15.4858 36.1272 17.7757ZM37.3308 20.5647C37.3308 20.5647 37.3308 20.5647 35.9804 19.1849C33.3088 16.4546 27.085 19.5372 27.085 19.5372L29.1987 20.7995C31.9584 22.1794 34.1308 18.95 37.3308 20.5647ZM19.54 14.106C19.54 14.106 18.1896 13.3133 17.3088 13.1078C16.4281 12.9023 15.518 13.0197 14.9015 13.4014L12.0538 15.1335C12.0538 15.1335 13.3162 15.8674 14.696 15.6913C15.8116 15.5739 17.5143 13.6362 19.54 14.106Z" fill="white"/>
</svg>
