<svg width="141" height="48" viewBox="0 0 141 48" fill="none" xmlns="http://www.w3.org/2000/svg">
<path d="M32.157 8H27.2391V10.4147H22.3282V8H17.4133V10.4147H12.4984V8H7.5835V22.7437H12.4984C12.5212 20.8036 13.3079 18.9507 14.6879 17.5868C16.068 16.2229 17.93 15.458 19.8703 15.458C21.8105 15.458 23.6726 16.2229 25.0526 17.5868C26.4326 18.9507 27.2193 20.8036 27.2421 22.7437H32.155L32.157 8Z" fill="#A39461"/>
<path d="M32.1571 37.5427H27.2422V40.0002H32.1571V37.5427Z" fill="#A39461"/>
<path d="M12.4989 37.5427H7.58398V40.0002H12.4989V37.5427Z" fill="#A39461"/>
<path d="M12.4989 32.6277H7.58398V35.0851H12.4989V32.6277Z" fill="#A39461"/>
<path d="M32.1581 32.6277H27.2432V35.0851H32.1581V32.6277Z" fill="#A39461"/>
<path d="M27.2438 30.1711H12.499V32.6286H27.2438V30.1711Z" fill="#A39461"/>
<path d="M27.2427 35.0852H12.499V37.5427H17.4139V40.0001H22.3289V37.5427H27.2427V35.0852Z" fill="#A39461"/>
<path d="M32.1581 25.2563H27.2432V30.1713H32.1581V25.2563Z" fill="#A39461"/>
<path d="M12.4989 25.2563H7.58398V30.1713H12.4989V25.2563Z" fill="#A39461"/>
<path d="M92.0474 22.7173V15.5181H93.5383L95.8104 21.4107L98.0734 15.5181H99.5643V22.7173H98.5286V16.8603L96.2565 22.7224H95.3715L93.0862 16.8603V22.7224L92.0474 22.7173Z" fill="black"/>
<path d="M101.01 16.5547V15.3438H102.152V16.5547H101.01ZM101.031 22.7151V17.4101H102.132V22.7171L101.031 22.7151Z" fill="black"/>
<path d="M108.369 22.7173H107.3V21.7814C107.042 22.3985 106.354 22.8405 105.531 22.8405C105.199 22.8463 104.871 22.7772 104.57 22.6382C104.269 22.4993 104.003 22.2941 103.792 22.038C103.33 21.5033 103.104 20.8454 103.104 20.0643C103.104 19.2832 103.33 18.6242 103.792 18.0896C104.003 17.8335 104.269 17.6283 104.57 17.4894C104.871 17.3504 105.199 17.2812 105.531 17.2871C106.354 17.2871 107.012 17.7291 107.268 18.3462V15.2095H108.369V22.7173ZM104.626 18.7678C104.347 19.1415 104.203 19.5985 104.218 20.0643C104.204 20.5329 104.347 20.9928 104.626 21.3699C104.751 21.54 104.916 21.6774 105.106 21.7704C105.295 21.8635 105.505 21.9095 105.716 21.9046C105.93 21.9095 106.143 21.8636 106.336 21.7707C106.529 21.6777 106.697 21.5404 106.826 21.3699C107.126 21.0022 107.283 20.5386 107.268 20.0643C107.283 19.5897 107.126 19.1258 106.826 18.7577C106.697 18.5872 106.529 18.4498 106.336 18.3569C106.143 18.264 105.93 18.2181 105.716 18.223C105.504 18.2198 105.294 18.2676 105.104 18.3624C104.915 18.4572 104.75 18.5963 104.626 18.7678Z" fill="black"/>
<path d="M109.67 22.7173V15.2095H110.771V22.7173H109.67Z" fill="black"/>
<path d="M113.841 19.5083L115.332 19.4064V19.2109C115.332 18.5224 114.963 18.1313 114.253 18.1313C113.625 18.1313 113.194 18.4807 113.111 18.9848H112.042C112.206 17.9572 113.049 17.2881 114.243 17.2881C115.641 17.2881 116.433 18.0488 116.433 19.2526V22.7153H115.363V21.9229C115.147 22.4576 114.53 22.8395 113.718 22.8395C112.576 22.8395 111.846 22.1714 111.846 21.1734C111.846 20.156 112.514 19.6009 113.841 19.5083ZM113.965 22.0543C114.787 22.0543 115.332 21.4993 115.332 20.5949V20.1519L114.13 20.2344C113.315 20.2863 112.916 20.5949 112.916 21.1398C112.916 21.7091 113.296 22.0543 113.965 22.0543Z" fill="black"/>
<path d="M117.675 22.7173V17.4103H118.735V18.2638C118.992 17.6161 119.527 17.2871 120.329 17.2871C121.563 17.2871 122.252 18.1304 122.252 19.4777V22.7173H121.151V19.6213C121.151 18.7679 120.781 18.2536 120.041 18.2536C119.27 18.2536 118.776 18.7781 118.776 19.6427V22.7173H117.675Z" fill="black"/>
<path d="M128.429 22.7173H127.358V21.7814C127.102 22.3985 126.412 22.8405 125.59 22.8405C125.259 22.8463 124.93 22.7772 124.629 22.6382C124.328 22.4993 124.063 22.2941 123.852 22.038C123.39 21.5033 123.164 20.8454 123.164 20.0643C123.164 19.2832 123.39 18.6242 123.852 18.0896C124.063 17.8335 124.328 17.6283 124.629 17.4894C124.93 17.3504 125.259 17.2812 125.59 17.2871C126.412 17.2871 127.071 17.7291 127.328 18.3462V15.2095H128.429V22.7173ZM124.685 18.7678C124.406 19.1413 124.263 19.5985 124.278 20.0643C124.263 20.533 124.406 20.993 124.685 21.3699C124.811 21.5399 124.975 21.6771 125.165 21.7702C125.354 21.8632 125.564 21.9093 125.775 21.9046C125.989 21.9097 126.202 21.8639 126.395 21.7709C126.588 21.678 126.756 21.5405 126.886 21.3699C127.186 21.0022 127.343 20.5386 127.328 20.0643C127.343 19.5897 127.186 19.1258 126.886 18.7577C126.756 18.587 126.588 18.4496 126.395 18.3567C126.202 18.2637 125.989 18.2179 125.775 18.223C125.563 18.2199 125.353 18.2678 125.164 18.3626C124.974 18.4574 124.81 18.5964 124.685 18.7678Z" fill="black"/>
<path d="M129.369 21.0206H130.396C130.519 21.648 130.973 22.039 131.744 22.039C132.457 22.039 132.895 21.6897 132.895 21.1856C132.895 20.8057 132.607 20.5582 132.032 20.4656L130.941 20.2812C129.964 20.1162 129.482 19.6539 129.482 18.8921C129.482 17.9358 130.335 17.2881 131.58 17.2881C132.845 17.2881 133.646 17.9256 133.739 18.9542H132.71C132.629 18.4297 132.238 18.0906 131.58 18.0906C130.922 18.0906 130.489 18.3472 130.489 18.8035C130.489 19.1426 130.674 19.2862 131.239 19.3789L132.351 19.5643C133.41 19.7384 133.914 20.2222 133.914 21.0919C133.921 21.338 133.867 21.582 133.758 21.8025C133.648 22.0231 133.487 22.2134 133.287 22.3568C132.879 22.6755 132.361 22.8405 131.744 22.8405C130.428 22.8405 129.563 22.1612 129.369 21.0206Z" fill="black"/>
<path d="M92.0474 32.49V25.2917H93.5383L95.8104 31.1843L98.0734 25.2917H99.5643V32.49H98.5286V26.6289L96.2565 32.49H95.3715L93.0892 26.6289V32.49H92.0474Z" fill="black"/>
<path d="M101.01 26.3317V25.1167H102.152V26.3317H101.01ZM101.031 32.4911V27.1851H102.132V32.4911H101.031Z" fill="black"/>
<path d="M108.369 32.49H107.3V31.554C107.042 32.1712 106.354 32.6142 105.531 32.6142C105.199 32.62 104.871 32.5509 104.57 32.4119C104.269 32.2729 104.003 32.0678 103.792 31.8117C103.33 31.277 103.104 30.6191 103.104 29.837C103.104 29.0548 103.33 28.3979 103.792 27.8622C104.003 27.6063 104.269 27.4013 104.57 27.2625C104.871 27.1237 105.199 27.0547 105.531 27.0607C106.354 27.0607 107.012 27.5027 107.268 28.1199V24.9832H108.369V32.49ZM104.626 28.5415C104.347 28.9148 104.203 29.3715 104.218 29.837C104.204 30.3059 104.347 30.7661 104.626 31.1436C104.751 31.3137 104.916 31.451 105.106 31.5441C105.295 31.6372 105.505 31.6832 105.716 31.6783C105.93 31.6832 106.143 31.6373 106.336 31.5444C106.529 31.4514 106.697 31.3141 106.826 31.1436C107.113 30.7685 107.268 30.3096 107.268 29.8375C107.268 29.3654 107.113 28.9064 106.826 28.5313C106.697 28.3607 106.529 28.2232 106.336 28.1303C106.143 28.0373 105.93 27.9915 105.716 27.9967C105.504 27.9934 105.294 28.0412 105.104 28.1361C104.915 28.2309 104.75 28.3699 104.626 28.5415Z" fill="black"/>
<path d="M109.078 27.1841H110.157L111.093 31.0918L112.389 27.1841H113.438L114.722 31.0918L115.668 27.1841H116.747L115.236 32.4901H114.259L112.912 28.3145L111.565 32.4901H110.588L109.078 27.1841Z" fill="black"/>
<path d="M117.768 27.8594C117.998 27.5996 118.282 27.3933 118.6 27.2548C118.918 27.1164 119.262 27.0492 119.609 27.0579C120.4 27.0579 121.007 27.3145 121.442 27.8186C121.877 28.3228 122.09 28.9603 122.09 29.7312V30.0816H118.118C118.17 31.0583 118.746 31.7467 119.661 31.7467C120.309 31.7467 120.751 31.4697 120.978 30.9136H122.006C121.874 31.4095 121.576 31.8452 121.162 32.148C120.726 32.4625 120.199 32.6253 119.661 32.6113C118.86 32.6113 118.221 32.3435 117.748 31.819C117.276 31.2945 117.049 30.6264 117.049 29.8341C117.049 29.0418 117.285 28.3869 117.768 27.8594ZM121.048 29.2689C120.956 28.4358 120.421 27.8706 119.599 27.8706C118.807 27.8706 118.275 28.446 118.149 29.2689H121.048Z" fill="black"/>
<path d="M122.685 30.7933H123.714C123.837 31.4207 124.289 31.8117 125.061 31.8117C125.774 31.8117 126.213 31.4624 126.213 30.9583C126.213 30.5774 125.925 30.3309 125.348 30.2383L124.259 30.0529C123.282 29.889 122.798 29.4256 122.798 28.6648C122.798 27.7085 123.652 27.0608 124.896 27.0608C126.161 27.0608 126.963 27.6983 127.056 28.7269H126.027C125.944 28.2024 125.553 27.8623 124.895 27.8623C124.237 27.8623 123.805 28.12 123.805 28.5752C123.805 28.9143 123.991 29.0589 124.556 29.1516L125.666 29.3359C126.725 29.5111 127.229 29.9949 127.229 30.8687C127.236 31.1148 127.183 31.3588 127.073 31.5793C126.964 31.7998 126.802 31.9902 126.602 32.1336C126.195 32.4523 125.676 32.6173 125.06 32.6173C123.744 32.6143 122.881 31.9329 122.685 30.7933Z" fill="black"/>
<path d="M128.511 30.7934V28.0895H127.576V27.1841H128.511V25.7756H129.612V27.1841H131.031V28.0895H129.612V30.7934C129.612 31.3383 129.879 31.6163 130.403 31.6163C130.619 31.6131 130.834 31.5819 131.042 31.5236V32.429C130.857 32.5115 130.558 32.5522 130.136 32.5522C129.057 32.5522 128.511 31.9656 128.511 30.7934Z" fill="black"/>
<path d="M44.8063 32.6123V19.054H39.541V15.3877H54.3082V19.054H49.0429V32.6123H44.8063Z" fill="black"/>
<path d="M55.9678 15.3877H60.1993V25.5006C60.1993 27.8878 61.3807 29.2688 63.5214 29.2688C65.6622 29.2688 66.8435 27.8909 66.8435 25.5006V15.3877H71.0751V25.5251C71.0751 27.789 70.3866 29.5855 69.0382 30.939C67.6898 32.2925 65.8373 32.9565 63.5214 32.9565C61.2055 32.9565 59.3632 32.2925 58.0097 30.939C56.6562 29.5855 55.9678 27.789 55.9678 25.5251V15.3877Z" fill="black"/>
<path d="M75.0037 31.3819C73.6991 30.3238 72.9363 28.897 72.7632 27.1046H76.8725C77.1923 28.679 78.3248 29.6394 80.1946 29.6394C81.9412 29.6394 83.0238 28.8512 83.0238 27.6453C83.0238 26.7356 82.4087 26.1697 81.1784 25.9476L77.5864 25.2347C74.633 24.6441 73.1329 23.1918 73.1329 20.4115C73.1329 18.8614 73.7439 17.5823 75.0027 16.573C76.2615 15.5638 77.8818 15.0454 79.8504 15.0454C83.8854 15.0454 86.4702 17.1373 86.6412 20.5816H82.5767C82.3557 19.2281 81.3964 18.3675 79.8209 18.3675C78.2219 18.3675 77.2371 18.9786 77.2371 20.0897C77.2371 20.8769 77.7046 21.271 78.7648 21.4676L82.6765 22.2059C85.6534 22.7722 87.1301 24.3956 87.1301 27.1025C87.1301 28.8247 86.4661 30.2271 85.1615 31.3351C83.8579 32.4173 82.185 32.9585 80.1427 32.9585C78.0498 32.9564 76.3277 32.4421 75.0037 31.3819Z" fill="black"/>
</svg>
