<svg width="180" height="48" viewBox="0 0 180 48" fill="none" xmlns="http://www.w3.org/2000/svg">
<path fill-rule="evenodd" clip-rule="evenodd" d="M15.001 9.00439H44.8602V38.995H15.001V9.00439Z" fill="#1A3B73"/>
<path fill-rule="evenodd" clip-rule="evenodd" d="M44.8601 18.4727H38.1191V9.00439H44.8601V18.4727Z" fill="#1A3B73"/>
<path fill-rule="evenodd" clip-rule="evenodd" d="M25.9536 18.1558H32.9581V18.7905C32.1683 18.8965 31.6413 19.055 31.3786 19.3728C31.0625 19.6372 30.904 20.3771 30.904 21.4881V31.3785C30.904 32.965 31.115 34.2363 31.5362 35.1338C32.2734 36.7737 33.7479 37.5669 35.907 37.6203C38.2771 37.6203 39.8566 36.7737 40.6998 35.0812C41.1201 34.1304 41.3836 32.7023 41.3836 30.6912V22.7043C41.3836 21.011 41.1735 20.0067 40.8049 19.5838C40.4363 19.1609 39.7516 18.8431 38.6457 18.7371H38.2771V18.2083L44.8596 18.1584V18.7993C44.0156 18.9429 43.4429 19.2318 43.175 19.6363C42.8064 20.0592 42.6479 21.0644 42.6479 22.7043V30.6912C42.6479 32.8599 42.3319 34.4999 41.6997 35.7169C40.5939 37.8856 38.4347 38.995 35.2748 38.995C32.1675 38.995 30.0083 37.8848 28.85 35.7169C28.2703 34.6049 27.9551 33.0718 27.9551 31.1149V21.4873C27.9551 20.3762 27.7967 19.6889 27.4806 19.3719C27.2179 19.1075 26.6908 18.949 25.9536 18.8431V18.1558Z" fill="white"/>
<path fill-rule="evenodd" clip-rule="evenodd" d="M25.9534 9.00439V9.58664C24.4255 9.69259 23.4256 9.957 23.0045 10.3799C22.5299 10.8028 22.3198 11.702 22.3198 13.1834V25.9833C22.3198 28.1004 22.5833 29.7403 23.1621 30.903C24.2154 33.0184 26.2169 34.077 29.2183 34.1304C32.4833 34.1304 34.6424 33.0184 35.7483 30.8505C36.3804 29.6344 36.6965 27.73 36.6965 25.1918V14.77C36.6965 12.6012 36.433 11.2257 35.9067 10.6443C35.4331 10.1155 34.4323 9.74512 32.9579 9.58664V9.00439H42.1731V9.58664C40.6462 9.74512 39.6454 10.1155 39.1717 10.7503C38.6972 11.2791 38.4345 12.6546 38.4345 14.77V25.1909C38.4345 27.941 38.0659 30.0564 37.1702 31.6429C35.6432 34.499 32.6943 35.927 28.3235 35.927C24.0052 35.927 21.1089 34.499 19.5294 31.6963C18.6871 30.2157 18.2659 28.2046 18.2659 25.7197V13.1834C18.2659 11.7554 18.0549 10.8562 17.5813 10.3799C17.1951 10.0402 16.3213 9.79065 15.001 9.62867V9.00439H25.9534Z" fill="white"/>
<path d="M14 8H45.8608V40H14V8Z" stroke="#1A3B73" stroke-width="0.156725" stroke-miterlimit="2.613"/>
<path fill-rule="evenodd" clip-rule="evenodd" d="M49.6519 38.8352H167.614V39.9472H49.6519V38.8352ZM80.6695 33.0706V35.8224H77.7206V36.3513H94.3081L94.414 33.0714H93.3073C92.5701 35.0808 90.9381 35.8233 87.6731 35.8233H84.5141V33.0714L80.6695 33.0706ZM95.9944 33.0706V36.5098H96.574L97.7315 35.6631C99.206 36.4038 100.575 36.7199 102.26 36.7199C105.473 36.7199 107.737 35.2393 108.264 33.0706H106.789V33.124C106.789 34.9232 104.893 36.1385 102.101 36.1385C99.7313 36.1385 98.0467 35.08 97.0994 33.0706H95.9944ZM117.376 33.0706V35.8224H114.162V36.3513H124.538V35.8224H121.324V33.0706H117.376ZM131.804 33.0706V35.8224H128.909V36.3513H145.919L146.023 33.0714H145.022C144.179 35.0808 142.548 35.8233 139.281 35.8233H135.7V33.0714L131.804 33.0706ZM150.711 33.0706V35.8224H147.761V36.3513H157.503V35.8224H154.608V33.0706H150.711ZM160.084 33.0706L160.137 33.3884C160.296 35.7156 161.56 36.614 165.667 36.614C166.141 36.614 166.72 36.5098 167.298 36.4564V35.8216C166.931 35.9258 166.615 35.9792 166.404 35.9792C164.771 35.9792 164.298 35.5037 164.298 34.3392V33.4418V33.0706H160.084Z" fill="#1A3B73"/>
<path fill-rule="evenodd" clip-rule="evenodd" d="M80.6694 33.0707H84.514V29.4214H80.6694V33.0707ZM98.5221 29.4214C99.2593 29.7909 100.155 30.0562 101.26 30.2681L103.21 30.6375C105.632 31.1147 106.738 31.8554 106.791 33.0707H108.265C108.371 32.7546 108.371 32.3834 108.371 32.0139C108.371 30.9554 108.055 30.1087 107.476 29.4214H98.5221ZM117.376 33.0707H121.324V29.4214H117.376V33.0707ZM131.804 33.0707H135.701V29.4214H131.804V33.0707ZM137.755 29.4214C139.388 29.6333 140.021 30.3206 140.285 31.908H140.968V29.4214H137.755ZM150.711 33.0707H154.608V29.4214H150.711V33.0707ZM157.978 29.4214C159.505 29.7909 159.926 30.5841 160.032 32.0656L160.084 33.0707H164.297C164.191 31.1147 163.086 30.0028 160.716 29.4214H157.978ZM94.4149 33.0707L94.4683 31.5901H93.731C93.6251 32.1715 93.5209 32.6487 93.309 33.0707H94.4149ZM97.1011 33.0707C96.9951 32.8588 96.8892 32.6487 96.8375 32.3834H95.9944V33.0707H97.1011ZM146.023 33.0707L146.076 31.802H145.393C145.287 32.2775 145.181 32.7012 145.023 33.0707H146.023Z" fill="#1A3B73"/>
<path fill-rule="evenodd" clip-rule="evenodd" d="M80.6694 29.4216H84.514V25.7722H80.6694V29.4216ZM96.0986 25.7722V26.0358C96.0986 27.6223 96.8375 28.6808 98.5221 29.4216H107.475C106.633 28.5749 105.211 27.9935 103.262 27.6223L101.102 27.2003C99.3119 26.8824 98.1526 26.5129 97.7315 25.7722H96.0986ZM106.527 25.7722C106.581 25.9298 106.633 26.0883 106.685 26.2476H107.371V25.7722H106.527ZM110.477 25.7722L110.424 26.8824H111.318L111.634 25.7722H110.477ZM117.376 29.4216H121.324V25.7722H117.376V29.4216ZM127.065 25.7722C127.223 26.1417 127.329 26.5129 127.433 26.8824H128.329L128.275 25.7722H127.065ZM131.804 25.7722V29.4216H135.701V29.3156H135.913C136.597 29.3156 137.228 29.369 137.755 29.4216H140.968V26.3536H140.285C139.969 28.363 138.915 28.8927 136.071 28.8927H135.702V25.7722H131.804ZM144.654 25.7722C144.707 25.9298 144.76 26.0883 144.813 26.1942H145.497V25.7722H144.654ZM150.711 25.7722V29.4216H154.608V29.1037C156.082 29.1571 157.136 29.2631 157.979 29.4216H160.717C160.086 29.307 159.454 29.201 158.82 29.1037V28.9461C162.877 28.4689 164.877 27.5163 164.931 25.7722H160.874V25.8256C160.874 27.941 159.507 28.6283 156.188 28.6283H154.608V25.7722H150.711Z" fill="#1A3B73"/>
<path fill-rule="evenodd" clip-rule="evenodd" d="M84.5151 25.772V22.9685H87.5165V22.4396H77.7207V22.9685H80.6696V25.7729L84.5151 25.772ZM97.7325 25.772C97.6283 25.6127 97.5749 25.3482 97.5749 25.0847C97.5749 23.7083 99.2061 22.704 101.524 22.704C103.894 22.704 105.58 23.7083 106.528 25.772H107.371V22.2803H106.897L105.738 23.1795C104.474 22.4396 103.21 22.1752 101.525 22.1752C98.3664 22.1752 96.259 23.6032 96.1005 25.772H97.7325ZM111.636 25.772C112.425 23.6024 113.636 22.9151 116.427 22.9151H117.377V25.772H121.325V22.9159H122.274C125.066 22.9159 126.329 23.7083 127.066 25.7729H128.277L128.067 22.493H110.689L110.479 25.7729L111.636 25.772ZM135.701 25.772V22.9685H139.441C142.442 22.9685 143.706 23.5507 144.653 25.7729H145.496L145.286 22.4405H128.909V22.9685H131.804V25.7729L135.701 25.772ZM154.608 25.772V22.9685H156.872C159.77 22.9685 160.821 23.4973 160.874 25.7729H164.93V25.6669C164.93 23.2863 162.613 22.4405 157.715 22.4405H147.761V22.9685H150.711V25.7729L154.608 25.772ZM80.6696 16.9385V16.9919C80.6696 18.4199 81.7754 19.2132 83.882 19.2132C85.1463 19.2132 85.9886 18.9488 86.4623 18.2614C86.725 17.892 86.8309 17.4682 86.8309 16.9394H86.3564C86.3564 17.5216 86.2513 17.9445 85.8293 18.3149C85.4607 18.6318 84.987 18.7912 84.3548 18.7912C83.1965 18.7912 82.7219 18.2089 82.7219 16.9928V16.9394L80.6696 16.9385ZM89.3061 16.9385V18.208C89.3061 18.525 89.2536 18.6835 88.885 18.6835H88.2528V19.0538H90.9907V18.6835H90.2535C89.9899 18.6835 89.7789 18.525 89.7789 18.2606V16.9385H89.3061ZM93.2567 16.9385L95.0472 19.2132H95.4149V16.9385H93.2567ZM97.8892 16.9385V18.6843H96.8885V19.0547H100.945V18.6843H99.9424V16.9385H97.8892ZM104.052 16.9385L105.053 19.2132H105.421L106.317 16.9385H104.052ZM110.371 16.9385V18.6843H109.37V19.0547H116.479L116.533 16.9385H116.059C115.637 18.1555 114.952 18.6843 113.742 18.6843H112.373V16.9385H110.371ZM118.217 16.9385V18.6843H117.323V19.0547H121.325V18.6843H120.271V16.9385H118.217ZM122.114 16.9385C122.114 17.6258 122.168 18.208 122.641 18.6843C122.905 19.0022 123.485 19.2132 124.168 19.2132C124.484 19.2132 125.011 19.1072 125.591 18.8428L125.432 18.5259C125.222 18.6318 125.064 18.6318 124.905 18.6318C124.431 18.6318 124.378 18.3674 124.378 17.786C124.378 17.4691 124.378 17.2038 124.326 16.9394L122.114 16.9385ZM130.699 16.9385C130.803 17.0978 130.857 17.2554 130.857 17.4673C130.857 18.2606 130.067 18.8953 129.014 18.8953C127.856 18.8953 127.013 18.208 126.592 16.9385H126.118V19.1072H126.592L127.119 18.6843C127.697 19.0547 128.276 19.2132 129.014 19.2132C130.49 19.2132 131.594 18.2614 131.753 16.9385H130.699ZM133.384 16.9385V18.6843H132.383V19.0547H136.438V18.6843H135.437V16.9385H133.384ZM139.598 16.9385V18.6843H138.598V19.0547H142.705V18.6843H141.704V16.9385H139.598ZM147.656 16.9385V18.6843H146.655V19.0547H150.71V18.6843H149.709V16.9385H147.656Z" fill="#1A3B73"/>
<path fill-rule="evenodd" clip-rule="evenodd" d="M80.6694 16.9387H82.7235V14.664H80.6694V16.9387ZM86.4105 14.664V16.4098C86.4105 16.6217 86.4105 16.7802 86.3571 16.9387H86.8316V16.4098V14.6648H86.4105V14.664ZM89.306 16.9387H89.7805V14.664H89.306V16.9387ZM91.5176 14.664L93.2565 16.9387H95.4148V14.664H94.9411V15.881L93.9937 14.664H91.5176ZM97.8891 16.9387H99.9432V14.664H97.8891V16.9387ZM103.051 14.664L104.053 16.9387H106.317L107.211 14.664H106.791L106.054 16.5158L105.264 14.664H103.051ZM110.371 14.664V16.9387H112.372V15.3513H112.635C113.583 15.3513 114.005 15.7742 114.11 16.8319H114.532V14.6631H113.689C113.425 14.875 113.109 14.98 112.635 14.98H112.372V14.6631L110.371 14.664ZM118.217 14.664V16.9387H120.271V15.1937H120.483C121.64 15.1937 122.062 15.564 122.114 16.5683V16.9387H124.327C124.117 15.8276 123.483 15.2987 122.01 15.0877V14.9818C122.641 14.9818 123.221 14.8759 123.641 14.6648H122.114C121.957 14.7708 121.694 14.8242 121.273 14.8242H120.27V14.6648H118.217V14.664ZM126.328 14.664C126.644 15.3513 127.329 15.7216 128.382 15.9861C129.172 16.1979 129.857 16.2505 130.277 16.5683C130.489 16.6743 130.593 16.7802 130.699 16.9387H131.752V16.5683C131.752 15.6691 131.489 15.0877 130.909 14.664H126.328ZM133.383 16.9387H135.438V14.664H133.383V16.9387ZM139.598 16.9387H141.705V14.664H139.598V16.9387ZM147.13 14.664L147.657 15.5106V16.9387H149.711V15.3513L150.131 14.664H149.711L149.552 14.9284L149.341 14.664H147.13ZM116.532 16.9387V16.5683H116.163C116.111 16.6743 116.111 16.8327 116.059 16.9387H116.532Z" fill="#1A3B73"/>
<path fill-rule="evenodd" clip-rule="evenodd" d="M80.6694 14.6637H82.7235V11.9136H80.6694V14.6637ZM86.0935 11.9136C86.3571 11.9661 86.4096 12.1255 86.4096 12.4958V14.6646H86.8308V12.4958C86.8308 12.1255 86.9367 11.967 87.1994 11.9136H86.0935ZM89.0958 11.9136C89.2543 11.9661 89.306 12.0721 89.306 12.2831V14.6637H89.7805V12.4949L91.5176 14.6637H93.9937L91.8337 11.9136H89.0958ZM94.625 11.9136C94.8885 11.9661 94.9411 12.1255 94.9411 12.4424V14.6637H95.4147V12.4424C95.4147 12.1255 95.4682 11.9661 95.6783 11.9136H94.625ZM97.8891 14.6637H99.9432V11.9136H97.8891V14.6637ZM101.84 11.9136L103.051 14.6637H105.263L104.052 11.9136H101.84ZM107.475 11.9136C107.634 11.9661 107.685 12.0195 107.685 12.178C107.685 12.2839 107.633 12.4424 107.527 12.6543L106.79 14.6637H107.21L107.948 12.7594C108.107 12.2831 108.264 12.0186 108.581 11.9136H107.475ZM110.371 14.6637H112.372V11.9136H110.371V14.6637ZM114.162 11.9136C114.952 12.0195 115.373 12.4424 115.849 13.5535H116.216V11.9136H114.162ZM118.217 14.6637H120.271V11.9136H118.217V14.6637ZM121.746 11.9136C122.43 12.0195 122.484 12.3365 122.484 13.4476C122.484 14.0823 122.43 14.4518 122.114 14.6637H123.641C124.327 14.3468 124.642 13.8705 124.642 13.1831C124.642 12.6543 124.378 12.178 123.8 11.9136H121.746ZM127.012 11.9136C126.485 12.3365 126.169 12.9713 126.169 13.7645C126.169 14.0815 126.222 14.3993 126.328 14.6637H130.909C130.435 14.3468 129.856 14.1349 129.013 13.9764C127.855 13.712 127.118 13.606 127.118 12.8653C127.118 12.4424 127.328 12.1246 127.749 11.9136H127.012ZM129.592 11.9136C130.172 12.178 130.593 12.7068 130.803 13.5535H131.225L131.172 11.9136H129.592ZM133.383 14.6637H135.438V11.9136H133.383V14.6637ZM136.914 11.9136L136.808 13.9764H137.124C137.544 12.6543 137.967 12.0195 138.861 11.9136H136.914ZM139.598 14.6637H141.705V11.9136H139.598V14.6637ZM142.495 11.9136C143.339 12.0721 143.812 12.7068 144.18 13.9764H144.496L144.39 11.9136H142.495ZM145.286 11.9136L147.129 14.6637H149.34L147.549 11.9136H145.286ZM150.868 11.9136C151.027 11.9661 151.078 12.0195 151.078 12.1255C151.078 12.178 151.026 12.3365 150.92 12.5484L149.709 14.6637H150.129L151.236 12.7068C151.5 12.2314 151.656 12.0195 152.026 11.9136H150.868ZM114.532 14.6637V13.606H114.11C114.006 14.0815 113.9 14.4518 113.689 14.6637H114.532Z" fill="#1A3B73"/>
<path fill-rule="evenodd" clip-rule="evenodd" d="M82.7239 11.9135H83.7772V11.5431H79.775V11.9135H82.7239ZM87.2007 11.9135H87.937V11.5431H85.4093V11.9135H87.2007ZM91.8341 11.9135L91.5715 11.5431H88.3065V11.9135H91.8341ZM95.6787 11.9135H96.4159V11.5431H93.8357V11.9135H95.6787ZM99.9436 11.9135H100.946V11.5431H96.8896V11.9135H99.9436ZM104.053 11.9135H103.999H104.947V11.5431H101.155V11.9135H104.053ZM108.581 11.9135H109.107V11.5431H106.579V11.9135H108.581ZM112.372 11.9135H116.216V11.5431H109.527V11.9135H112.372ZM120.271 11.9135H123.802C123.328 11.7016 122.642 11.5431 121.799 11.5431H117.324V11.9135H120.271ZM127.75 11.9135C128.036 11.8052 128.339 11.7514 128.645 11.755C129.013 11.755 129.277 11.8075 129.593 11.9135H131.173V11.5431H130.804L130.33 11.9135C129.856 11.5956 129.329 11.3846 128.699 11.3846C128.097 11.3899 127.51 11.574 127.012 11.9135H127.75ZM135.438 11.9135H136.439V11.5431H132.384V11.9135H135.438ZM138.861 11.9135H144.389V11.5431H136.912V11.9135H138.861ZM147.55 11.9135H148.551V11.5431H144.496V11.9135H147.55ZM152.027 11.9135H152.607V11.5431H149.973V11.9135H152.027ZM59.4997 28.5754V12.4957H63.6078V11.5965H49.9158V12.4957H54.023V29.4746C54.023 34.2359 57.5515 36.6673 64.5552 36.6673C71.2961 36.6673 74.5085 34.13 74.5085 28.8932V12.4957H78.6158V11.5965H69.1904V12.4957H73.3502V28.8932C73.3502 33.2299 70.6639 35.4512 65.6093 35.4512C60.6589 35.4512 59.4997 33.2299 59.4997 29.1568V28.5754ZM160.56 13.6059C161.137 13.9229 161.401 14.4517 161.401 15.1924C161.401 16.0382 161.085 16.8849 160.4 17.6782C159.663 18.5248 158.82 18.9477 157.872 18.9477C157.399 18.9477 156.978 18.7892 156.503 18.5248C156.083 18.2604 155.872 17.7316 155.872 17.0443C155.872 16.1976 156.24 15.4043 156.873 14.6111C157.61 13.7653 158.453 13.3424 159.4 13.289C159.821 13.289 160.19 13.3949 160.56 13.6059ZM157.452 18.2604C157.556 18.4723 157.716 18.5782 158.03 18.5782C158.505 18.5782 158.979 17.996 159.399 16.8849C159.715 15.9332 159.926 15.0865 159.926 14.3992C159.926 14.1873 159.873 14.0814 159.821 13.9763C159.769 13.7644 159.61 13.6585 159.347 13.6585C158.716 13.6585 158.242 14.2932 157.82 15.4569C157.504 16.4086 157.346 17.1493 157.346 17.7841C157.346 17.9435 157.399 18.1019 157.452 18.2604ZM160.56 20.958C160.348 20.7461 160.243 20.5351 160.243 20.2707C160.239 20.1881 160.256 20.1058 160.293 20.0317C160.33 19.9577 160.385 19.8943 160.454 19.8478C160.5 19.7794 160.562 19.7239 160.636 19.6868C160.71 19.6497 160.791 19.6322 160.874 19.6359C161.033 19.6359 161.19 19.6893 161.348 19.7944C161.454 19.9092 161.511 20.061 161.507 20.2173C161.507 20.3232 161.507 20.4292 161.401 20.5342C161.348 20.6402 161.297 20.6927 161.297 20.7461C161.297 20.7461 161.348 20.7995 161.401 20.7995C161.401 20.8529 161.454 20.8529 161.507 20.8529C161.823 20.8529 162.087 20.6411 162.244 20.1656C162.402 19.6893 162.718 18.3138 163.245 15.9866L163.772 13.9238H162.825L162.982 13.4483H163.878C163.93 13.1839 164.088 12.7601 164.352 12.2838C164.543 11.795 164.85 11.3597 165.246 11.0151C165.62 10.6748 166.109 10.4863 166.615 10.4863C166.984 10.4863 167.299 10.5922 167.511 10.7507C167.774 10.9092 167.878 11.1211 167.878 11.4389C167.878 11.6499 167.825 11.8084 167.721 11.9143C167.561 12.0203 167.457 12.0728 167.247 12.0728C167.088 12.0728 166.984 12.0194 166.825 11.9143C166.72 11.7989 166.664 11.6474 166.667 11.4915C166.667 11.4389 166.667 11.333 166.772 11.1745C166.825 11.0686 166.825 11.016 166.878 11.016C166.878 10.9626 166.824 10.9626 166.824 10.9101C166.771 10.8567 166.72 10.8567 166.667 10.8567C166.403 10.8567 166.193 11.016 166.034 11.2796C165.823 11.5965 165.666 12.0203 165.506 12.6017L165.296 13.4483H166.456L166.296 13.9238H165.191C164.612 16.7273 164.138 18.5257 163.715 19.4249C163.188 20.6419 162.452 21.2233 161.451 21.2233C161.084 21.2233 160.82 21.1165 160.56 20.958ZM49.4946 8.05225H167.457V9.16333H49.4946V8.05225Z" fill="#1A3B73"/>
</svg>
