<svg width="100" height="48" viewBox="0 0 100 48" fill="none" xmlns="http://www.w3.org/2000/svg">
<path fill-rule="evenodd" clip-rule="evenodd" d="M22.5097 36.4248C22.5097 38.3114 24.0685 39.9995 26.054 39.9995C28.2293 39.9995 29.6292 38.1627 29.6292 36.3456C29.6292 34.4586 28.07 32.7709 26.084 32.7709C23.9097 32.7709 22.5097 34.6083 22.5097 36.4248ZM23.6017 36.1376C23.6017 34.3394 24.5151 33.0891 25.9652 33.0891C27.663 33.0891 28.5368 35.1253 28.5368 36.6343C28.5368 38.4316 27.6234 39.6824 26.1738 39.6824C24.4755 39.6819 23.6017 37.6462 23.6017 36.1376ZM33.5689 36.4644H34.7801C35.6538 36.4644 35.664 36.6831 35.7827 37.3681H35.9816C35.9572 37.0176 35.9438 36.6665 35.9416 36.3152C35.9416 35.958 35.9618 35.4212 35.9816 35.2334H35.7528C35.6239 35.9382 35.5544 36.057 34.7395 36.057H33.5684V33.2373H34.7395C35.8218 33.2373 36.2389 33.5153 36.3384 34.3592L36.5667 34.3196L36.5073 32.9196C35.6234 32.9389 34.7101 32.9389 33.8064 32.9389C33.0813 32.9389 32.3562 32.9196 31.6514 32.9196V33.1779C32.4359 33.2078 32.5952 33.2474 32.5952 34.0618V38.4702C32.5952 39.4333 32.5155 39.5926 31.6514 39.5926V39.8504C32.1578 39.8402 32.6145 39.8306 33.0615 39.8306C33.5182 39.8306 33.9749 39.8407 34.4716 39.8504V39.5926C33.9449 39.5824 33.5679 39.5728 33.5679 38.8771V36.4644H33.5689ZM44.0154 36.057V33.8928C44.0154 33.1982 44.3929 33.188 44.9191 33.1784V32.9201C44.4229 32.9302 43.9662 32.9394 43.509 32.9394C43.062 32.9394 42.6053 32.9298 42.139 32.9201V33.1784C42.6652 33.1885 43.0427 33.1982 43.0427 33.8928V38.8771C43.0427 39.5728 42.6657 39.5824 42.139 39.5926V39.8504C42.6348 39.8402 43.1021 39.8306 43.5785 39.8306C44.0154 39.8306 44.4422 39.8504 44.9186 39.8504V39.5926C44.3929 39.5824 44.0149 39.5728 44.0149 38.8771V36.4644H48.0265V38.8771C48.0265 39.5728 47.6495 39.5824 47.1228 39.5926V39.8504C47.6389 39.8402 48.096 39.8306 48.5624 39.8306C49.0089 39.8306 49.4559 39.8407 49.9029 39.8504V39.5926C49.3768 39.5824 48.9992 39.5728 48.9992 38.8771V33.8928C48.9992 33.1982 49.3768 33.188 49.9029 33.1784V32.9201C49.4559 32.9201 49.019 32.9394 48.5918 32.9394C48.1153 32.9394 47.649 32.9298 47.1228 32.9201V33.1784C47.649 33.1885 48.0265 33.1982 48.0265 33.8928V36.057H44.0154ZM58.3437 32.9196C58.0072 32.9196 57.6789 32.9389 57.3415 32.9389C56.9239 32.9389 56.5068 32.9293 56.0902 32.9196V33.1779C56.9737 33.2078 57.033 33.1779 57.033 34.8062V37.636C57.033 38.321 56.8747 39.5926 55.2257 39.5926C53.6775 39.5926 53.2899 38.4499 53.2899 37.2686V33.8928C53.2899 33.1982 53.6669 33.188 54.1931 33.1784V32.9201C53.6973 32.9302 53.2397 32.9394 52.7835 32.9394C52.3364 32.9394 51.8802 32.9298 51.4125 32.9201V33.1784C51.9396 33.1885 52.3167 33.1982 52.3167 33.8928V37.5177C52.3466 39.2054 53.3294 40 54.9679 40C56.7149 40 57.5597 38.9867 57.5597 37.6365V34.7762C57.5597 33.565 57.5496 33.1779 58.3432 33.1779V32.9196H58.3437ZM65.4709 38.3312L65.2532 38.2916C64.9447 39.2546 64.5479 39.5327 63.3956 39.5327C61.985 39.5327 61.8267 39.2247 61.8267 38.4905V33.8928C61.8267 33.1982 62.2037 33.188 62.7299 33.1784V32.9201C62.2341 32.9302 61.7774 32.9394 61.3203 32.9394C60.8733 32.9394 60.4161 32.9298 59.9502 32.9201V33.1784C60.4764 33.1885 60.8535 33.1982 60.8535 33.8928V38.9273C60.8535 39.4936 60.446 39.622 59.9502 39.593V39.8508C60.8235 39.831 61.6973 39.831 62.5807 39.831C63.4255 39.831 64.2592 39.831 65.103 39.8508L65.4709 38.3312ZM72.6657 38.3312L72.448 38.2916C72.1395 39.2546 71.7427 39.5327 70.5904 39.5327C69.1808 39.5327 69.0224 39.2247 69.0224 38.4905V33.8928C69.0224 33.1982 69.3994 33.188 69.9256 33.1784V32.9201C69.4289 32.9302 68.9722 32.9394 68.5151 32.9394C68.069 32.9394 67.6118 32.9298 67.145 32.9201V33.1784C67.6712 33.1885 68.0482 33.1982 68.0482 33.8928V38.9273C68.0482 39.4936 67.6418 39.622 67.145 39.593V39.8508C68.0193 39.831 68.8921 39.831 69.7765 39.831C70.6203 39.831 71.455 39.831 72.2988 39.8508L72.6657 38.3312ZM28.9833 20.614C28.6459 20.614 28.3181 20.6338 27.9807 20.6338C27.5636 20.6338 27.147 20.6237 26.7299 20.614V20.8718C27.6138 20.9018 27.6732 20.8718 27.6732 22.5006V25.33C27.6732 26.0154 27.5143 27.2865 25.8663 27.2865C24.3171 27.2865 23.93 26.1448 23.93 24.9636V21.5873C23.93 20.8921 24.307 20.882 24.8337 20.8723V20.6145C24.3374 20.6247 23.8803 20.6343 23.4241 20.6343C22.977 20.6343 22.5204 20.6242 22.054 20.6145V20.8723C22.5797 20.8825 22.9572 20.8921 22.9572 21.5873V25.2117C22.9872 26.8998 23.97 27.6944 25.608 27.6944C27.356 27.6944 28.1998 26.6816 28.1998 25.3309V22.4716C28.1998 21.26 28.1897 20.8728 28.9843 20.8728V20.614H28.9833ZM37.4212 21.8952C37.4212 20.922 37.7489 20.8718 38.3548 20.8718V20.614C37.9671 20.614 37.5901 20.6338 37.2025 20.6338C36.7458 20.6338 36.2795 20.6237 35.8223 20.614V20.8718C36.8153 20.882 37.0239 21.16 37.0239 22.0734V26.0261C36.349 25.2913 35.4159 24.3075 34.5715 23.3744C33.4395 22.1236 32.516 21.2194 32.1091 20.614C31.8407 20.614 31.5626 20.6338 31.2942 20.6338C30.9867 20.6338 30.6888 20.6237 30.3809 20.614V20.8718C31.2348 20.8718 31.6017 21.1798 31.6017 22.0338V26.0261C31.6017 27.2865 31.145 27.2865 30.5392 27.2865V27.5448C30.9794 27.5331 31.4197 27.5265 31.86 27.525C32.2969 27.525 32.7439 27.5448 33.1808 27.5448V27.2865C32.1086 27.2865 31.999 27.0089 31.999 25.6384V21.9348L37.1923 27.6346H37.4207L37.4212 21.8952ZM40.7946 26.572C40.7946 27.2667 40.4171 27.2768 39.8904 27.2865V27.5448C40.3871 27.5346 40.8539 27.525 41.3304 27.525C41.7673 27.525 42.1945 27.5448 42.671 27.5448V27.2865C42.1448 27.2764 41.7673 27.2667 41.7673 26.572V21.5873C41.7673 20.8921 42.1443 20.882 42.671 20.8723V20.6145C42.1742 20.6247 41.7176 20.6343 41.2609 20.6343C40.8144 20.6343 40.3577 20.6242 39.8909 20.6145V20.8723C40.4171 20.8825 40.795 20.8921 40.795 21.5873L40.7946 26.572ZM47.5723 27.6939H47.9396L49.7572 23.1364C49.7769 23.0866 50.4518 21.3691 50.5117 21.2595C50.6507 21.0215 50.8395 20.8718 51.1764 20.8718V20.614C50.8689 20.6242 50.5609 20.6338 50.2534 20.6338C49.8658 20.6338 49.469 20.6237 49.0818 20.614V20.8718C49.439 20.8916 49.8363 20.8622 49.8363 21.3285C49.8363 21.6563 49.6278 22.1429 49.5288 22.461C49.3198 23.1064 49.0417 23.7417 48.8037 24.3872L48.0492 26.3529L46.7289 22.9568C46.6193 22.6691 46.0931 21.4675 46.0931 21.1398C46.0931 20.9906 46.2124 20.9109 46.3509 20.9008C46.4904 20.881 46.6295 20.881 46.7782 20.8709V20.6131C46.3615 20.6131 45.9343 20.6329 45.5177 20.6329C45.0504 20.6329 44.5841 20.6227 44.1173 20.6131V20.8709C44.7728 20.8709 44.9317 21.0601 45.1595 21.6553C45.3883 22.3007 45.676 22.9462 45.9242 23.5819L47.5723 27.6939ZM54.5991 20.9317H55.7605C56.7545 20.9317 57.201 21.2097 57.3492 22.1429L57.5481 22.0927V20.6136C56.5846 20.6334 55.6418 20.6334 54.6884 20.6334C54.0227 20.6334 53.3478 20.6334 52.683 20.6136V20.8713C53.4665 20.9013 53.6258 20.9413 53.6258 21.7552V26.1641C53.6258 27.1272 53.5467 27.286 52.683 27.286V27.5443C53.4173 27.5245 54.153 27.5245 54.8863 27.5245C55.8802 27.5245 56.8728 27.5443 57.8658 27.5443C57.9647 27.0282 58.1139 26.5214 58.2732 26.0256L58.0347 25.9855C57.6471 27.0475 57.2107 27.1769 56.2375 27.2266H55.622C54.6386 27.2266 54.5991 26.9486 54.5991 25.8465V24.1588H55.6616C56.4262 24.1588 56.7439 24.1588 56.7439 25.1118H56.9418C56.9519 24.7941 56.9022 24.3273 56.9022 24.0097C56.9022 23.6524 56.923 23.1161 56.9418 22.8979H56.7439C56.7139 23.1262 56.7139 23.7519 55.9102 23.7519H54.5986L54.5991 20.9317ZM62.698 24.2689C63.4125 25.3903 64.0782 26.5523 64.9814 27.5453C65.2628 27.5336 65.5445 27.527 65.8262 27.5255C66.0743 27.5255 66.322 27.5453 66.5701 27.5453V27.287C66.0637 27.287 65.7658 27.0191 65.4482 26.6618C65.021 26.1849 64.545 25.3903 63.6408 24.07C64.4156 23.8417 65.0514 23.216 65.0514 22.3717C65.0514 21.6669 64.6348 20.614 62.7574 20.614C62.1221 20.614 61.775 20.6338 61.427 20.6338C60.9403 20.6338 60.4634 20.6237 59.9174 20.614V20.8718C60.4436 20.882 60.8206 20.8916 60.8206 21.5868V26.6213C60.8206 27.1871 60.4142 27.3164 59.9174 27.2865V27.5448C60.4142 27.5346 60.881 27.525 61.357 27.525C61.7943 27.525 62.2206 27.5448 62.6975 27.5448V27.2865C62.1713 27.2764 61.7943 27.2667 61.7943 26.572V24.2689H62.698ZM64.0188 22.4316C64.0188 23.146 63.5418 23.9503 62.3205 23.9503C62.1516 23.9503 61.9435 23.9305 61.7943 23.9006V20.9911C61.9725 20.9611 62.1414 20.9317 62.39 20.9317C63.5616 20.9317 64.0188 21.5675 64.0188 22.4316ZM68.5136 27.3565C68.99 27.5769 69.5084 27.692 70.0333 27.6939C71.2044 27.6939 72.3669 26.9693 72.3669 25.678C72.3669 23.3946 69.3082 23.9006 69.3082 22.0536C69.3082 21.3285 69.7446 20.7825 70.5001 20.7825C71.2145 20.7825 71.6712 21.19 71.7803 21.8851H72.0087L71.8503 20.614C71.4535 20.5542 71.0461 20.4649 70.6386 20.4649C69.427 20.4649 68.5136 21.1306 68.5136 22.4113C68.5136 24.7545 71.4535 24.209 71.4535 26.0555C71.4535 26.84 70.8578 27.3763 70.0931 27.3763C69.2691 27.3763 68.713 26.6517 68.544 25.9068H68.3157L68.5136 27.3565ZM75.1166 26.572C75.1166 27.2667 74.7395 27.2768 74.2133 27.2865V27.5448C74.7091 27.5346 75.1759 27.525 75.6529 27.525C76.0893 27.525 76.5165 27.5448 76.9935 27.5448V27.2865C76.4663 27.2764 76.0893 27.2667 76.0893 26.572V21.5873C76.0893 20.8921 76.4663 20.882 76.9935 20.8723V20.6145C76.4967 20.6247 76.04 20.6343 75.5829 20.6343C75.1359 20.6343 74.6787 20.6242 74.2129 20.6145V20.8723C74.739 20.8825 75.1161 20.8921 75.1161 21.5873V26.572H75.1166ZM84.8327 20.336H84.6242C84.5846 20.5247 84.3364 20.614 83.9792 20.614H79.4714C79.2223 20.614 78.9548 20.6039 78.8453 20.336H78.6464L78.5368 21.915H78.796C78.964 21.2696 79.0036 21.0215 79.8971 21.0215H81.1981V26.572C81.1981 27.2667 80.8211 27.2768 80.2949 27.2865V27.5448C80.7907 27.5346 81.2575 27.525 81.7345 27.525C82.1709 27.525 82.5981 27.5448 83.0741 27.5448V27.2865C82.5479 27.2764 82.1709 27.2667 82.1709 26.572V21.0215H83.6804C84.4745 21.0215 84.4451 21.3787 84.4745 21.915H84.7434L84.8327 20.336ZM90.3302 24.0097L92.2273 21.4482C92.446 21.1504 92.6348 20.882 93.0514 20.8718V20.614C92.7743 20.614 92.5054 20.6338 92.2375 20.6338C91.8595 20.6338 91.4728 20.6237 91.0958 20.614V20.8718C91.6022 20.8718 91.8001 20.8718 91.8001 21.16C91.8001 21.3888 91.5322 21.7065 91.4125 21.8755L90.1124 23.6524L88.7226 21.6964C88.5339 21.428 88.3944 21.1996 88.3944 21.0804C88.3944 20.8718 88.7912 20.8718 88.9505 20.8718V20.614C88.5431 20.614 88.1462 20.6338 87.7388 20.6338C87.2787 20.6341 86.8186 20.6275 86.3586 20.614V20.8718C86.9442 20.922 86.9939 20.9018 87.2816 21.3087L89.357 24.169V26.572C89.357 27.2667 88.9799 27.2768 88.4537 27.2865V27.5448C88.9206 27.5346 89.3777 27.525 89.8247 27.525C90.2809 27.525 90.7376 27.5351 91.2343 27.5448V27.2865C90.7082 27.2764 90.3302 27.2667 90.3302 26.572V24.0097ZM28.3881 8.03041H28.1796C28.14 8.21916 27.8914 8.30847 27.5341 8.30847H23.0258C22.7777 8.30847 22.5102 8.29833 22.4006 8.03041H22.2018L22.0927 9.60946H22.3509C22.5199 8.96452 22.5595 8.71542 23.453 8.71542H24.754V14.2665C24.754 14.9611 24.377 14.9713 23.8503 14.9809V15.2392C24.3471 15.2291 24.8139 15.2194 25.2899 15.2194C25.7267 15.2194 26.154 15.2392 26.6309 15.2392V14.9809C26.1047 14.9713 25.7267 14.9611 25.7267 14.2665V8.71542H27.2358C28.0304 8.71542 28 9.07314 28.0304 9.60946H28.2983L28.3881 8.03041ZM31.8107 11.4463V9.28168C31.8107 8.58701 32.1878 8.57687 32.7144 8.56722V8.30895C32.2182 8.31909 31.761 8.32923 31.3043 8.32923C30.8573 8.32923 30.4006 8.31957 29.9343 8.30895V8.56722C30.46 8.57736 30.838 8.58701 30.838 9.28168V14.267C30.838 14.9616 30.46 14.9718 29.9343 14.9814V15.2397C30.4306 15.2295 30.8969 15.2199 31.3739 15.2199C31.8107 15.2199 32.2375 15.2397 32.7139 15.2397V14.9814C32.1878 14.9718 31.8103 14.9616 31.8103 14.267V11.8537H35.8218V14.267C35.8218 14.9616 35.4448 14.9718 34.9186 14.9814V15.2397C35.4342 15.2295 35.8918 15.2199 36.3582 15.2199C36.8047 15.2199 37.2517 15.23 37.6983 15.2397V14.9814C37.1726 14.9718 36.795 14.9616 36.795 14.267V9.2812C36.795 8.58653 37.1726 8.57639 37.6983 8.56674V8.30847C37.2517 8.30847 36.8144 8.32875 36.3876 8.32875C35.9116 8.32875 35.4448 8.31909 34.9186 8.30847V8.56674C35.4448 8.57687 35.8218 8.58653 35.8218 9.2812V11.4458L31.8107 11.4463ZM41.3237 8.62611H42.4851C43.4786 8.62611 43.9251 8.90466 44.0743 9.8378L44.2732 9.78759V8.30799C43.3097 8.32826 42.3664 8.32826 41.413 8.32826C40.7477 8.32826 40.0729 8.32826 39.4076 8.30799V8.56625C40.1921 8.59618 40.3509 8.63625 40.3509 9.45016V13.859C40.3509 14.8221 40.2713 14.9809 39.4076 14.9809V15.2392C40.1424 15.2194 40.8771 15.2194 41.6118 15.2194C42.6053 15.2194 43.5978 15.2392 44.5908 15.2392C44.6903 14.7231 44.839 14.2168 44.9978 13.72L44.7588 13.6804C44.3722 14.7429 43.9353 14.8718 42.9621 14.922H42.3466C41.3632 14.922 41.3237 14.6435 41.3237 13.5419V11.8532H42.3857C43.1508 11.8532 43.468 11.8532 43.468 12.8067H43.6669C43.677 12.489 43.6273 12.0227 43.6273 11.705C43.6273 11.3473 43.6476 10.811 43.6669 10.5923H43.468C43.4381 10.8211 43.4381 11.4463 42.6343 11.4463H41.3232L41.3237 8.62611ZM10.2283 8H15.1035C15.6386 8.00013 16.1517 8.21278 16.5301 8.59119C16.9084 8.9696 17.1209 9.48277 17.1209 10.0179V37.972C17.1209 38.5071 16.9084 39.0203 16.5301 39.3987C16.1517 39.7771 15.6386 39.9897 15.1035 39.9899H10.2283C9.69314 39.9899 9.17989 39.7773 8.80147 39.3988C8.42304 39.0204 8.21045 38.5072 8.21045 37.972V10.0183C8.21039 9.75331 8.26253 9.49087 8.36391 9.24599C8.46529 9.00112 8.61391 8.77862 8.8013 8.59119C8.98868 8.40376 9.21115 8.25508 9.456 8.15365C9.70085 8.05221 9.96328 8 10.2283 8Z" fill="#455B9D"/>
<path fill-rule="evenodd" clip-rule="evenodd" d="M12.7373 22.3704C12.3289 22.5929 12.4332 22.9192 12.4332 22.9192C12.4404 23.0979 12.5558 23.2306 12.5558 23.2306C12.3342 22.9781 12.0803 23.095 12.0803 23.095C11.4894 23.4271 12.1344 23.9731 12.1344 23.9731C12.0827 23.7051 12.3651 23.7351 12.3651 23.7351C12.6031 23.78 12.6253 24.0542 12.6253 24.0542C12.6306 24.4297 12.3067 24.3988 12.3067 24.3988C12.047 24.436 11.8225 24.0102 11.8225 24.0102C11.8225 24.4925 11.4938 24.5224 11.4938 24.5224C11.2664 24.5818 11.153 24.3216 11.153 24.3216C11.0101 23.9562 11.3012 23.9214 11.3012 23.9214C11.4527 23.9069 11.5005 24.0759 11.5005 24.0759C11.7511 23.5512 11.3939 23.3943 11.3939 23.3943C11.0694 23.2741 10.9864 23.7278 10.9864 23.7278C10.7788 23.1862 10.356 23.3272 10.356 23.3272C10.9864 24.1806 11.2017 24.9883 11.2017 24.9883H12.7373V22.3704ZM14.2295 25.3687H11.235C11.2389 25.3687 11.291 25.7872 11.291 25.7872H12.7378C14.2029 25.7838 14.1706 25.7872 14.1706 25.7872C14.174 25.7872 14.2295 25.3687 14.2295 25.3687ZM12.7373 26.142H11.209C10.9966 26.142 10.9966 26.3539 10.9966 26.3539C10.9966 26.5664 11.209 26.5673 11.209 26.5673H12.7373V26.142Z" fill="white"/>
<path fill-rule="evenodd" clip-rule="evenodd" d="M12.7356 22.3702C13.144 22.5927 13.0398 22.919 13.0398 22.919C13.032 23.0976 12.9172 23.2304 12.9172 23.2304C13.1387 22.9779 13.3927 23.0948 13.3927 23.0948C13.9835 23.4269 13.3386 23.9729 13.3386 23.9729C13.3902 23.7049 13.1074 23.7349 13.1074 23.7349C12.8698 23.7798 12.8476 24.054 12.8476 24.054C12.8418 24.4295 13.1658 24.3986 13.1658 24.3986C13.425 24.4358 13.6504 24.01 13.6504 24.01C13.6504 24.4923 13.9792 24.5222 13.9792 24.5222C14.2066 24.5816 14.32 24.3214 14.32 24.3214C14.4629 23.956 14.1713 23.9212 14.1713 23.9212C14.0202 23.9067 13.9724 24.0757 13.9724 24.0757C13.7219 23.5509 14.0786 23.3941 14.0786 23.3941C14.4035 23.2739 14.4865 23.7276 14.4865 23.7276C14.6941 23.186 15.117 23.327 15.117 23.327C14.4865 24.1804 14.2712 24.9881 14.2712 24.9881H12.7352L12.7356 22.3702ZM12.739 26.1418H14.2674C14.4793 26.1418 14.4793 26.3537 14.4793 26.3537C14.4793 26.5661 14.2674 26.5671 14.2674 26.5671H12.739V26.1418ZM11.4559 13.1927C11.1242 13.1952 11.1242 12.7197 11.4559 12.7206L13.634 12.7216C13.9657 12.7206 13.9657 13.1952 13.634 13.1927H11.4559ZM11.8155 13.9719C11.4839 13.9743 11.4839 13.5003 11.8155 13.5007H13.2739C13.6055 13.5003 13.6055 13.9743 13.2739 13.9719C13.2744 13.9733 11.8155 13.9733 11.8155 13.9719ZM12.1732 14.7525C11.8416 14.7549 11.8416 14.2799 12.1732 14.2809H12.9162C13.2478 14.2799 13.2478 14.7544 12.9162 14.7525C12.9162 14.7535 12.1732 14.7535 12.1732 14.7525ZM11.3053 12.4122C10.4248 12.4122 10.4016 11.6291 10.4016 11.6291C10.3646 11.2966 10.4364 10.961 10.6062 10.6726C10.776 10.3843 11.0346 10.1588 11.3434 10.0298C10.9765 10.725 11.5351 10.9992 11.5351 10.9992C12.1974 9.54805 13.7084 9.67935 13.7084 9.67935C12.8105 10.2051 13.2483 10.851 13.2483 10.851C14.1684 10.2051 15.0774 10.5937 15.0774 10.5937C14.2838 10.7747 14.3654 11.2782 14.3654 11.2782C14.5266 12.0173 14.1848 12.2142 14.1848 12.2142C13.955 12.4117 13.6427 12.4117 13.6427 12.4117C13.8175 12.22 13.6702 11.913 13.6702 11.913C13.5114 11.6504 13.7846 11.3656 13.7846 11.3656C13.2869 11.3603 12.8921 11.9188 12.8921 11.9188C12.4378 11.5408 12.6077 11.103 12.6077 11.103C12.1312 11.1961 11.9449 11.9077 11.9449 11.9077C11.5071 11.8367 11.2493 11.4587 11.2493 11.4587C10.9659 12.1273 11.3053 12.4122 11.3053 12.4122ZM12.7231 19.3632C13.2082 19.3405 13.3241 18.9287 13.3241 18.9287L13.7084 19.0528C13.8609 19.1715 13.7537 19.3463 13.7537 19.3463C13.6572 19.493 13.4655 19.4988 13.4655 19.4988C13.285 19.4761 13.2401 19.6398 13.2401 19.6398C13.1494 19.8879 12.9973 19.9048 12.9973 19.9048C12.7767 19.9555 12.7236 19.7469 12.7236 19.7469V19.3632H12.7231Z" fill="white"/>
<path fill-rule="evenodd" clip-rule="evenodd" d="M13.3265 18.9298C13.3663 18.8028 13.3658 18.6666 13.3249 18.54C13.284 18.4134 13.2047 18.3027 13.0981 18.223L13.3352 17.8962C13.4954 17.7876 13.6287 17.9445 13.6287 17.9445C13.7383 18.0811 13.6847 18.265 13.6847 18.265C13.6622 18.3085 13.6564 18.3587 13.6682 18.4062C13.68 18.4538 13.7087 18.4954 13.7489 18.5233C13.9569 18.686 13.926 18.8361 13.926 18.8361C13.9063 19.0611 13.691 19.048 13.691 19.048L13.3265 18.9298Z" fill="white"/>
<path fill-rule="evenodd" clip-rule="evenodd" d="M13.1004 18.2215C12.6944 17.9541 12.3584 18.2196 12.3584 18.2196L12.1209 17.8933C12.0673 17.7079 12.2565 17.6292 12.2565 17.6292C12.4207 17.5674 12.579 17.6756 12.579 17.6756C12.7118 17.7996 12.8445 17.6939 12.8445 17.6939C13.0642 17.5462 13.1969 17.622 13.1969 17.622C13.405 17.7103 13.3258 17.9111 13.3258 17.9111L13.1004 18.2215Z" fill="white"/>
<path fill-rule="evenodd" clip-rule="evenodd" d="M12.3572 18.2177C11.9772 18.5214 12.1259 18.923 12.1259 18.923L11.7426 19.0481C11.5495 19.0413 11.5336 18.8371 11.5336 18.8371C11.5244 18.6623 11.6765 18.5446 11.6765 18.5446C11.8363 18.4562 11.7764 18.2979 11.7764 18.2979C11.7035 18.044 11.817 17.9406 11.817 17.9406C11.9652 17.7698 12.1312 17.9073 12.1312 17.9073L12.3572 18.2177Z" fill="white"/>
<path fill-rule="evenodd" clip-rule="evenodd" d="M12.1237 18.9236C12.2951 19.3784 12.7233 19.3615 12.7233 19.3615L12.7238 19.7646C12.6581 19.9456 12.4587 19.8983 12.4587 19.8983C12.2893 19.8519 12.2246 19.6714 12.2246 19.6714C12.1903 19.4923 12.0209 19.5005 12.0209 19.5005C11.7568 19.4908 11.6931 19.3513 11.6931 19.3513C11.5772 19.1578 11.7592 19.0419 11.7592 19.0419L12.1237 18.9236ZM12.4327 18.7368C12.4327 18.6576 12.4641 18.5815 12.5202 18.5255C12.5762 18.4695 12.6522 18.438 12.7315 18.438C12.8107 18.438 12.8867 18.4695 12.9428 18.5255C12.9988 18.5815 13.0303 18.6576 13.0303 18.7368C13.0303 18.8161 12.9988 18.8921 12.9428 18.9481C12.8867 19.0041 12.8107 19.0356 12.7315 19.0356C12.6522 19.0356 12.5762 19.0041 12.5202 18.9481C12.4641 18.8921 12.4327 18.8161 12.4327 18.7368ZM11.3977 19.1689C11.1481 19.333 11.2693 19.5884 11.2693 19.5884C11.401 19.8751 11.7515 19.8022 11.7515 19.8022C11.9977 19.781 12.0175 19.9953 12.0175 19.9953C12.0571 20.3511 12.3699 20.3873 12.3699 20.3873C12.6494 20.4216 12.732 20.1363 12.732 20.1363L12.731 20.6267C12.6127 20.6152 12.466 20.7489 12.466 20.7489C12.1382 21.1211 11.7322 20.8416 11.7322 20.8416C11.4392 20.634 11.6019 20.2898 11.6019 20.2898C11.3475 20.5678 11.0322 20.3381 11.0322 20.3381C10.6402 20.0354 10.8946 19.6115 10.8946 19.6115C10.9806 19.4286 10.9308 19.32 10.9308 19.32L11.3977 19.1689ZM12.732 20.1382C12.8106 20.4259 13.0916 20.3892 13.0916 20.3892C13.4044 20.3525 13.444 19.9972 13.444 19.9972C13.5 19.7564 13.71 19.8041 13.71 19.8041C14.0605 19.8766 14.1923 19.5898 14.1923 19.5898C14.311 19.3349 14.0653 19.1669 14.0653 19.1669L14.5311 19.32C14.4838 19.4295 14.5654 19.6101 14.5654 19.6101C14.8184 20.0368 14.4269 20.3371 14.4269 20.3371C14.1387 20.5514 13.8621 20.2908 13.8621 20.2908C14.0479 20.618 13.7322 20.8469 13.7322 20.8469C13.3228 21.1264 12.998 20.7537 12.998 20.7537C12.8512 20.6152 12.732 20.6287 12.732 20.6287V20.1382Z" fill="white"/>
<path fill-rule="evenodd" clip-rule="evenodd" d="M14.0659 19.1689C14.3643 19.1824 14.4159 18.9048 14.4159 18.9048C14.4777 18.5954 14.1518 18.4481 14.1518 18.4481C13.9404 18.3207 14.051 18.1353 14.051 18.1353C14.1026 18.0547 14.1254 17.9589 14.1155 17.8636C14.1056 17.7684 14.0636 17.6793 13.9964 17.6111C13.7903 17.4194 13.5552 17.6014 13.5552 17.6014L13.8448 17.2051C13.9336 17.2847 14.1311 17.2625 14.1311 17.2625C14.6148 17.1529 14.7794 17.6183 14.7794 17.6183C14.8943 17.9582 14.5607 18.1416 14.5607 18.1416C14.9295 18.0653 15.0493 18.437 15.0493 18.437C15.1883 18.9125 14.734 19.1061 14.734 19.1061C14.5569 19.2031 14.5327 19.3209 14.5327 19.3209L14.0659 19.1689Z" fill="white"/>
<path fill-rule="evenodd" clip-rule="evenodd" d="M13.5564 17.6009C13.6616 17.321 13.4135 17.1867 13.4135 17.1867C13.1388 17.0318 12.8975 17.2963 12.8975 17.2963C12.7111 17.458 12.5687 17.2963 12.5687 17.2963C12.3278 17.0318 12.0531 17.1863 12.0531 17.1863C11.8074 17.3229 11.9078 17.6029 11.9078 17.6029L11.6206 17.2051C11.7229 17.1452 11.763 16.9502 11.763 16.9502C11.8094 16.4564 12.3022 16.4438 12.3022 16.4438C12.6609 16.4395 12.7324 16.8136 12.7324 16.8136C12.7739 16.4395 13.1644 16.4404 13.1644 16.4404C13.6597 16.4549 13.7032 16.9468 13.7032 16.9468C13.7408 17.1452 13.8451 17.2046 13.8451 17.2046L13.5564 17.6009Z" fill="white"/>
<path fill-rule="evenodd" clip-rule="evenodd" d="M11.9072 17.6009C11.674 17.4141 11.4688 17.6091 11.4688 17.6091C11.2371 17.8225 11.4143 18.1334 11.4143 18.1334C11.4294 18.1603 11.4387 18.19 11.4418 18.2207C11.4448 18.2514 11.4415 18.2824 11.4319 18.3117C11.4224 18.3411 11.4069 18.3681 11.3864 18.3912C11.366 18.4142 11.3409 18.4328 11.3129 18.4457C10.9866 18.5934 11.0489 18.9024 11.0489 18.9024C11.1029 19.1785 11.3993 19.1698 11.3993 19.1698L10.933 19.32C10.9079 19.2036 10.7346 19.1051 10.7346 19.1051C10.2789 18.9087 10.4194 18.4361 10.4194 18.4361C10.526 18.0933 10.9035 18.1411 10.9035 18.1411C10.5608 17.9857 10.682 17.6149 10.682 17.6149C10.849 17.1486 11.3308 17.2591 11.3308 17.2591C11.5306 17.2847 11.6195 17.2036 11.6195 17.2036L11.9072 17.6009ZM11.6069 34.5162C11.5258 34.1348 11.2651 34.1034 11.1628 34.1059V34.2405C11.1816 34.2394 11.2004 34.242 11.2181 34.2484C11.2359 34.2547 11.2521 34.2646 11.2659 34.2774C11.2797 34.2902 11.2907 34.3057 11.2983 34.323C11.3059 34.3402 11.3099 34.3588 11.31 34.3776C11.3076 34.4122 11.2924 34.4446 11.2672 34.4684C11.2421 34.4923 11.2089 34.5058 11.1742 34.5062C11.1396 34.5067 11.106 34.4942 11.0802 34.4711C11.0544 34.448 11.0382 34.416 11.0349 34.3815C11.0346 34.346 11.0477 34.3118 11.0716 34.2856C11.0955 34.2593 11.1284 34.2431 11.1637 34.2401C11.1652 34.2415 11.1628 34.1059 11.1628 34.1059C10.8229 34.1001 10.8355 34.3786 10.8355 34.3786C10.7539 34.4472 10.5936 34.5056 10.5936 34.5056C10.5386 34.5505 10.5338 34.6364 10.5338 34.6364C10.5313 34.6564 10.5323 34.6766 10.5367 34.6962C10.8451 34.5678 10.9142 34.6335 10.9142 34.6335L10.9692 34.6769C11.046 34.7769 11.0653 35.0018 11.0653 35.0018C11.0049 35.4334 10.6385 35.4426 10.6989 36.06C10.7394 37.0646 12.0969 37.3224 12.0969 37.3224C12.1736 37.4754 12.0003 37.8114 12.0003 37.8114C11.9801 37.8621 11.9376 37.8626 11.7662 37.8355C11.7183 37.8272 11.6708 37.8167 11.6238 37.8041C11.3448 37.7076 11.4452 38.0074 11.4452 38.0074C11.4442 38.0059 12.4647 38.0074 12.4647 38.0074C12.541 37.7327 12.3547 37.8157 12.3547 37.8157C12.1712 37.9108 12.1857 37.809 12.1857 37.809C12.2154 37.6315 12.2824 37.4624 12.3822 37.3127C10.0119 35.8852 11.5847 35.4532 11.5847 35.4532C11.5847 35.4532 10.5067 35.9876 12.9166 37.2982C13.5181 37.6646 13.5374 37.6786 13.7348 37.7766C13.8743 37.8664 13.9028 37.8133 13.9028 37.8133C13.927 37.766 13.8594 37.7028 13.8594 37.7028L13.297 37.0047C14.0365 37.4773 14.3653 37.7221 14.3653 37.7221C14.7119 37.8703 15.2265 37.3986 14.5565 37.1124C11.7595 35.598 11.6069 34.5162 11.6069 34.5162ZM12.724 28.1507C12.414 28.1295 12.2475 28.6243 12.2475 28.6243C12.1152 28.9449 12.2026 29.3682 12.2026 29.3682C12.2953 29.8626 12.3692 30.157 12.3692 30.157C12.4985 30.6253 12.5198 31.1153 12.5198 31.1153H12.2238C12.1761 30.3477 11.8879 29.9842 11.8879 29.9842C11.5306 29.4691 11.0411 29.6033 11.0411 29.6033C10.4218 29.7438 10.4377 30.3554 10.4377 30.3554C10.4271 30.8869 10.7496 31.067 10.7496 31.067C11.0324 31.2442 11.3322 31.1891 11.3322 31.1891C11.2342 31.0882 11.1787 31.0009 11.1787 31.0009C11.0648 30.7493 11.2815 30.6354 11.2815 30.6354C11.493 30.522 11.6755 30.7098 11.6755 30.7098C11.8425 30.8734 11.8874 31.1153 11.8874 31.1153H11.66C11.4563 31.1148 11.4587 31.3542 11.4587 31.3542C11.4563 31.5937 11.66 31.5946 11.66 31.5946H11.8821C11.8555 31.8312 11.6359 31.8133 11.6359 31.8133C11.4186 31.8104 11.2738 31.5198 11.2738 31.5198C11.1203 31.6888 11.172 31.9045 11.1715 31.906C11.2487 32.2927 11.6412 32.2811 11.6412 32.2811C12.2074 32.2845 12.2316 31.5946 12.2316 31.5946H12.5198C12.4594 32.3636 12.0935 32.4959 12.0935 32.4959C12.2499 32.885 12.7235 32.8609 12.7235 32.8609L12.724 28.1507Z" fill="white"/>
<path fill-rule="evenodd" clip-rule="evenodd" d="M12.7241 28.1506C13.034 28.1293 13.2006 28.6241 13.2006 28.6241C13.3328 28.9447 13.2455 29.368 13.2455 29.368C13.1533 29.8624 13.0789 30.1568 13.0789 30.1568C12.9495 30.6251 12.9283 31.1151 12.9283 31.1151H13.2247C13.2725 30.3475 13.5602 29.984 13.5602 29.984C13.9174 29.4689 14.4069 29.6031 14.4069 29.6031C15.0263 29.7436 15.0104 30.3553 15.0104 30.3553C15.0205 30.8867 14.6976 31.0668 14.6976 31.0668C14.4147 31.244 14.1154 31.1889 14.1154 31.1889C14.2134 31.0881 14.2689 31.0007 14.2689 31.0007C14.3823 30.7492 14.1656 30.6352 14.1656 30.6352C13.9541 30.5218 13.7712 30.7096 13.7712 30.7096C13.6046 30.8732 13.5597 31.1151 13.5597 31.1151H13.7871C13.9913 31.1146 13.9884 31.354 13.9884 31.354C13.9913 31.5935 13.7871 31.5944 13.7871 31.5944H13.565C13.5916 31.831 13.8108 31.8131 13.8108 31.8131C14.028 31.8102 14.1733 31.5196 14.1733 31.5196C14.3268 31.6886 14.2752 31.9044 14.2756 31.9058C14.1984 32.2925 13.8054 32.2809 13.8054 32.2809C13.2392 32.2843 13.2155 31.5944 13.2155 31.5944H12.9269C12.9877 32.3635 13.3526 32.4957 13.3526 32.4957C13.1962 32.8848 12.7227 32.8607 12.7227 32.8607V28.1506H12.7241Z" fill="white"/>
</svg>
