<svg width="99" height="48" viewBox="0 0 99 48" fill="none" xmlns="http://www.w3.org/2000/svg">
<path d="M18.9985 39.2352C2.47441 32.7979 7.62756 10.8374 7.62756 10.8374C10.6113 9.26763 17.3744 8.71289 18.9985 8.71289C20.6225 8.71289 27.3856 9.27707 30.3694 10.8374C30.367 10.8374 35.5154 32.7955 18.9985 39.2352Z" fill="white"/>
<path d="M31.0563 10.6769L30.9831 10.3629L30.6974 10.2119C27.5413 8.55946 20.5847 8 18.9984 8C17.4121 8 10.4531 8.55474 7.29703 10.2142L7.0114 10.3606L6.93822 10.6745C6.12317 14.634 5.94705 18.6984 6.41653 22.7135C6.88865 26.4692 7.96979 29.7504 9.65288 32.4603C11.7774 35.8713 14.8296 38.3736 18.7435 39.8985L19.0008 40L19.2581 39.8985C23.1719 38.3736 26.2289 35.8713 28.3463 32.4603C30.0294 29.7504 31.1176 26.4715 31.5803 22.7135C32.0493 18.699 31.8724 14.6354 31.0563 10.6769ZM18.9961 39.2399C2.472 32.8026 7.62515 10.8421 7.62515 10.8421C10.6089 9.27235 17.372 8.71762 18.9961 8.71762C20.6201 8.71762 27.3832 9.27943 30.367 10.8421C30.367 10.8374 35.513 32.7979 18.9961 39.2352V39.2399Z" fill="#005596"/>
<path d="M8.6499 27.0192C9.37148 29.5117 10.6128 31.8231 12.2923 33.8012L10.9255 26.2898C9.92225 26.5731 9.13382 26.8469 8.6499 27.0263V27.0192Z" fill="#005596"/>
<path d="M15.6319 21.0494L17.8414 9.58643C15.5536 9.74489 13.2806 10.0707 11.0405 10.5613L12.8889 21.4672C13.8166 21.2902 14.7348 21.1485 15.62 21.0494H15.6319ZM15.037 14.8576C15.037 15.1432 15.096 15.384 15.1668 15.4147C15.0271 15.5091 14.8923 15.6108 14.7632 15.7192C14.6735 15.8089 14.2769 16.2881 14.2769 16.2881C14.2769 16.2881 13.8803 15.816 13.7906 15.7192C13.6609 15.6097 13.5253 15.5073 13.3846 15.4123C13.4554 15.3816 13.5144 15.1432 13.5144 14.8552C13.5144 14.5082 13.3138 14.1966 13.0187 14.1966C12.5914 14.1966 12.5324 14.4893 12.5324 14.4893C12.5324 14.4893 12.1382 14.1187 12.1382 13.7599C12.1382 12.9455 12.5773 13.0022 12.7661 13.0022C13.2028 13.0022 13.7977 13.682 13.7977 13.682C13.7316 13.5333 13.6183 13.2689 13.5852 13.1863C13.5711 13.1533 13.5545 13.1108 13.5357 13.0659C13.4376 12.8266 13.4301 12.5597 13.5144 12.3153C13.6159 12.0013 13.8331 11.8667 14.0101 11.6472C14.1872 11.4277 14.2745 11.338 14.2745 11.338C14.2745 11.338 14.3477 11.4135 14.5365 11.6472C14.7254 11.8809 14.9308 12.0013 15.0323 12.3153C15.121 12.56 15.1168 12.8288 15.0205 13.0706C15.0039 13.1179 14.9851 13.158 14.9709 13.191C14.9378 13.2736 14.8245 13.538 14.7584 13.6868C14.7584 13.6868 15.3533 13.0069 15.79 13.0069C15.9789 13.0069 16.4179 12.9526 16.4179 13.7646C16.4179 14.1235 16.0237 14.4941 16.0237 14.4941C16.0237 14.4941 15.9671 14.2014 15.5374 14.2014C15.2424 14.199 15.037 14.5082 15.037 14.8576Z" fill="#005596"/>
<path d="M10.427 23.3792C10.8378 23.2706 11.2533 23.1691 11.6569 23.0771L11.7631 23.0534L12.2919 22.9378H12.3179L12.4524 22.9095L13.111 22.7773H13.1417C13.8971 22.6333 14.643 22.5152 15.3607 22.4255L15.3795 22.3264L15.5566 21.4058C14.7044 21.5049 13.8192 21.6418 12.9245 21.8118C12.0299 21.9817 11.1093 22.1942 10.2193 22.4303C9.38131 22.6545 8.56691 22.9024 7.81153 23.155H7.79736C7.82569 23.3485 7.87526 23.7026 7.9508 24.1157C8.71563 23.8608 9.55835 23.6105 10.3893 23.391L10.427 23.3792Z" fill="#005596"/>
<path d="M13.5972 25.6547L14.133 28.8603L14.7822 25.4517C14.4021 25.5083 14.015 25.5744 13.6019 25.6547H13.5972Z" fill="#005596"/>
<path d="M11.2608 24.5618H11.2891L11.9028 24.4013H11.9453C12.1625 24.3493 12.382 24.2974 12.5945 24.2502H12.6346C12.8707 24.1959 13.1067 24.1487 13.3239 24.1038C13.9282 23.9811 14.5231 23.8678 15.092 23.7969H15.1061L15.2974 22.7937C14.6033 22.8834 13.881 22.9991 13.1728 23.1383C12.9368 23.1808 12.7125 23.228 12.4647 23.28H12.4245L11.7825 23.4216H11.7447C11.3174 23.5208 10.8902 23.6246 10.4771 23.7356C9.68626 23.9433 8.88838 24.1817 8.03857 24.4674C8.07162 24.6397 8.10703 24.8309 8.14716 25.0056L8.17785 25.1401C8.20381 25.2581 8.23214 25.3762 8.26047 25.4966C9.00641 25.2275 9.83497 24.9654 10.6588 24.7317L11.2608 24.5618Z" fill="#005596"/>
<path d="M12.7211 24.557L12.6432 24.5735C11.9964 24.7199 11.3449 24.8827 10.7075 25.0645C9.88367 25.3006 9.08343 25.5531 8.32568 25.8246C8.3965 26.1126 8.47519 26.3998 8.56174 26.6862L8.58771 26.6721C10.6192 25.9342 12.7208 25.4058 14.8598 25.0952L15.0368 24.125C14.4844 24.2076 13.9132 24.3068 13.3372 24.4248L12.7211 24.557Z" fill="#005596"/>
<path d="M10.1649 22.0903L8.24343 11.522H8.22927C7.4717 15.2348 7.31232 19.0448 7.75715 22.8079C8.52198 22.5482 9.3293 22.3051 10.1555 22.0856L10.1649 22.0903Z" fill="#005596"/>
<path d="M19.6403 20.8607L18.9982 17.6479L18.3608 20.8607C18.5662 20.8607 18.7787 20.8607 18.9888 20.8607C19.1988 20.8607 19.4207 20.8607 19.6403 20.8607Z" fill="#005596"/>
<path d="M19.9234 22.1965C19.8927 22.0502 19.7463 21.3538 19.7109 21.2051C19.489 21.2051 19.253 21.2051 19.0027 21.2051C18.7525 21.2051 18.5306 21.2051 18.2946 21.2051C18.2615 21.3538 18.1152 22.0502 18.0845 22.1965C18.4173 22.1965 18.7195 22.18 19.0075 22.18C19.2954 22.18 19.5882 22.1847 19.9234 22.1965Z" fill="#005596"/>
<path d="M19.0029 23.4808C19.3546 23.4808 19.7299 23.4808 20.1832 23.5115L19.9943 22.5389H19.9707C19.6001 22.5129 19.2862 22.5129 19.0029 22.5129C18.7196 22.5129 18.4009 22.5129 18.0303 22.5342H18.0114L17.8179 23.5091C18.2805 23.4902 18.6559 23.4808 19.0029 23.4808Z" fill="#005596"/>
<path d="M20.4433 24.8308L20.2497 23.8535H20.2308C19.7587 23.8299 19.3669 23.8181 18.9986 23.8181C18.6304 23.8181 18.2314 23.8181 17.7546 23.8535L17.561 24.8284C18.0827 24.8001 18.5501 24.7883 18.9892 24.7883C19.4283 24.7883 19.9216 24.8048 20.4433 24.8308Z" fill="#005596"/>
<path d="M20.5017 25.173C19.9682 25.1423 19.4772 25.1282 19.0028 25.1282C18.5283 25.1282 18.0396 25.1423 17.5038 25.173L15.2329 36.4401C16.4075 37.255 17.6755 37.9263 19.0098 38.4395C20.3444 37.9249 21.6125 37.2521 22.7868 36.4353L20.5088 25.173H20.5017ZM18.1931 35.3235C17.7894 35.3235 16.7767 34.9317 16.7012 33.3595C16.6422 32.2099 16.9774 31.9054 16.9774 31.9054L17.5958 33.0338C17.5958 34.6531 18.7643 34.6862 18.7643 34.6862C18.7756 34.7672 18.7692 34.8498 18.7455 34.9281C18.7218 35.0064 18.6814 35.0787 18.6271 35.14C18.5729 35.2012 18.5059 35.25 18.431 35.2829C18.3561 35.3158 18.2749 35.3321 18.1931 35.3306V35.3235ZM19.1373 35.7815H18.8399V34.1078C18.6864 34.0417 18.3442 33.8718 18.3536 33.2415C18.3697 32.7018 18.3069 32.1626 18.1671 31.641C18.068 31.2869 17.4589 30.9139 17.4589 30.9139C18.068 30.2365 18.6015 31.15 18.5778 31.0414C18.5666 30.7786 18.6167 30.5167 18.7242 30.2766C18.7957 30.1285 18.8827 29.9884 18.9839 29.8588C19.0859 29.9883 19.1737 30.1284 19.2459 30.2766C19.3535 30.5167 19.4037 30.7786 19.3922 31.0414C19.3686 31.1547 19.9021 30.2365 20.5112 30.9139C20.5112 30.9139 19.9116 31.2869 19.803 31.641C19.6635 32.1626 19.6007 32.7018 19.6165 33.2415C19.6165 33.9142 19.2341 34.0606 19.1019 34.1196L19.1373 35.7815ZM21.2902 33.3713C21.2099 34.9435 20.1996 35.3353 19.7959 35.3353C19.7151 35.3366 19.6349 35.3206 19.5608 35.2882C19.4867 35.2558 19.4205 35.2079 19.3665 35.1477C19.3126 35.0875 19.2722 35.0163 19.2481 34.9392C19.224 34.862 19.2168 34.7805 19.227 34.7003C19.227 34.7003 20.3955 34.6673 20.3955 33.0479L21.014 31.9196C21.014 31.9196 21.3492 32.2194 21.2902 33.3713Z" fill="#005596"/>
<path d="M27.5483 23.7308C27.1305 23.6198 26.7056 23.516 26.2878 23.4168L26.2335 23.405L25.6504 23.2752L25.5324 23.2492L24.862 23.1147C24.1373 22.9754 23.415 22.8597 22.7162 22.77H22.6997L22.8933 23.7733H22.9287C23.4929 23.8559 24.0594 23.9527 24.659 24.0731H24.6944C25.5843 24.2525 26.4884 24.472 27.3831 24.7246C28.1833 24.9606 28.9741 25.1967 29.7295 25.4729L29.772 25.4894C29.8523 25.1416 29.9254 24.7946 29.9915 24.4484L29.9514 24.4366C29.1771 24.1911 28.3675 23.9503 27.5483 23.7308Z" fill="#005596"/>
<path d="M27.3121 25.0716L26.7007 24.904H26.6889L26.0445 24.7387C25.5724 24.6254 25.1121 24.5216 24.6447 24.4248C24.0805 24.3115 23.521 24.2123 22.9805 24.1321H22.9663L23.1693 25.1094C23.5588 25.166 23.9648 25.2368 24.4369 25.3265H24.4794L24.6872 25.369L24.8666 25.4044L24.9822 25.428C25.1971 25.4729 25.419 25.5225 25.6621 25.5768L25.8439 25.6192C26.0941 25.6783 26.316 25.7326 26.5143 25.7845L26.5874 25.8034L27.0596 25.9332L27.1752 25.9662C27.9542 26.1858 28.7025 26.4384 29.4036 26.6862L29.4532 26.7051C29.5366 26.4155 29.6153 26.1252 29.6892 25.8341L29.6373 25.8152C28.8866 25.5437 28.1053 25.2958 27.3121 25.0716Z" fill="#005596"/>
<path d="M23.2402 25.4563L23.8894 28.8603L24.4229 25.6617C24.0074 25.5814 23.625 25.5153 23.2402 25.4563Z" fill="#005596"/>
<path d="M27.0925 26.2898L25.7305 33.787C27.4013 31.8142 28.6376 29.5114 29.3587 27.0287C28.6387 26.7619 27.8762 26.5259 27.0925 26.2898Z" fill="#005596"/>
<path d="M30.2462 22.8289C30.6931 19.0611 30.5337 15.2462 29.7741 11.5288L27.855 22.1042C28.6788 22.3261 29.4814 22.5692 30.2462 22.8289Z" fill="#005596"/>
<path d="M25.1307 21.4767L26.9814 10.5637C24.7406 10.0722 22.4668 9.74557 20.1782 9.58643L22.3901 21.0541C23.2847 21.1556 24.2054 21.2996 25.1307 21.4767ZM22.1753 14.2651L22.5742 14.029L21.5898 13.4625L21.7527 13.4058L21.3632 12.6977L22.1682 12.6835L22.1351 12.5135L23.1384 13.0919V11.9352L23.2682 12.0485L23.6648 11.3592L24.0614 12.0485L24.1912 11.9352V13.0919L25.1874 12.5206L25.1543 12.6906L25.9593 12.7047L25.5698 13.4129L25.7327 13.4696L24.7483 14.0361L25.1472 14.2722L24.9844 14.3288L25.3739 15.037L24.5689 15.0535L24.6019 15.2235L23.8418 14.7844V16.2739H23.4807V14.7726L22.7206 15.2117L22.7536 15.0417L21.9487 15.0252L22.3382 14.317L22.1753 14.2651Z" fill="#005596"/>
<path d="M27.7838 22.4349L27.1937 22.2767H27.1323C26.4524 22.1068 25.7631 21.9533 25.0809 21.8211C24.1863 21.6394 23.2987 21.5025 22.4536 21.4033C22.4749 21.5544 22.6023 22.2673 22.6283 22.4184C23.3554 22.5104 24.106 22.6285 24.8661 22.7725H24.9015C25.1116 22.8126 25.3312 22.8574 25.5672 22.907L25.69 22.933L26.3037 23.0699H26.3226L26.9387 23.2162L27.104 23.2587L27.5548 23.3744H27.5737H27.6115H27.6327C28.4566 23.5939 29.2568 23.8324 30.0122 24.0826H30.0405C30.0972 23.7615 30.1467 23.4429 30.1892 23.1383H30.1585C29.4055 22.8999 28.6006 22.6568 27.7838 22.4349Z" fill="#005596"/>
<path d="M19.6383 20.8604C19.4188 20.8604 19.2064 20.8604 18.9868 20.8604C18.7673 20.8604 18.5643 20.8604 18.3589 20.8604L18.2881 21.2003C18.5123 21.2003 18.7602 21.2003 18.9963 21.2003C19.2323 21.2003 19.4684 21.2003 19.7044 21.2003C19.7044 21.2003 19.6407 20.8604 19.6383 20.8604Z" fill="#FFCF01"/>
<path d="M15.6178 21.0493C14.7326 21.1485 13.8143 21.2854 12.8866 21.4671C11.9778 21.6418 11.0619 21.8519 10.1625 22.0903C9.33631 22.3099 8.52899 22.5624 7.76416 22.8127C7.76416 22.8127 7.76416 22.8316 7.76416 22.8434C7.77596 22.9354 7.78777 23.0275 7.79957 23.1195V23.1479H7.81373C8.57384 22.8906 9.38352 22.6451 10.2215 22.4232C11.1138 22.1871 12.0226 21.977 12.9267 21.8047C13.8308 21.6324 14.7066 21.4978 15.5588 21.3987L15.6272 21.0493H15.6178Z" fill="#FFCF01"/>
<path d="M7.76904 22.8433L7.80681 23.1171C7.79029 23.0274 7.78085 22.9353 7.76904 22.8433Z" fill="#FFCF01"/>
<path d="M27.8553 22.1045C26.9559 21.8684 26.04 21.6513 25.1335 21.4766C24.2082 21.2972 23.2876 21.1555 22.4023 21.0564V21.0871L22.4566 21.3751C22.4554 21.3853 22.4554 21.3956 22.4566 21.4058C23.3041 21.5049 24.1893 21.6418 25.0816 21.8165C25.7638 21.9487 26.4531 22.1021 27.1329 22.2721L27.1943 22.2886L27.7774 22.4397C28.6012 22.6616 29.4062 22.9118 30.1686 23.162H30.1993C30.1993 23.1172 30.2159 23.07 30.2206 23.0251C30.2253 22.9803 30.2347 22.9095 30.2418 22.8528V22.8245C29.4817 22.5695 28.6791 22.3264 27.8553 22.1045Z" fill="#FFCF01"/>
<path d="M14.8508 25.0955C12.7118 25.4061 10.6102 25.9344 8.5787 26.6723L8.55273 26.6865L8.65188 27.0193C9.12399 26.8399 9.92187 26.5661 10.9275 26.2828C11.7985 26.0468 12.6979 25.8272 13.5973 25.6573C14.0128 25.5794 14.4022 25.5133 14.7776 25.4543L14.8555 25.0978L14.8508 25.0955Z" fill="#FFCF01"/>
<path d="M29.4084 26.6841C28.7003 26.4268 27.9567 26.1837 27.1801 25.9641L27.0644 25.9311L26.5923 25.8013L26.5191 25.7824C26.3184 25.7305 26.0989 25.6762 25.8487 25.6171L25.6598 25.5817C25.4238 25.5251 25.1877 25.4779 24.98 25.433L24.8643 25.4094L24.6849 25.374L24.4796 25.3268H24.4512C23.9791 25.2371 23.5731 25.1663 23.1836 25.1096V25.1403L23.2402 25.433V25.4637C23.625 25.5227 24.0122 25.5888 24.4205 25.6667C25.3176 25.839 26.2169 26.0515 27.088 26.297C27.8717 26.5189 28.6342 26.7691 29.3541 27.0335V27.0052C29.3825 26.9155 29.4084 26.8258 29.4344 26.7337V26.7054L29.4084 26.6841Z" fill="#FFCF01"/>
<path d="M29.3706 26.9978L29.4509 26.7263C29.4249 26.816 29.3966 26.9081 29.3706 26.9978Z" fill="#FFCF01"/>
<path d="M20.4426 24.8309C19.9209 24.8026 19.4441 24.7908 18.9885 24.7908C18.5329 24.7908 18.082 24.8049 17.5603 24.8309L17.4966 25.1732C18.0324 25.1425 18.5234 25.1283 18.9955 25.1283C19.4677 25.1283 19.961 25.1425 20.4945 25.1732L20.4426 24.8309Z" fill="#FFCF01"/>
<path d="M20.4473 24.8616L20.4992 25.1236L20.4496 24.8616H20.4473Z" fill="#FFCF01"/>
<path d="M19.9238 22.1965C19.5886 22.1965 19.2888 22.1799 19.0032 22.1799C18.7175 22.1799 18.413 22.1799 18.0802 22.1965L18.0117 22.5387H18.0306C18.4012 22.5246 18.7105 22.5175 19.0032 22.5175C19.2959 22.5175 19.6004 22.5175 19.971 22.5364H19.9946L19.9238 22.1965Z" fill="#FFCF01"/>
<path d="M15.3581 22.416C14.6499 22.5057 13.8945 22.6237 13.1392 22.7677H13.1085L12.4404 22.9023L12.3059 22.9306H12.2799L11.7511 23.0463L11.6449 23.0699C11.2389 23.162 10.8258 23.2635 10.415 23.3721H10.3867C9.5558 23.5916 8.71071 23.8442 7.94824 24.0967V24.1274L7.99781 24.4131V24.4485C8.84762 24.1652 9.65022 23.9244 10.4363 23.7167C10.8494 23.6081 11.2767 23.5019 11.7039 23.4027H11.7417L12.3838 23.2611H12.4239C12.66 23.2092 12.896 23.162 13.1321 23.1195C13.8544 22.9826 14.572 22.8645 15.2566 22.7748V22.7441L15.3132 22.4514V22.4207L15.3581 22.416Z" fill="#FFCF01"/>
<path d="M15.3628 22.4468L15.3062 22.7395L15.3628 22.4468Z" fill="#FFCF01"/>
<path d="M7.95508 24.1418C7.9716 24.2338 7.98577 24.3235 8.00701 24.425L7.95508 24.1394V24.1418Z" fill="#FFCF01"/>
<path d="M30.0201 24.1156C29.2647 23.863 28.4645 23.6246 27.6407 23.4075H27.6194H27.5816H27.5628L27.1119 23.2918L26.9466 23.2493L26.3305 23.1029H26.3117L25.6979 22.966L25.5752 22.9401C25.3391 22.8905 25.1196 22.8456 24.9095 22.8055H24.8741C24.1163 22.6615 23.3633 22.5411 22.6362 22.4514V22.4821L22.6905 22.7488V22.7795H22.707C23.4152 22.8692 24.1234 22.9873 24.8528 23.1242L25.5232 23.2587L25.6412 23.2847L26.2243 23.4145L26.2786 23.4263C26.6964 23.5231 27.1213 23.6293 27.5392 23.7403C28.363 23.9598 29.1727 24.2006 29.9446 24.4485L29.9847 24.4603V24.4319C30.0012 24.3399 30.0178 24.2478 30.0343 24.1534V24.1251L30.0201 24.1156Z" fill="#FFCF01"/>
<path d="M29.9985 24.4319L30.0457 24.1533C30.0291 24.2454 30.0126 24.3398 29.9961 24.4319H29.9985Z" fill="#FFCF01"/>
<path d="M20.1833 23.5136C19.7301 23.4924 19.3548 23.4829 19.0031 23.4829C18.6513 23.4829 18.2807 23.4829 17.8228 23.5136V23.5443L17.7661 23.8276V23.8582C18.2382 23.8346 18.6372 23.8228 19.0101 23.8228C19.3831 23.8228 19.7702 23.8228 20.2424 23.8582H20.2565L20.1833 23.5136Z" fill="#FFCF01"/>
<path d="M15.096 23.7733C14.5271 23.8559 13.9322 23.9574 13.3279 24.0802C13.106 24.125 12.8818 24.1722 12.6386 24.2265H12.5985C12.3837 24.2737 12.1665 24.3257 11.9494 24.3776H11.9069L11.2813 24.5357H11.253L10.644 24.701C9.82247 24.937 8.99155 25.1967 8.24561 25.4658C8.26685 25.5602 8.2881 25.657 8.3117 25.7514V25.7703V25.7987C9.06945 25.5248 9.87204 25.2699 10.6935 25.0385C11.3309 24.8591 11.9824 24.6939 12.6292 24.5476L12.7071 24.531L13.3303 24.3988C13.9086 24.2808 14.4799 24.1817 15.0299 24.099L15.096 23.7473V23.7733Z" fill="#FFCF01"/>
<path d="M29.7249 25.4872C28.9695 25.2181 28.1787 24.9655 27.3785 24.7389C26.4838 24.4863 25.5797 24.2668 24.6898 24.0874H24.6544C24.0548 23.967 23.4883 23.8679 22.9241 23.7876H22.8887V23.8183L22.9453 24.1086V24.1393H22.9595C23.5001 24.2196 24.0595 24.3187 24.6237 24.432C25.0958 24.5265 25.5679 24.6327 26.0235 24.746L26.668 24.9112H26.6798L27.2912 25.0788C28.0796 25.3031 28.8609 25.5509 29.614 25.8224L29.6659 25.8413V25.813C29.6871 25.7233 29.7084 25.6312 29.7296 25.5415V25.5132L29.7249 25.4872Z" fill="#FFCF01"/>
<path d="M16.024 14.487C16.024 14.487 16.4182 14.1164 16.4182 13.7576C16.4182 12.9432 15.9815 12.9998 15.7903 12.9998C15.3536 12.9998 14.7587 13.6797 14.7587 13.6797C14.8248 13.5309 14.9382 13.2666 14.9712 13.1839C14.9854 13.1509 15.0019 13.1084 15.0208 13.0636C15.1163 12.8251 15.1222 12.5601 15.0373 12.3176C14.9358 12.0037 14.7186 11.8691 14.5416 11.6496C14.3645 11.43 14.2796 11.3403 14.2796 11.3403C14.2796 11.3403 14.2111 11.4182 14.0199 11.6543C13.8287 11.8903 13.6257 12.0084 13.5242 12.3223C13.4404 12.5661 13.448 12.832 13.5454 13.0706C13.5619 13.1178 13.5808 13.158 13.595 13.191C13.628 13.2736 13.7413 13.538 13.8074 13.6867C13.8074 13.6867 13.2126 13.0069 12.7759 13.0069C12.587 13.0069 12.1479 12.9526 12.1479 13.7646C12.1479 14.1235 12.5422 14.4941 12.5422 14.4941C12.5422 14.4941 12.5988 14.2014 13.0284 14.2014C13.3235 14.2014 13.5242 14.5106 13.5242 14.86C13.5242 15.1456 13.4652 15.3864 13.3943 15.417C13.5334 15.5114 13.6674 15.613 13.7956 15.7216C13.8853 15.8113 14.2819 16.2905 14.2819 16.2905C14.2819 16.2905 14.6785 15.8183 14.7682 15.7216C14.8974 15.6131 15.0321 15.5115 15.1719 15.417C15.101 15.3864 15.042 15.1479 15.042 14.86C15.042 14.5129 15.2427 14.2014 15.5377 14.2014C15.965 14.199 16.024 14.487 16.024 14.487Z" fill="#FFCF01"/>
<path d="M19.2296 34.6957C19.2194 34.7759 19.2266 34.8574 19.2507 34.9346C19.2747 35.0118 19.3151 35.0829 19.3691 35.1431C19.423 35.2033 19.4893 35.2512 19.5634 35.2836C19.6375 35.316 19.7176 35.332 19.7985 35.3307C20.2021 35.3307 21.2148 34.9389 21.2927 33.3667C21.3517 32.2171 21.0165 31.9126 21.0165 31.9126L20.3981 33.041C20.3981 34.6627 19.2296 34.6957 19.2296 34.6957Z" fill="#FFCF01"/>
<path d="M17.5933 33.0434L16.9748 31.915C16.9748 31.915 16.6419 32.2196 16.6892 33.3715C16.7694 34.9437 17.7797 35.3355 18.181 35.3355C18.2618 35.3364 18.3418 35.3201 18.4157 35.2876C18.4896 35.2551 18.5557 35.2072 18.6095 35.1471C18.6634 35.0869 18.7038 35.016 18.728 34.939C18.7522 34.862 18.7597 34.7807 18.7499 34.7005C18.7499 34.7005 17.5933 34.6628 17.5933 33.0434Z" fill="#FFCF01"/>
<path d="M19.6405 33.2487C19.6247 32.709 19.6875 32.1698 19.827 31.6482C19.9261 31.2941 20.5351 30.9211 20.5351 30.9211C19.9261 30.2437 19.3926 31.1572 19.4162 31.0486C19.4276 30.7858 19.3775 30.5239 19.2699 30.2838C19.1977 30.1356 19.1099 29.9955 19.0078 29.866C18.9067 29.9956 18.8197 30.1357 18.7482 30.2838C18.6407 30.5239 18.5906 30.7858 18.6018 31.0486C18.6231 31.1619 18.0919 30.2437 17.4829 30.9211C17.4829 30.9211 18.0825 31.2941 18.1911 31.6482C18.3309 32.1698 18.3937 32.7089 18.3776 33.2487C18.3776 33.879 18.7104 34.0466 18.8638 34.115V35.7887H19.1495V34.1363C19.2604 34.0796 19.6499 33.9238 19.6405 33.2487Z" fill="#FFCF01"/>
<path d="M22.7561 15.0416L22.7231 15.2116L23.4832 14.7725V16.2621H23.6555H23.6767H23.8514V14.7725L24.6115 15.2116L24.5761 15.0416L25.3834 15.0251L24.9939 14.3217L25.1568 14.265L24.7579 14.036L25.7422 13.4671L25.5794 13.4128L25.9689 12.707L25.1639 12.6905L25.1969 12.5205L24.1937 13.0989V11.9422L24.0639 12.0555L23.6673 11.3662L23.2707 12.0555L23.1385 11.9422V13.0989L22.1376 12.5205L22.1707 12.6905L21.3657 12.707L21.7529 13.4128L21.59 13.4671L22.5743 14.036L22.1754 14.265L22.3406 14.3217L21.9511 15.0251L22.7561 15.0416Z" fill="#FFCF01"/>
<path d="M43.8364 20.542C43.8364 21.8568 43.0173 22.7042 41.7496 22.7042C40.482 22.7042 39.677 21.8544 39.677 20.542V14.4233H38.4731V20.6246C38.4731 22.4729 39.8517 23.8137 41.7496 23.8137C43.6475 23.8137 45.0332 22.4658 45.0332 20.6246V14.4233H43.8364V20.542Z" fill="#58595B"/>
<path d="M48.0193 19.7511C48.0193 18.7644 48.5434 18.2002 49.4545 18.2002C50.3657 18.2002 50.8709 18.7502 50.8709 19.7511V23.7287H52.0252V19.5977C52.0431 19.262 51.9915 18.9263 51.8737 18.6115C51.7559 18.2968 51.5745 18.0097 51.3406 17.7682C51.1147 17.5577 50.8491 17.3944 50.5593 17.2878C50.2695 17.1812 49.9613 17.1335 49.6528 17.1474C49.0508 17.1333 48.4654 17.3456 48.0122 17.7422V17.2253H46.8579V23.7287H48.0122L48.0193 19.7511Z" fill="#58595B"/>
<path d="M54.9991 14.4087H53.7314V15.6763H54.9991V14.4087Z" fill="#58595B"/>
<path d="M54.938 17.2251H53.7837V23.7285H54.938V17.2251Z" fill="#58595B"/>
<path d="M59.3288 23.7285L61.7225 17.2251H60.4761L58.8402 22.0076L57.2185 17.2251H55.9697L58.3492 23.7285H59.3288Z" fill="#58595B"/>
<path d="M64.8996 17.1494C63.2141 17.1494 62.2085 18.3934 62.2085 20.4778C62.2085 22.6236 63.2235 23.8062 65.0648 23.8062C65.5107 23.8267 65.9556 23.7472 66.3669 23.5737C66.7782 23.4001 67.1455 23.1368 67.4419 22.803L67.5316 22.7133L66.729 22.0051L66.6511 22.083C66.4596 22.31 66.2184 22.4899 65.9461 22.6086C65.6739 22.7273 65.378 22.7817 65.0813 22.7676C64.0002 22.7676 63.3888 22.083 63.3534 20.839H67.5812V20.2984C67.5906 18.3557 66.559 17.1494 64.8996 17.1494ZM63.3675 19.916C63.3668 19.6138 63.4262 19.3145 63.5422 19.0355C63.6613 18.7759 63.8523 18.5559 64.0927 18.4016C64.3331 18.2474 64.6127 18.1654 64.8984 18.1654C65.184 18.1654 65.4636 18.2474 65.704 18.4016C65.9444 18.5559 66.1355 18.7759 66.2545 19.0355C66.3716 19.3151 66.4318 19.6152 66.4316 19.9184L63.3675 19.916Z" fill="#58595B"/>
<path d="M71.8774 17.1497C71.2694 17.1362 70.6803 17.3616 70.2368 17.7776V17.2252H69.0942V23.7286H70.2486V19.7629C70.2486 18.8422 70.8175 18.2002 71.6342 18.2002C71.8224 18.1869 72.0111 18.2185 72.1846 18.2924C72.3582 18.3663 72.5118 18.4803 72.6327 18.6251L72.7177 18.71L73.5581 17.8532L73.4755 17.7705C73.2695 17.558 73.0201 17.3925 72.7443 17.2854C72.4685 17.1782 72.1727 17.1319 71.8774 17.1497Z" fill="#58595B"/>
<path d="M79.0539 21.7763C79.0539 20.3151 77.9374 20.0413 77.0994 19.9634L76.0914 19.8737C75.2203 19.8029 75.1047 19.4299 75.1047 19.0735C75.1047 18.4833 75.5603 18.1599 76.3888 18.1599C76.9593 18.1342 77.522 18.3004 77.9869 18.632L78.0696 18.6958L78.8344 17.9309L78.7329 17.8483C78.1711 17.388 77.3661 17.1401 76.403 17.1401C74.9536 17.1401 73.9787 17.9238 73.9787 19.0923C73.9787 20.1758 74.6444 20.7825 75.9592 20.8911L76.9908 20.9808C77.8217 21.054 77.935 21.4529 77.935 21.781C77.935 22.6426 76.9624 22.7725 76.3841 22.7725C75.5721 22.7725 74.9678 22.5364 74.5192 22.0832L74.4366 21.9958L73.6553 22.7772L73.7426 22.8598C74.4154 23.509 75.2345 23.8041 76.3983 23.8041C78.0082 23.8064 79.0539 23.0085 79.0539 21.7763Z" fill="#58595B"/>
<path d="M81.5132 14.4087H80.2456V15.6763H81.5132V14.4087Z" fill="#58595B"/>
<path d="M81.4517 17.2251H80.2974V23.7285H81.4517V17.2251Z" fill="#58595B"/>
<path d="M83.4939 21.9298C83.4939 23.0227 84.1714 23.7285 85.2171 23.7285H85.9843V22.704H85.3824C84.8867 22.704 84.6459 22.442 84.6459 21.9038V18.2001H85.9843V17.2558H84.6459V15.3013H83.4939V17.2629H82.7031V18.2071H83.4939V21.9298Z" fill="#58595B"/>
<path d="M89.6315 25.1684L92.535 17.2251H91.2839L89.6599 22.01L88.0311 17.2251H86.7847L89.0839 23.483L88.6519 24.6633C88.463 25.1968 88.312 25.3715 87.7313 25.3715H87.3323V26.4219H87.8446C88.3239 26.441 88.7917 26.2715 89.1476 25.9498C89.3687 25.7315 89.5345 25.4636 89.6315 25.1684Z" fill="#58595B"/>
<path d="M40.1914 30.9921C39.9544 30.9873 39.7187 31.0301 39.4985 31.1181C39.2784 31.2061 39.0781 31.3374 38.9096 31.5043C38.4375 31.9929 38.3667 32.661 38.3667 33.2535C38.3667 33.846 38.4304 34.5117 38.912 35.0027C39.2583 35.3304 39.717 35.513 40.1938 35.513C40.6706 35.513 41.1293 35.3304 41.4756 35.0027C41.9477 34.514 42.0185 33.846 42.0185 33.2559C42.0185 32.6657 41.9548 31.9953 41.4732 31.5067C41.305 31.3394 41.1048 31.2076 40.8846 31.1192C40.6644 31.0308 40.4287 30.9876 40.1914 30.9921ZM40.8736 34.4598C40.7838 34.5483 40.6772 34.6179 40.56 34.6645C40.4428 34.7111 40.3175 34.7338 40.1914 34.7312C40.0668 34.7334 39.9431 34.7104 39.8275 34.6638C39.7119 34.6172 39.6069 34.5478 39.5187 34.4598C39.2496 34.1906 39.2141 33.7209 39.2141 33.2511C39.2141 32.7814 39.2519 32.3069 39.5187 32.0425C39.6069 31.9545 39.7119 31.8851 39.8275 31.8385C39.9431 31.7919 40.0668 31.7689 40.1914 31.7711C40.3175 31.7685 40.4428 31.7911 40.56 31.8378C40.6772 31.8844 40.7838 31.954 40.8736 32.0425C41.1475 32.3163 41.1711 32.8097 41.1711 33.2511C41.1711 33.6926 41.1451 34.1859 40.8713 34.4598H40.8736Z" fill="#58595B"/>
<path d="M43.0979 30.397V31.0698H42.562V31.778H43.0979V35.4652H43.9453V31.7709H44.8376V31.0627H43.9453V30.4065C43.9453 30.0642 44.0822 29.9131 44.3891 29.9131H44.8376V29.1506H44.2781C43.5629 29.1554 43.0979 29.644 43.0979 30.397Z" fill="#58595B"/>
<path d="M54.3999 33.1095L52.4973 26.1528H51.4516L49.549 33.1095L47.8635 26.1528H46.5864L48.9659 35.4582H50.0518L51.9733 28.5205L53.8971 35.4582H54.983L57.3625 26.1528H56.0854L54.3999 33.1095Z" fill="#58595B"/>
<path d="M59.4707 28.9548H58.3164V35.4582H59.4707V28.9548Z" fill="#58595B"/>
<path d="M59.5318 26.1387H58.2642V27.4063H59.5318V26.1387Z" fill="#58595B"/>
<path d="M64.2036 28.8864C63.6016 28.8723 63.0161 29.0846 62.563 29.4813V28.9619H61.4087V35.4653H62.563V31.483C62.563 30.4963 63.0871 29.9321 63.9982 29.9321C64.9094 29.9321 65.4146 30.4822 65.4146 31.483V35.4606H66.5689V31.3296C66.5868 30.994 66.5352 30.6583 66.4174 30.3435C66.2996 30.0287 66.1182 29.7416 65.8843 29.5002C65.6587 29.2918 65.3939 29.1303 65.1055 29.025C64.817 28.9196 64.5104 28.8725 64.2036 28.8864Z" fill="#58595B"/>
<path d="M72.1753 29.4883C71.9588 29.2755 71.6996 29.1111 71.4147 29.0061C71.1298 28.9011 70.8258 28.8578 70.5229 28.8793C69.9306 28.8595 69.3533 29.0683 68.9107 29.4624C68.2025 30.1705 68.1128 31.3721 68.1128 32.2077C68.1128 33.0434 68.1954 34.2378 68.9107 34.9531C69.3535 35.347 69.9306 35.5557 70.5229 35.5361C70.8296 35.5557 71.1369 35.5095 71.4242 35.4008C71.7116 35.2922 71.9725 35.1234 72.1895 34.9059V35.4606H73.3297V26.1528H72.1753V29.4883ZM70.726 34.4857C69.4371 34.4857 69.2648 33.3337 69.2648 32.2077C69.2648 31.0817 69.4394 29.9298 70.726 29.9298C72.0125 29.9298 72.1753 31.0251 72.1753 32.2077C72.1753 33.3904 72.0007 34.4857 70.726 34.4857Z" fill="#58595B"/>
<path d="M78.0647 31.6956L77.0567 31.6059C76.1857 31.535 76.07 31.1621 76.07 30.8056C76.07 30.2155 76.5256 29.8921 77.3542 29.8921C77.9247 29.8664 78.4873 30.0326 78.9523 30.3642L79.0349 30.4279L79.7997 29.6631L79.6982 29.5805C79.1364 29.1202 78.3314 28.8723 77.3683 28.8723C75.9189 28.8723 74.944 29.656 74.944 30.8245C74.944 31.908 75.6097 32.5147 76.9245 32.6233L77.9561 32.713C78.787 32.7862 78.9003 33.1851 78.9003 33.5132C78.9003 34.3748 77.9278 34.5047 77.3494 34.5047C76.5374 34.5047 75.9331 34.2686 75.4846 33.8154L75.402 33.728L74.6206 34.5094L74.7079 34.592C75.3807 35.2412 76.1998 35.5362 77.3636 35.5362C78.983 35.5362 80.0287 34.7407 80.0287 33.5061C80.0169 32.0449 78.9027 31.7735 78.0647 31.6956Z" fill="#58595B"/>
<path d="M83.7982 28.8863C83.4492 28.8777 83.1022 28.9395 82.7777 29.0681C82.4532 29.1967 82.158 29.3893 81.9097 29.6346C81.2015 30.3428 81.1118 31.3413 81.1118 32.2147C81.1118 33.0881 81.2062 34.0772 81.9097 34.7948C82.4177 35.2754 83.0905 35.5432 83.7899 35.5432C84.4892 35.5432 85.1621 35.2754 85.6701 34.7948C86.3783 34.0866 86.468 33.0881 86.468 32.2147C86.468 31.3413 86.3735 30.3522 85.6701 29.6346C85.4237 29.3914 85.1312 29.1999 84.8097 29.0714C84.4882 28.9428 84.1443 28.8799 83.7982 28.8863ZM84.8604 34.0796C84.7202 34.217 84.5541 34.3253 84.3718 34.3982C84.1895 34.4712 83.9945 34.5073 83.7982 34.5045C83.6035 34.5077 83.4102 34.4717 83.2298 34.3987C83.0493 34.3257 82.8854 34.2172 82.7477 34.0796C82.3299 33.6617 82.2756 32.9418 82.2756 32.2265C82.2756 31.5112 82.3322 30.7913 82.7477 30.3734C82.8854 30.2358 83.0493 30.1273 83.2298 30.0543C83.4102 29.9813 83.6035 29.9453 83.7982 29.9485C83.9945 29.9457 84.1895 29.9818 84.3718 30.0548C84.5541 30.1277 84.7202 30.236 84.8604 30.3734C85.2877 30.8007 85.3325 31.5537 85.3325 32.2265C85.3325 32.8993 85.2877 33.6334 84.8604 34.0607V34.0796Z" fill="#58595B"/>
<path d="M92.4639 29.5003C92.2576 29.2894 92.0083 29.1254 91.7329 29.0195C91.4576 28.9135 91.1626 28.8682 90.8682 28.8865C90.2602 28.873 89.6712 29.0985 89.2276 29.5144V28.955H88.0732V35.4584H89.2276V31.4832C89.2276 30.5625 89.7965 29.9205 90.6132 29.9205C90.8014 29.9072 90.9901 29.9388 91.1636 30.0127C91.3372 30.0866 91.4908 30.2006 91.6118 30.3454L91.6967 30.4304L92.5371 29.5735L92.4639 29.5003Z" fill="#58595B"/>
</svg>
