<svg width="83" height="48" viewBox="0 0 83 48" fill="none" xmlns="http://www.w3.org/2000/svg">
<path fill-rule="evenodd" clip-rule="evenodd" d="M31.605 30.3579C32.1346 30.6405 32.8414 30.8176 33.4418 30.8176C34.4659 30.8176 35.4904 30.2519 35.4904 29.0507C35.4904 28.2384 34.9608 27.8147 34.2541 27.6384L33.8303 27.5673C33.7244 27.5321 33.5125 27.4969 33.5125 27.3198C33.5125 27.1084 33.7244 27.0372 33.8655 27.0372C34.2541 27.0372 34.5722 27.2143 34.89 27.4258L35.3493 26.1546C34.892 25.8758 34.3663 25.7292 33.8307 25.7309C32.8062 25.7309 31.7821 26.3661 31.7821 27.5669C31.7821 28.3088 32.3473 28.7325 33.0184 28.874L33.3718 28.9452C33.5129 28.9804 33.7604 28.9804 33.7604 29.1918C33.7604 29.4393 33.4777 29.51 33.3011 29.51C32.9125 29.51 32.524 29.2978 32.2062 29.0503L32.1354 28.98L31.605 30.3579ZM35.8434 27.2495V29.2278C35.8434 30.3227 36.7616 30.8172 37.7506 30.8172C38.7395 30.8172 39.6578 30.3223 39.6578 29.2278V27.2495H38.0332V29.0503C38.0332 29.2626 38.0332 29.4748 37.7506 29.4748C37.5035 29.4748 37.468 29.2626 37.468 29.0503V27.2495H35.8434ZM41.7776 27.2495H40.1526V30.746H41.8127V29.0503C41.8127 28.8389 41.8127 28.5562 42.0602 28.5562C42.3428 28.5562 42.3428 28.8389 42.3428 29.0503V30.746H43.9673V28.5914C43.9673 27.8495 43.6499 27.1783 42.8025 27.1783C42.3076 27.1783 42.0606 27.4258 41.7428 27.8143H41.7068L41.7776 27.2495ZM46.4401 28.5207C46.6876 28.5207 46.8638 28.7329 46.8638 28.9804C46.8638 29.2278 46.6876 29.51 46.4401 29.51C46.1575 29.51 46.0164 29.2626 46.0164 29.0151C46.0164 28.7329 46.1575 28.5207 46.4401 28.5207ZM46.899 30.7464H48.4184V25.4127H46.7931V26.8961L46.8642 27.7444H46.8291C46.5816 27.4262 46.1931 27.1787 45.8045 27.1787C44.8511 27.1787 44.4274 28.1681 44.4274 29.0507C44.4274 29.863 44.8863 30.8176 45.8045 30.8176C46.2283 30.8176 46.6168 30.5701 46.8994 30.2167H46.9346L46.899 30.7464ZM52.8332 29.2982C52.9387 27.991 51.9849 27.1787 50.7841 27.1787C49.7244 27.1787 48.8769 27.9207 48.8769 29.0507C48.8769 30.2515 49.8303 30.8176 50.89 30.8176C51.6671 30.8176 52.5498 30.429 52.762 29.6167H51.2074C51.1723 29.7578 51.0311 29.8993 50.8549 29.8993C50.5367 29.8993 50.4663 29.5812 50.4663 29.2985L52.8332 29.2982ZM50.4663 28.5566C50.4663 28.3092 50.6074 28.1329 50.8549 28.1329C51.0663 28.1329 51.2434 28.3444 51.2434 28.5566H50.4663ZM56.0475 27.1787C55.4818 27.1787 55.1992 27.2847 54.9166 27.7444H54.8814L54.9166 27.2495H53.2921V30.746H54.9166V29.4037C54.9166 28.98 55.1289 28.6974 55.5526 28.6974C55.7641 28.6974 55.87 28.8029 56.0475 28.9088V27.1787ZM56.3297 30.7464H57.9898V25.4127H56.3297V30.7464ZM60.0381 28.9804C60.0381 28.7329 60.2152 28.5207 60.4618 28.5207C60.7452 28.5207 60.9215 28.6977 60.9215 28.9804C60.9215 29.2278 60.7804 29.51 60.4618 29.51C60.1792 29.5104 60.0381 29.263 60.0381 28.9804ZM60.8504 30.7464H62.4397V27.2499H60.8504L60.9215 27.6736H60.8863C60.6389 27.3202 60.2855 27.1787 59.897 27.1787C58.9436 27.1787 58.4135 28.1329 58.4135 29.0155C58.4135 29.863 58.9432 30.8172 59.8618 30.8172C60.3207 30.8172 60.5681 30.6049 60.8863 30.2875H60.9215L60.8504 30.7464ZM64.5943 27.2495H63.0057V30.746H64.6303V29.0503C64.6303 28.8389 64.6303 28.5562 64.9129 28.5562C65.1955 28.5562 65.1955 28.8389 65.1955 29.0503V30.746H66.8201V28.5914C66.8201 27.8495 66.4667 27.1783 65.6544 27.1783C65.1248 27.1783 64.8773 27.4258 64.5595 27.8143H64.5244L64.5943 27.2495ZM69.2569 28.5207C69.5043 28.5207 69.6806 28.7329 69.6806 28.9804C69.6806 29.2278 69.5043 29.51 69.2569 29.51C69.0094 29.51 68.8332 29.2626 68.8332 29.0151C68.8332 28.7329 69.0094 28.5207 69.2569 28.5207ZM69.7166 30.7464H71.2704V25.4127H69.6458V26.8961L69.717 27.7444H69.6458C69.4336 27.4262 69.0098 27.1787 68.6573 27.1787C67.7031 27.1787 67.2442 28.1681 67.2442 29.0507C67.2442 29.863 67.7391 30.8176 68.6213 30.8176C69.081 30.8176 69.4695 30.5701 69.717 30.2167H69.7521L69.7166 30.7464ZM34.5015 17.8544V20.6094C34.5015 20.9979 34.5015 21.3509 34.0426 21.3509C33.5833 21.3509 33.5481 20.9979 33.5481 20.6094V17.8544H31.8172V20.7861C31.8172 22.2343 32.7003 22.9051 34.0426 22.9051C35.3493 22.9051 36.2324 22.2343 36.2324 20.7861V17.8544H34.5015ZM38.2806 19.3378H36.6913V22.7992H38.3158V21.1039C38.3158 20.9272 38.3158 20.6094 38.5984 20.6094C38.881 20.6094 38.881 20.9272 38.881 21.1039V22.7992H40.506V20.6798C40.506 19.9027 40.1882 19.2671 39.3403 19.2671C38.8107 19.2671 38.5988 19.5145 38.2806 19.9027H38.2455L38.2806 19.3378ZM41.0356 22.7992H42.6602V19.3378H41.0356V22.7992ZM41.8487 17.4307C41.3183 17.4307 40.9301 17.7481 40.9301 18.2429C40.9301 18.8433 41.3538 19.0908 41.8487 19.0908C42.3076 19.0908 42.7313 18.8433 42.7313 18.2429C42.7309 17.7481 42.3424 17.4307 41.8487 17.4307ZM42.8021 19.3378L44.2496 22.7992H45.733L47.2172 19.3378H45.4504L45.0978 20.5386L45.0267 20.9624H44.9919L44.533 19.3378H42.8021ZM51.1375 21.3509C51.2078 20.0442 50.2541 19.2671 49.0892 19.2671C47.9935 19.2671 47.1461 19.9734 47.1461 21.1391C47.1461 22.3399 48.0995 22.9051 49.1592 22.9051C49.9363 22.9051 50.8549 22.5166 51.0663 21.6691H49.477C49.4418 21.8458 49.3007 21.9517 49.1244 21.9517C48.8062 21.9517 48.771 21.6339 48.771 21.3513L51.1375 21.3509ZM48.771 20.6446C48.771 20.3975 48.8769 20.1853 49.1244 20.1853C49.3718 20.1853 49.5129 20.3971 49.5129 20.6446H48.771ZM54.1755 19.2671C53.6458 19.2319 53.3273 19.3378 53.0446 19.7967H53.0095L53.0446 19.3374H51.4201V22.7988H53.0446V21.4916C53.0446 21.0327 53.2569 20.7853 53.6806 20.7853C53.8921 20.7853 54.0332 20.8561 54.1755 20.962V19.2671ZM54.0692 22.5166C54.5281 22.7284 55.0577 22.9051 55.5878 22.9051C56.3649 22.9051 57.2123 22.5166 57.2123 21.5984C57.2123 20.9272 56.7534 20.7153 56.1526 20.6094C55.9411 20.5742 55.7641 20.5386 55.7641 20.3975C55.7641 20.2564 55.87 20.2209 55.9763 20.2209C56.2589 20.2209 56.5412 20.362 56.7534 20.5035L57.142 19.5497C56.7886 19.3378 56.2586 19.2671 55.8348 19.2671C55.1285 19.2671 54.2802 19.5849 54.2802 20.4679C54.2802 21.1391 54.7751 21.3509 55.3048 21.4213C55.4459 21.4569 55.6581 21.4569 55.6581 21.6687C55.6581 21.7747 55.517 21.8454 55.4107 21.8454C55.1281 21.8454 54.8099 21.6687 54.5632 21.5276L54.4573 21.4572L54.0692 22.5166ZM57.5661 22.7992H59.1906V19.3378H57.5661V22.7992ZM58.3784 17.4307C57.8487 17.4307 57.4598 17.7481 57.4598 18.2429C57.4598 18.8433 57.8835 19.0908 58.3784 19.0908C58.8373 19.0908 59.261 18.8433 59.261 18.2429C59.2606 17.7481 58.8728 17.4307 58.3784 17.4307ZM61.5215 18.2074H59.8966V19.373L59.508 19.3378V20.6798L59.8966 20.6446V22.7992H61.5215V20.6446L62.0871 20.6798V19.3378L61.5215 19.373V18.2074Z" fill="#2C629D"/>
<path fill-rule="evenodd" clip-rule="evenodd" d="M61.6986 19.3378L63.1469 22.4814L62.2634 24.247H63.9943L66.1489 19.3378H64.418L64.0647 20.6798L63.9943 21.2098H63.9232L63.8532 20.6798L63.4643 19.3378H61.6986ZM70.2103 19.2671C69.1154 19.2671 68.1972 19.9027 68.1972 21.1039C68.1972 22.2695 69.1506 22.9051 70.2103 22.9051C71.27 22.9051 72.2593 22.2695 72.2593 21.1039C72.2593 19.9027 71.3052 19.2671 70.2103 19.2671ZM70.2103 20.5738C70.4929 20.5738 70.67 20.8209 70.67 21.1035C70.67 21.3505 70.4577 21.5624 70.2103 21.5624C69.9629 21.5624 69.7514 21.3505 69.7514 21.1035C69.7514 20.8213 69.9281 20.5738 70.2103 20.5738ZM72.7183 19.373L72.2593 19.3378V20.6802L72.7183 20.645V22.7996H74.3428V20.645L74.8725 20.6802V19.3378L74.3076 19.4086V19.2671C74.3076 19.0552 74.378 18.8078 74.6602 18.8078C74.7313 18.8078 74.8013 18.843 74.8725 18.8785V17.5362C74.6441 17.4639 74.4057 17.4282 74.1661 17.4303C73.1416 17.4303 72.7179 17.9951 72.7179 19.0193V19.373H72.7183ZM24.8234 30.8172L21.0087 27.0021H20.9379C20.9027 27.0021 20.8672 27.0372 20.8672 27.108L23.6574 31.6994C23.6574 31.6994 23.6925 31.6994 23.6925 31.7346C23.6925 31.7346 23.6574 31.8057 23.6218 31.8057C23.5866 31.8057 23.5866 31.8057 23.551 31.7705L19.7719 28.0969C19.7363 28.0618 19.7363 28.0618 19.7011 28.0618C19.666 28.0618 19.5952 28.1329 19.5952 28.1329L21.5731 33.8896V33.9255C21.5731 33.9607 21.5379 34.0315 21.5379 34.0315C21.4672 34.0315 21.432 33.9955 21.3968 33.9603L18.324 29.1918C18.324 29.1567 18.2888 29.1215 18.2888 29.1215C18.1829 29.1215 18.1829 29.1918 18.1829 29.2274L19.0659 36.4679C19.0659 36.5031 19.0308 36.5383 18.96 36.5383C18.9248 36.5383 18.8893 36.5031 18.8893 36.4679L16.5932 29.7922C16.5932 29.7571 16.5932 29.7571 16.558 29.7571C16.5228 29.7571 16.4876 29.7571 16.4876 29.7922L15.7105 39.6822C15.6753 39.7174 15.6753 39.7526 15.6046 39.7526C15.5694 39.7526 15.5338 39.7174 15.5338 39.6822L14.7567 29.7922C14.7567 29.7571 14.7567 29.7211 14.7212 29.7211C14.6504 29.7211 14.6152 29.7211 14.6152 29.7571L12.3547 36.4327L12.284 36.5031C12.2132 36.5031 12.178 36.4679 12.178 36.3971L13.0611 29.2274C13.0611 29.1563 12.9903 29.1215 12.9551 29.1215C12.9551 29.1215 12.9196 29.1215 12.8844 29.1567L9.776 33.9603C9.776 33.9955 9.74082 33.9955 9.70525 33.9955C9.70525 33.9955 9.6345 33.9603 9.6345 33.9251V33.8892L11.6128 28.1325C11.6128 28.0614 11.5772 28.0266 11.542 28.0266C11.4717 28.0266 11.4717 28.0618 11.4361 28.0618L7.69215 31.7705C7.65697 31.8057 7.65697 31.8057 7.6214 31.8057C7.58622 31.8057 7.51547 31.7346 7.51547 31.7346C7.51547 31.6994 7.51547 31.6994 7.55065 31.6642L10.3412 27.1432C10.3412 27.1432 10.3412 27.0021 10.2705 27.0021L10.2349 27.0372L6.45576 30.8172L15.639 40L24.8234 30.8172ZM20.1964 20.4679L24.9649 17.7129H25.0353C25.106 17.7129 25.106 17.7481 25.106 17.7836V17.8188L15.6402 26.3665L6.24507 17.8544C6.2095 17.8192 6.17432 17.8192 6.17432 17.7836C6.17432 17.7836 6.24507 17.7129 6.28025 17.7129H6.31582L11.1547 20.5387C11.1899 20.5387 11.2254 20.5035 11.2254 20.4327L11.1902 20.3975L8.85896 14.7108C8.85896 14.6401 8.92972 14.5697 8.9649 14.5697C9.03526 14.5697 9.07083 14.6049 9.07083 14.6405L12.5674 19.0556C12.5674 19.0908 12.6025 19.0908 12.6381 19.0908C12.6737 19.0908 12.7089 19.0556 12.7089 19.02V18.9849L11.6843 11.8851C11.6843 11.8143 11.7551 11.7791 11.8254 11.7791C11.8606 11.7791 11.8606 11.8147 11.8962 11.8499L14.5101 18.2429C14.5101 18.3137 14.5101 18.3137 14.5808 18.3137C14.616 18.3137 14.6516 18.2781 14.6516 18.2429L15.5702 8.10593C15.5702 8.07075 15.6054 8 15.6409 8C15.7117 8 15.7469 8.07075 15.7469 8.10593L16.6299 18.2078C16.6299 18.2785 16.6651 18.3137 16.7358 18.3137C16.7358 18.3137 16.8066 18.2781 16.8066 18.2429L19.4205 11.8147C19.4205 11.7791 19.4557 11.7088 19.4557 11.7088C19.5264 11.7088 19.5616 11.7795 19.5616 11.8499L18.5726 19.02C18.5726 19.0556 18.6078 19.0908 18.6786 19.0908H18.7493L22.2462 14.6405C22.2814 14.6049 22.2814 14.5697 22.2814 14.5697C22.3522 14.5697 22.3874 14.6405 22.3874 14.7108L20.0561 20.3975C20.0561 20.4327 20.0913 20.4683 20.162 20.4683L20.1964 20.4679Z" fill="#2C629D"/>
</svg>
