<svg width="198" height="48" viewBox="0 0 198 48" fill="none" xmlns="http://www.w3.org/2000/svg">
<path d="M140.119 40C137.673 40 135.559 39.6684 133.777 39.0052C131.994 38.342 130.461 37.3886 129.259 36.228C128.057 35.0674 127.145 33.658 126.564 32.0829C125.984 30.4663 125.694 28.7668 125.694 26.9016V8H136.181V25.7409C136.181 27.2332 136.554 28.3938 137.259 29.2228C137.963 30.0518 139 30.4663 140.326 30.4663C141.652 30.4663 142.647 30.0518 143.393 29.2228C144.098 28.3938 144.471 27.2332 144.471 25.7409V8H154.834V26.9016C154.834 28.7668 154.502 30.4663 153.88 32.0829C153.259 33.6995 152.305 35.0674 151.103 36.228C149.86 37.3886 148.326 38.342 146.502 39.0052C144.678 39.6684 142.564 40 140.119 40Z" fill="#1D1D1B"/>
<path d="M176.968 27.2746H168.429V39.0881H157.984V8H168.388V18.5285H176.927V8H187.414V39.0881H176.968V27.2746Z" fill="#1D1D1B"/>
<path d="M20.8653 20.3109C19.8705 21.1814 18.4611 21.6373 16.6788 21.6373C14.8549 21.6373 13.487 21.2228 12.4922 20.3523C11.4974 19.4819 11 18.114 11 16.2902V8H13.943V16.2902C13.943 16.6632 13.9845 16.9948 14.0259 17.3679C14.0674 17.7409 14.2332 18.0311 14.399 18.2798C14.6062 18.5285 14.8549 18.7772 15.228 18.943C15.601 19.1088 16.057 19.1917 16.6373 19.1917C17.6736 19.1917 18.4197 18.943 18.7927 18.487C19.1658 18.0311 19.3731 17.285 19.3731 16.2902V8H22.3161V16.2902C22.3575 18.0725 21.8601 19.4404 20.8653 20.3109Z" fill="#1D1D1B"/>
<path d="M26.4611 11.6891V13.0156H26.5026C26.8342 12.4767 27.2901 12.0622 27.829 11.8135C28.3678 11.5648 28.9067 11.4404 29.487 11.4404C30.1917 11.4404 30.772 11.5233 31.228 11.7306C31.6839 11.9378 32.057 12.1865 32.3057 12.5181C32.5544 12.8498 32.7616 13.2643 32.8445 13.7617C32.9689 14.2591 33.0103 14.7979 33.0103 15.3783V21.3057H30.3575V15.8757C30.3575 15.0881 30.2331 14.4663 29.9844 14.0933C29.7357 13.7202 29.2798 13.513 28.658 13.513C27.9533 13.513 27.4145 13.7202 27.0829 14.1762C26.7513 14.5907 26.5855 15.2954 26.5855 16.2902V21.3472H23.9326V11.6891H26.4611Z" fill="#1D1D1B"/>
<path d="M34.4609 10.1969V8H37.1138V10.1969H34.4609ZM37.1138 11.6891V21.3472H34.4609V11.6891H37.1138Z" fill="#1D1D1B"/>
<path d="M40.9689 21.306L37.6528 11.6479H40.43L42.4611 18.2386H42.5026L44.5337 11.6479H47.1451L43.8704 21.306H40.9689Z" fill="#1D1D1B"/>
<path d="M50.4605 19.0259C50.875 19.3989 51.4139 19.6062 52.16 19.6062C52.6989 19.6062 53.1548 19.4818 53.5279 19.1917C53.901 18.943 54.1497 18.6528 54.2326 18.3627H56.5538C56.1807 19.5233 55.6004 20.3523 54.8543 20.8497C54.0668 21.3471 53.1548 21.5958 52.0357 21.5958C51.2896 21.5958 50.5849 21.4715 49.9631 21.2228C49.3414 20.9741 48.844 20.6425 48.4295 20.1865C48.0149 19.7305 47.6833 19.1917 47.4346 18.5699C47.1859 17.9481 47.103 17.2849 47.103 16.4974C47.103 15.7927 47.2274 15.088 47.4761 14.4663C47.7248 13.8445 48.0564 13.3057 48.4709 12.8497C48.8854 12.3937 49.4243 12.0207 50.046 11.772C50.6678 11.5233 51.331 11.3989 52.0357 11.3989C52.8647 11.3989 53.5693 11.5647 54.1911 11.8549C54.8129 12.1865 55.3103 12.601 55.6833 13.1399C56.0564 13.6787 56.3466 14.3005 56.5124 14.9637C56.6782 15.6684 56.7611 16.373 56.7196 17.1191H49.7973C49.8388 17.9896 50.0875 18.6114 50.4605 19.0259ZM53.445 13.9274C53.1134 13.5958 52.6574 13.3886 51.9942 13.3886C51.5797 13.3886 51.2067 13.4715 50.958 13.5958C50.6678 13.7202 50.4605 13.9274 50.2947 14.1347C50.1289 14.3419 50.0046 14.5906 49.9217 14.7979C49.8388 15.0466 49.7973 15.2538 49.7973 15.4197H54.1082C53.9839 14.7979 53.7766 14.3005 53.445 13.9274Z" fill="#1D1D1B"/>
<path d="M60.2433 11.6891V13.4715H60.2847C60.4091 13.1813 60.5749 12.8912 60.7821 12.6424C60.9894 12.3937 61.2381 12.1865 61.5283 11.9792C61.8184 11.8134 62.1086 11.6476 62.3987 11.5647C62.7303 11.4818 63.0205 11.3989 63.3521 11.3989C63.5179 11.3989 63.7252 11.4404 63.9324 11.4818V13.9274C63.8081 13.886 63.6423 13.886 63.4764 13.8445C63.3106 13.8445 63.1448 13.8031 62.979 13.8031C62.4816 13.8031 62.0671 13.886 61.7355 14.0518C61.4039 14.2176 61.1138 14.4248 60.9065 14.715C60.6992 15.0051 60.5749 15.3368 60.4505 15.7098C60.3676 16.0829 60.3262 16.4974 60.3262 16.9119V21.2642H57.6733V11.6891H60.2433Z" fill="#1D1D1B"/>
<path d="M66.5439 18.943C66.6682 19.1502 66.834 19.316 66.9998 19.4404C67.1656 19.5647 67.4143 19.6476 67.663 19.7305C67.9117 19.8134 68.1604 19.8134 68.4091 19.8134C68.5749 19.8134 68.7822 19.772 68.9894 19.7305C69.1967 19.6891 69.3625 19.6062 69.5698 19.5233C69.7356 19.4404 69.8599 19.316 69.9843 19.1502C70.1086 18.9844 70.1501 18.8186 70.1501 18.5699C70.1501 18.1554 69.9014 17.8652 69.3625 17.658C68.8237 17.4507 68.0775 17.2435 67.1656 17.0777C66.7926 16.9948 66.4195 16.8704 66.0464 16.7875C65.6734 16.7046 65.3418 16.4974 65.0516 16.3316C64.7615 16.1243 64.5542 15.9171 64.347 15.5855C64.1812 15.2953 64.0983 14.9222 64.0983 14.5077C64.0983 13.886 64.2226 13.3886 64.4713 12.9741C64.72 12.5595 65.0516 12.2694 65.4247 12.0207C65.8392 11.772 66.2537 11.6476 66.7511 11.5233C67.2485 11.4404 67.7459 11.3989 68.2848 11.3989C68.8236 11.3989 69.3211 11.4404 69.8185 11.5647C70.3159 11.6476 70.7304 11.8134 71.1449 12.0621C71.518 12.3108 71.8496 12.601 72.0983 13.0155C72.347 13.3886 72.5128 13.886 72.5542 14.5077H70.0257C69.9843 14.0103 69.777 13.6373 69.4454 13.4715C69.1138 13.3057 68.6993 13.1813 68.2019 13.1813C68.0361 13.1813 67.8703 13.1813 67.7045 13.2228C67.5387 13.2228 67.3729 13.2642 67.2485 13.3471C67.1242 13.43 66.9998 13.5129 66.8755 13.6373C66.7511 13.7616 66.7097 13.9274 66.7097 14.0932C66.7097 14.3419 66.7926 14.5077 66.9584 14.6735C67.1242 14.8393 67.3729 14.9637 67.6216 15.0466C67.9117 15.1295 68.2019 15.2124 68.5749 15.2953C68.948 15.3782 69.3211 15.4611 69.6941 15.544C70.0672 15.6269 70.4402 15.7513 70.8133 15.8756C71.1863 16 71.5179 16.1658 71.8081 16.373C72.0983 16.5803 72.3055 16.829 72.5128 17.1191C72.72 17.4093 72.7615 17.7823 72.7615 18.2383C72.7615 18.8601 72.6371 19.3989 72.3884 19.8134C72.1397 20.2279 71.8081 20.601 71.3936 20.8497C70.9791 21.0984 70.5231 21.3057 69.9843 21.3886C69.4454 21.5129 68.9065 21.5544 68.3677 21.5544C67.7874 21.5544 67.2485 21.5129 66.7097 21.3886C66.1708 21.2642 65.7148 21.0984 65.3003 20.8497C64.8858 20.601 64.5542 20.2279 64.2641 19.8134C64.0154 19.3989 63.8496 18.8601 63.8081 18.1969H66.3366C66.3781 18.487 66.4195 18.7357 66.5439 18.943Z" fill="#1D1D1B"/>
<path d="M73.7979 10.1969V8H76.4507V10.1969H73.7979ZM76.4507 11.6891V21.3472H73.7979V11.6891H76.4507Z" fill="#1D1D1B"/>
<path d="M83.1654 11.6892V13.4715H81.2172V18.2384C81.2172 18.6943 81.3001 18.9845 81.4244 19.1503C81.5902 19.3161 81.8804 19.3575 82.3364 19.3575C82.5022 19.3575 82.6265 19.3575 82.7509 19.3575C82.8752 19.3575 82.9996 19.3161 83.1239 19.3161V21.3886C82.9167 21.4301 82.668 21.4301 82.3778 21.4715C82.0876 21.4715 81.8389 21.4715 81.5902 21.4715C81.1757 21.4715 80.8027 21.4301 80.4296 21.3886C80.0566 21.3472 79.725 21.2228 79.4762 21.057C79.1861 20.8912 78.9788 20.684 78.813 20.3524C78.6472 20.0622 78.5643 19.6477 78.5643 19.1917V13.4301H76.9478V11.6892H78.5643V8.7876H81.2172V11.6892H83.1654Z" fill="#1D1D1B"/>
<path d="M87.3934 24.2071C86.896 24.5387 86.1913 24.7045 85.2794 24.7045C84.9893 24.7045 84.7406 24.7045 84.4504 24.6631C84.2017 24.6631 83.9115 24.6216 83.6214 24.5802V22.3833C83.8701 22.4247 84.1188 22.4247 84.3675 22.4662C84.6162 22.5076 84.9064 22.5076 85.1551 22.4662C85.4867 22.4247 85.7768 22.3004 85.9426 22.0517C86.1084 21.803 86.1913 21.5543 86.1913 21.2641C86.1913 21.0568 86.1499 20.8496 86.067 20.6838L82.7095 11.689H85.5281L87.725 18.2796H87.7665L89.8805 11.689H92.6162L88.5955 22.5076C88.3053 23.2952 87.8908 23.8755 87.3934 24.2071Z" fill="#1D1D1B"/>
<path d="M97.4658 14.4248C97.7145 13.8031 98.0461 13.2642 98.4607 12.8083C98.8752 12.3523 99.414 12.0207 100.036 11.772C100.658 11.5233 101.321 11.3989 102.108 11.3989C102.854 11.3989 103.559 11.5233 104.181 11.772C104.803 12.0207 105.341 12.3523 105.756 12.8083C106.17 13.2642 106.544 13.8031 106.751 14.4248C107 15.0466 107.124 15.7513 107.124 16.5388C107.124 17.3264 107 17.9896 106.751 18.6114C106.502 19.2331 106.17 19.772 105.756 20.1865C105.341 20.6425 104.803 20.9741 104.181 21.2228C103.559 21.4715 102.896 21.5958 102.108 21.5958C101.362 21.5958 100.658 21.4715 100.036 21.2228C99.414 20.9741 98.9166 20.6425 98.4607 20.1865C98.0047 19.7305 97.6731 19.2331 97.4658 18.6114C97.2171 17.9896 97.0928 17.2849 97.0928 16.5388C97.1342 15.7513 97.2171 15.0466 97.4658 14.4248ZM99.87 17.6165C99.9529 17.9896 100.077 18.3212 100.243 18.6114C100.409 18.9015 100.658 19.1502 100.948 19.316C101.238 19.4818 101.611 19.5647 102.067 19.5647C102.523 19.5647 102.896 19.4818 103.186 19.316C103.476 19.1502 103.725 18.9015 103.932 18.6114C104.098 18.3212 104.222 17.9896 104.305 17.6165C104.388 17.2435 104.43 16.8704 104.43 16.4974C104.43 16.1243 104.388 15.7513 104.305 15.3782C104.222 15.0051 104.098 14.6735 103.932 14.3834C103.766 14.0932 103.518 13.8445 103.186 13.6787C102.896 13.5129 102.523 13.3886 102.067 13.3886C101.611 13.3886 101.238 13.4715 100.948 13.6787C100.658 13.8445 100.409 14.0932 100.243 14.3834C100.077 14.6735 99.9529 15.0051 99.87 15.3782C99.7871 15.7513 99.7456 16.1243 99.7456 16.4974C99.7871 16.9119 99.7871 17.2849 99.87 17.6165Z" fill="#1D1D1B"/>
<path d="M107.166 13.4301V11.6891H108.741V10.943C108.741 10.0725 108.989 9.36788 109.528 8.82902C110.067 8.29016 110.855 8 111.974 8C112.223 8 112.43 8 112.678 8.04145C112.927 8.04145 113.134 8.0829 113.383 8.0829V10.0725C113.052 10.0311 112.761 10.0311 112.43 10.0311C112.057 10.0311 111.808 10.114 111.642 10.2798C111.476 10.4456 111.394 10.7358 111.394 11.1088V11.6891H113.217V13.4715H111.394V21.3472H108.741V13.4715H107.166V13.4301Z" fill="#1D1D1B"/>
<path d="M13.984 24.5803V29.6788H19.3726V24.5803H22.3156V37.886H19.3726V32.1658H13.984V37.9275H11.041V24.5803H13.984Z" fill="#1D1D1B"/>
<path d="M26.9997 35.6062C27.4142 35.9792 27.953 36.1865 28.6991 36.1865C29.238 36.1865 29.694 36.0622 30.067 35.772C30.4401 35.5233 30.6888 35.2331 30.7717 34.943H33.0929C32.7199 36.1036 32.1396 36.9326 31.3934 37.43C30.6059 37.9274 29.694 38.1761 28.5748 38.1761C27.8287 38.1761 27.124 38.0518 26.5022 37.8031C25.8805 37.5544 25.3831 37.2228 24.9686 36.7668C24.5541 36.3109 24.2639 35.772 24.0152 35.1502C23.7665 34.5285 23.6836 33.8653 23.6836 33.0777C23.6836 32.373 23.8079 31.6684 24.0567 31.0466C24.3054 30.4248 24.637 29.886 25.0515 29.43C25.466 28.9741 26.0048 28.601 26.6266 28.3523C27.2484 28.1036 27.9116 27.9792 28.6162 27.9792C29.4453 27.9792 30.1499 28.1451 30.7717 28.4352C31.3934 28.7668 31.8908 29.1813 32.2639 29.7202C32.637 30.259 32.9271 30.8808 33.0929 31.544C33.2587 32.2487 33.3416 32.9533 33.3002 33.6995H26.3364C26.3779 34.5699 26.5851 35.1917 26.9997 35.6062ZM29.9841 30.5077C29.6525 30.1761 29.1965 29.9689 28.5333 29.9689C28.1188 29.9689 27.7458 30.0518 27.4971 30.1761C27.2069 30.3005 26.9997 30.5077 26.8339 30.715C26.6681 30.9223 26.5437 31.171 26.4608 31.3782C26.3779 31.6269 26.3364 31.8756 26.3364 32.0414H30.6473C30.523 31.3782 30.3157 30.8808 29.9841 30.5077Z" fill="#1D1D1B"/>
<path d="M36.5338 28.2694V30.0518H36.5753C36.6996 29.7616 36.8654 29.4715 37.0727 29.2228C37.2799 28.9741 37.5286 28.7668 37.8188 28.5596C38.1089 28.3938 38.3991 28.228 38.6893 28.1451C38.9794 28.0621 39.311 27.9792 39.6426 27.9792C39.8084 27.9792 40.0157 28.0207 40.2229 28.0621V30.5077C40.0986 30.4663 39.9328 30.4663 39.767 30.4248C39.6012 30.3834 39.4354 30.3834 39.2696 30.3834C38.7722 30.3834 38.3576 30.4663 38.026 30.6321C37.6944 30.7979 37.4043 31.0052 37.197 31.2953C36.9898 31.5855 36.8654 31.9171 36.7411 32.2901C36.6582 32.6632 36.6167 33.0777 36.6167 33.4922V37.8445H33.9639V28.2694H36.5338Z" fill="#1D1D1B"/>
<path d="M46.8958 28.2694V30.0518H44.9477V34.8186C44.9477 35.2746 45.0306 35.5648 45.1549 35.7306C45.3207 35.8964 45.6109 35.9378 46.0668 35.9378C46.2326 35.9378 46.357 35.9378 46.4813 35.9378C46.6057 35.9378 46.73 35.8964 46.8544 35.8964V37.9689C46.6471 38.0104 46.3984 38.0104 46.1083 38.0518C45.8181 38.0518 45.5694 38.0518 45.3207 38.0518C44.9062 38.0518 44.5331 38.0104 44.1601 37.9689C43.787 37.9275 43.4554 37.8031 43.2067 37.6373C42.9166 37.4715 42.7093 37.2642 42.5435 36.9326C42.3777 36.6425 42.2948 36.228 42.2948 35.772V30.0104H40.6782V28.228H42.2948V25.3264H44.9477V28.228H46.8958V28.2694Z" fill="#1D1D1B"/>
<path d="M46.689 30.0103V28.2279H48.3055V27.4818C48.3055 26.6114 48.5543 25.9067 49.0931 25.3678C49.632 24.829 50.4195 24.5388 51.5387 24.5388C51.7874 24.5388 51.9947 24.5388 52.2434 24.5803C52.4921 24.5803 52.6993 24.6217 52.948 24.6217V26.6528C52.6164 26.6114 52.3263 26.6114 51.9947 26.6114C51.6216 26.6114 51.3729 26.6943 51.2071 26.8601C51.0413 27.0259 50.9584 27.316 50.9584 27.6891V28.2694H52.7822V30.0518H50.9584V37.9274H48.3055V30.0518H46.689V30.0103Z" fill="#1D1D1B"/>
<path d="M53.5278 31.0052C53.7765 30.3834 54.1082 29.8445 54.5227 29.3886C54.9372 28.9326 55.476 28.601 56.0978 28.3523C56.7196 28.1036 57.3828 27.9792 58.1703 27.9792C58.9579 27.9792 59.6211 28.1036 60.2429 28.3523C60.8646 28.601 61.4035 28.9326 61.818 29.3886C62.2325 29.8445 62.6056 30.3834 62.8128 31.0052C63.0615 31.6269 63.1859 32.3316 63.1859 33.1191C63.1859 33.9067 63.0615 34.5699 62.8128 35.1917C62.5641 35.8134 62.2325 36.3523 61.818 36.7668C61.362 37.2228 60.8646 37.5544 60.2429 37.8031C59.6211 38.0518 58.9579 38.1761 58.1703 38.1761C57.3828 38.1761 56.7196 38.0518 56.0978 37.8031C55.476 37.5544 54.9786 37.2228 54.5227 36.7668C54.0667 36.3109 53.7351 35.8134 53.5278 35.1917C53.2791 34.5699 53.1548 33.8653 53.1548 33.1191C53.1548 32.3316 53.2791 31.6269 53.5278 31.0052ZM55.932 34.1969C56.0149 34.5699 56.1392 34.9015 56.305 35.1917C56.4709 35.4818 56.7196 35.7305 57.0097 35.8963C57.2999 36.0622 57.6729 36.1451 58.1289 36.1451C58.5848 36.1451 58.9579 36.0622 59.2481 35.8963C59.5382 35.7305 59.7869 35.4818 59.9942 35.1917C60.16 34.9015 60.2843 34.5699 60.3672 34.1969C60.4501 33.8238 60.4916 33.4508 60.4916 33.0777C60.4916 32.7046 60.4501 32.3316 60.3672 31.9585C60.2843 31.5855 60.16 31.2539 59.9942 30.9637C59.8284 30.6735 59.5797 30.4248 59.2481 30.259C58.9579 30.0932 58.5848 29.9689 58.1289 29.9689C57.6729 29.9689 57.2999 30.0518 57.0097 30.259C56.7196 30.4248 56.4709 30.6735 56.305 30.9637C56.1392 31.2539 56.0149 31.5855 55.932 31.9585C55.8491 32.3316 55.8076 32.7046 55.8076 33.0777C55.8076 33.4922 55.8491 33.8653 55.932 34.1969Z" fill="#1D1D1B"/>
<path d="M66.9586 28.2694V30.0518H67.0001C67.1244 29.7616 67.2902 29.4715 67.4975 29.2228C67.7047 28.9741 67.9534 28.7668 68.2436 28.5596C68.5338 28.3938 68.8239 28.228 69.1141 28.1451C69.4042 28.0621 69.7358 27.9792 70.0674 27.9792C70.2332 27.9792 70.4405 28.0207 70.6477 28.0621V30.5077C70.5234 30.4663 70.3576 30.4663 70.1918 30.4248C70.026 30.3834 69.8602 30.3834 69.6944 30.3834C69.197 30.3834 68.7825 30.4663 68.4508 30.6321C68.1192 30.7979 67.8291 31.0052 67.6218 31.2953C67.4146 31.5855 67.2902 31.9171 67.1659 32.2901C67.083 32.6632 67.0415 33.0777 67.0415 33.4922V37.8445H64.3887V28.2694H66.9586Z" fill="#1D1D1B"/>
<path d="M77.7358 36.6839C77.4042 37.2228 77.0312 37.5959 76.5338 37.8031C76.0363 38.0518 75.456 38.1347 74.8343 38.1347C74.1296 38.1347 73.4664 38.0104 72.9275 37.7202C72.3887 37.4301 71.9327 37.057 71.5597 36.601C71.1866 36.1036 70.9379 35.5648 70.7721 34.943C70.6063 34.3213 70.4819 33.658 70.4819 32.9948C70.4819 32.3316 70.5648 31.7099 70.7721 31.1295C70.9379 30.5078 71.2281 30.0104 71.5597 29.5544C71.9327 29.0985 72.3472 28.7254 72.8861 28.4352C73.4249 28.1451 74.0467 28.0207 74.7514 28.0207C75.3317 28.0207 75.8705 28.1451 76.3679 28.3938C76.8654 28.6425 77.2799 28.9741 77.57 29.4715H77.6115V24.5803H80.2643V37.886H77.7358V36.6839ZM77.6115 31.9171C77.5286 31.5441 77.4042 31.2124 77.2384 30.9637C77.0726 30.6736 76.8239 30.4663 76.5338 30.3005C76.2436 30.1347 75.8705 30.0518 75.456 30.0518C75.0001 30.0518 74.6685 30.1347 74.3369 30.3005C74.0467 30.4663 73.798 30.715 73.6322 31.0052C73.4664 31.2953 73.3006 31.627 73.2591 32C73.1762 32.3731 73.1348 32.7461 73.1348 33.1606C73.1348 33.5337 73.1762 33.9067 73.2591 34.2798C73.342 34.6529 73.4664 34.9845 73.6736 35.2746C73.8809 35.5648 74.0882 35.8135 74.4198 35.9793C74.7099 36.1451 75.083 36.2694 75.456 36.2694C75.8705 36.2694 76.2436 36.1865 76.5338 36.0207C76.8239 35.8549 77.0726 35.6062 77.2384 35.3161C77.4042 35.0259 77.5286 34.6943 77.6115 34.3213C77.6944 33.9482 77.7358 33.5751 77.7358 33.1606C77.7358 32.6632 77.6944 32.2902 77.6115 31.9171Z" fill="#1D1D1B"/>
<path d="M84.0771 35.5233C84.2014 35.7305 84.3672 35.8963 84.533 36.0207C84.6988 36.1451 84.9475 36.228 85.1962 36.3109C85.4449 36.3938 85.6936 36.3938 85.9423 36.3938C86.1082 36.3938 86.3154 36.3523 86.5227 36.3109C86.7299 36.2694 86.8957 36.1865 87.103 36.1036C87.2688 36.0207 87.3931 35.8963 87.5175 35.7305C87.6418 35.5647 87.6833 35.3989 87.6833 35.1502C87.6833 34.7357 87.4346 34.4456 86.8957 34.2383C86.3569 34.0311 85.6107 33.8238 84.6988 33.658C84.3258 33.5751 83.9527 33.4508 83.5797 33.3679C83.2066 33.2849 82.875 33.0777 82.5848 32.9119C82.2947 32.7046 82.0874 32.4974 81.8802 32.1658C81.7144 31.8756 81.6315 31.5026 81.6315 31.0881C81.6315 30.4663 81.7558 29.9689 82.0045 29.5544C82.2532 29.1399 82.5848 28.8497 82.9579 28.601C83.3724 28.3523 83.7869 28.228 84.2843 28.1036C84.7817 28.0207 85.2791 27.9792 85.818 27.9792C86.3569 27.9792 86.8543 28.0207 87.3517 28.1451C87.8491 28.228 88.2636 28.3938 88.6781 28.6425C89.0512 28.8912 89.3828 29.1813 89.6315 29.5958C89.8802 29.9689 90.046 30.4663 90.0874 31.0881H87.5589C87.5175 30.5906 87.3102 30.2176 86.9786 30.0518C86.647 29.886 86.2325 29.7616 85.7351 29.7616C85.5693 29.7616 85.4035 29.7616 85.2377 29.8031C85.0719 29.8031 84.9061 29.8445 84.7817 29.9274C84.6574 30.0103 84.533 30.0932 84.4087 30.2176C84.2843 30.3419 84.2429 30.5077 84.2429 30.6735C84.2429 30.9223 84.3258 31.0881 84.4916 31.2539C84.6574 31.4197 84.9061 31.544 85.1548 31.6269C85.4449 31.7098 85.7351 31.7927 86.1081 31.8756C86.4812 31.9585 86.8543 32.0414 87.2273 32.1243C87.6004 32.2072 87.9734 32.3316 88.3465 32.4559C88.7196 32.5803 89.0512 32.7461 89.3413 32.9533C89.6315 33.1606 89.8387 33.4093 90.046 33.6995C90.2532 33.9896 90.2947 34.3627 90.2947 34.8186C90.2947 35.4404 90.1703 35.9792 89.9216 36.3938C89.6729 36.8083 89.3413 37.1813 88.9268 37.43C88.5123 37.6787 88.0563 37.886 87.5175 37.9689C86.9786 38.0932 86.4398 38.1347 85.9009 38.1347C85.3206 38.1347 84.7817 38.0932 84.2429 37.9689C83.704 37.8445 83.248 37.6787 82.8335 37.43C82.419 37.1813 82.0874 36.8083 81.7973 36.3938C81.5486 35.9792 81.3828 35.4404 81.3413 34.7772H83.8698C83.9113 35.0673 83.9527 35.316 84.0771 35.5233Z" fill="#1D1D1B"/>
<path d="M93.6943 24.5803V29.5959H93.7358C94.0674 29.057 94.4819 28.6425 95.0207 28.3938C95.5596 28.1451 96.057 28.0207 96.5544 28.0207C97.2591 28.0207 97.8394 28.1036 98.2953 28.3109C98.7513 28.5181 99.1244 28.7669 99.3731 29.0985C99.6218 29.4301 99.829 29.8446 99.9119 30.342C100.036 30.8394 100.078 31.3783 100.078 31.9586V37.886H97.4249V32.456C97.4249 31.6684 97.3005 31.0466 97.0518 30.6736C96.8031 30.3005 96.3471 30.0933 95.7254 30.0933C95.0207 30.0933 94.4819 30.3005 94.1503 30.7565C93.8187 31.171 93.6528 31.8757 93.6528 32.8705V37.9275H91V24.5803H93.6943Z" fill="#1D1D1B"/>
<path d="M101.736 26.7772V24.5803H104.389V26.7772H101.736ZM104.389 28.2694V37.9275H101.736V28.2694H104.389Z" fill="#1D1D1B"/>
<path d="M108.533 28.2694V30.0518H108.575C108.699 29.7616 108.865 29.4715 109.072 29.2228C109.279 28.9741 109.528 28.7668 109.818 28.5596C110.108 28.3938 110.399 28.228 110.689 28.1451C111.02 28.0621 111.311 27.9792 111.642 27.9792C111.808 27.9792 112.015 28.0207 112.222 28.0621V30.5077C112.098 30.4663 111.932 30.4663 111.766 30.4248C111.601 30.4248 111.435 30.3834 111.269 30.3834C110.772 30.3834 110.357 30.4663 110.026 30.6321C109.694 30.7979 109.404 31.0052 109.197 31.2953C108.989 31.5855 108.865 31.9171 108.741 32.2901C108.658 32.6632 108.616 33.0777 108.616 33.4922V37.8445H105.963V28.2694H108.533Z" fill="#1D1D1B"/>
<path d="M115.332 35.6062C115.746 35.9792 116.285 36.1865 117.031 36.1865C117.57 36.1865 118.026 36.0622 118.399 35.772C118.772 35.5233 119.021 35.2331 119.104 34.943H121.425C121.052 36.1036 120.472 36.9326 119.725 37.43C118.938 37.9274 118.026 38.1761 116.907 38.1761C116.161 38.1761 115.456 38.0518 114.834 37.8031C114.212 37.5544 113.715 37.2228 113.301 36.7668C112.886 36.3109 112.554 35.772 112.306 35.1502C112.057 34.5285 111.974 33.8653 111.974 33.0777C111.974 32.373 112.098 31.6684 112.347 31.0466C112.596 30.4248 112.927 29.886 113.342 29.43C113.756 28.9741 114.295 28.601 114.917 28.3523C115.539 28.1036 116.202 27.9792 116.907 27.9792C117.736 27.9792 118.44 28.1451 119.062 28.4352C119.684 28.7668 120.181 29.1813 120.554 29.7202C120.927 30.259 121.218 30.8808 121.383 31.544C121.549 32.2487 121.632 32.9533 121.591 33.6995H114.627C114.71 34.5699 114.917 35.1917 115.332 35.6062ZM118.316 30.5077C117.984 30.1761 117.529 29.9689 116.865 29.9689C116.451 29.9689 116.078 30.0518 115.829 30.1761C115.539 30.3005 115.332 30.5077 115.166 30.715C115 30.9223 114.876 31.171 114.793 31.3782C114.71 31.6269 114.668 31.8342 114.668 32H118.979C118.855 31.3782 118.648 30.8808 118.316 30.5077Z" fill="#1D1D1B"/>
</svg>
