<svg width="91" height="48" viewBox="0 0 91 48" fill="none" xmlns="http://www.w3.org/2000/svg">
<path d="M21.4878 34.0001H20.0237C21.7147 35.9591 20.2917 38.0287 19.9431 38.041C19.4756 38.041 18.6622 34.0001 18.6622 34.0001H17.7928C17.7928 34.0001 17.898 34.4157 18.0607 34.9926L17.0136 37.9686L15.8667 34.0001H15L16.4107 38.6384H17.2515L18.2111 35.5093C18.464 36.3651 18.7948 37.3794 19.0914 37.9604C19.5877 38.9309 19.8091 38.7737 20.1181 38.4607C20.2971 38.3062 20.7783 37.7239 21.0148 37.0144C21.552 35.6351 21.4878 33.9988 21.4878 33.9988" fill="black"/>
<path d="M22.9342 36.0615V38.6424H22.1468V35.948L22.0483 35.3329H22.9355V35.9631C23.2335 35.4928 24.0346 35.3206 24.0742 35.3329V35.9152C23.9868 35.8961 23.8282 35.8811 23.6764 35.8811C23.4523 35.8811 23.1734 35.9207 22.9355 36.0588" fill="black"/>
<path d="M26.0522 38.7423C25.4958 38.7423 25.0393 38.6234 24.7276 38.3131C24.4227 38.0151 24.2778 37.564 24.2778 37.0227C24.2778 36.48 24.4296 35.9837 24.7412 35.6721C25.0584 35.3535 25.5478 35.2346 26.0303 35.2346C26.4814 35.2346 26.8574 35.333 27.1226 35.5982C27.4001 35.8757 27.4794 36.2667 27.4794 36.6577V36.8955L27.2688 37.1416H25.098C25.1172 37.6241 25.2101 37.8962 25.3824 38.0739C25.5409 38.2325 25.7733 38.3322 26.1301 38.3322C26.5676 38.3322 26.9175 38.186 27.2483 37.888V38.5701C27.0241 38.6357 26.5812 38.7423 26.0522 38.7423ZM25.0939 37.0131L26.6947 36.7356C26.6947 36.6891 26.7002 36.6303 26.7002 36.5565C26.7002 36.1929 26.6345 35.9619 26.4951 35.8224C26.3899 35.7172 26.2176 35.6365 25.9059 35.6365C25.6735 35.6365 25.4234 35.683 25.2566 35.7486C25.1705 35.9933 25.1076 36.5633 25.0926 37.0117" fill="black"/>
<path d="M29.1621 37.2863L28.6659 38.1339L28.4417 38.6424H27.627L28.957 37.0088L27.7267 35.3342H28.6262L29.5585 36.5714L29.9755 35.851L30.1997 35.3342H31.0158L29.7786 36.8639L31.0882 38.6506H30.2352L29.1621 37.2863Z" fill="black"/>
<path d="M32.2993 36.0029V38.644H31.5051V34.1506L31.4326 33.4685H32.3007V35.8785C32.6916 35.586 33.1345 35.236 33.6376 35.236C33.9547 35.236 34.2268 35.3235 34.4182 35.5217C34.6041 35.7077 34.6957 35.9592 34.6957 36.3091V38.6453H33.9014V36.3953C33.9014 36.1779 33.8426 36.0043 33.7305 35.8922C33.6239 35.7869 33.4654 35.7268 33.2603 35.7268C32.976 35.7268 32.6178 35.8334 32.3007 36.0043" fill="black"/>
<path d="M37.5667 38.2325C37.1757 38.5564 36.7055 38.7423 36.2694 38.7423C35.9399 38.7423 35.6611 38.6371 35.4888 38.4566C35.3303 38.2926 35.2373 38.0411 35.2373 37.7554C35.2373 37.3849 35.3959 37.1334 35.5955 36.9816C35.9058 36.7424 36.4348 36.6235 37.0964 36.6235C37.2359 36.6235 37.389 36.6303 37.527 36.6372V36.4581C37.527 36.1738 37.4669 35.9619 37.3343 35.8429C37.2222 35.7308 37.05 35.6775 36.8053 35.6775C36.3815 35.6775 35.7035 36.0781 35.7035 36.0781V35.3467C35.9358 35.3002 36.4075 35.2346 36.8326 35.2346C37.3152 35.2346 37.7458 35.3262 38.0041 35.5846C38.2365 35.8238 38.309 36.1874 38.309 36.6044V38.2584L38.3882 38.6426H37.5667V38.2325ZM37.527 37.9946V37.0609C37.3343 37.0145 37.0828 36.9871 36.8176 36.9871C36.4867 36.9871 36.2366 37.0336 36.0903 37.0869C36.0643 37.2195 36.0438 37.3972 36.0438 37.5831C36.0438 37.9481 36.13 38.093 36.2215 38.1723C36.3213 38.2584 36.4539 38.2967 36.6125 38.2967C36.9105 38.2967 37.2482 38.1805 37.527 37.9946Z" fill="black"/>
<path d="M39.8766 35.9632V38.6426H39.0892V35.9482L38.917 35.3426L39.8315 35.333V35.7308C40.1692 35.4533 40.5916 35.2346 41.029 35.2346C41.2997 35.2346 41.5567 35.3207 41.7371 35.4984C41.8096 35.5709 41.8684 35.6639 41.9148 35.7636C42.2525 35.4711 42.6886 35.2346 43.152 35.2346C43.4295 35.2346 43.681 35.3207 43.8601 35.4984C44.0323 35.6707 44.1184 35.9222 44.1184 36.2667V38.6412H43.3256V36.3392C43.3256 36.1204 43.2791 35.9742 43.1725 35.8689C43.0795 35.7828 42.9401 35.7226 42.7624 35.7226C42.4985 35.7226 42.2265 35.8293 41.975 35.9742C41.9941 36.0617 42.001 36.1601 42.001 36.2667V38.6412H41.2081V36.3392C41.2081 36.1204 41.1548 35.9742 41.055 35.8689C40.9566 35.7828 40.8171 35.7226 40.638 35.7226C40.3811 35.7226 40.1227 35.8224 39.878 35.9619" fill="black"/>
<path d="M49.261 34.8244L49.1352 34.011H49.652L49.6055 35.1224V37.0498C49.6055 37.6308 49.4524 38.0354 49.1885 38.3006C48.8769 38.6178 48.4011 38.7449 47.8325 38.7449C47.2624 38.7449 46.7471 38.6055 46.4354 38.2938C46.1907 38.0491 46.0513 37.6923 46.0513 37.2098V34.0137H46.527V37.0772C46.527 37.5406 46.6199 37.8714 46.8387 38.0847C47.0505 38.2952 47.3882 38.395 47.8831 38.395C48.5119 38.395 48.8892 38.2432 49.1011 38.097C49.1885 37.8987 49.261 37.5283 49.261 37.2111V34.8244Z" fill="black"/>
<path d="M51.0205 35.9823V38.6425H50.5571V35.8497L50.4614 35.333H51.0014V35.7841C51.4238 35.5189 51.8804 35.3015 52.4108 35.3015C52.7607 35.3015 53.0314 35.3945 53.2241 35.5845C53.3964 35.7567 53.4893 35.9946 53.4893 36.3131V38.6425H53.0259V36.3924C53.0259 36.1286 52.9603 35.9235 52.8209 35.7841C52.6869 35.6501 52.4969 35.5845 52.2522 35.5845C51.9009 35.5845 51.4498 35.7171 51.0205 35.9823Z" fill="black"/>
<path d="M54.4217 35.8441L54.2754 35.3342H54.8851V38.6424H54.4217V35.8441Z" fill="black"/>
<path d="M56.8046 38.6424L55.5005 35.3342H55.983L57.1546 38.3785L58.1142 35.8701L58.1415 35.3342H58.7499L57.294 38.6424H56.8046Z" fill="black"/>
<path d="M59.5112 38.3459C59.2268 38.0616 59.0669 37.6118 59.0669 37.05C59.0669 36.5333 59.22 35.9974 59.518 35.6994C59.8215 35.3891 60.3109 35.303 60.7087 35.303C61.1065 35.303 61.4632 35.3809 61.7284 35.6475C62.0059 35.925 62.0784 36.3214 62.0784 36.6262V36.9037L61.954 37.076L59.5577 37.0951C59.5713 37.6501 59.6697 37.9946 59.8898 38.2133C60.0689 38.391 60.3464 38.5045 60.7374 38.5045C61.2473 38.5045 61.5917 38.3268 61.8693 38.0479V38.5578C61.63 38.6303 61.2199 38.7437 60.7032 38.7437C60.2343 38.7437 59.8078 38.6439 59.5112 38.3459ZM59.559 36.9899L61.5972 36.8122V36.7069C61.5918 36.2366 61.5193 35.9714 61.3525 35.806C61.2199 35.6721 60.9957 35.5668 60.6048 35.5668C60.3068 35.5668 59.976 35.6324 59.7709 35.7185C59.652 35.9906 59.5727 36.5264 59.559 36.9899Z" fill="black"/>
<path d="M62.833 38.6425V35.8565L62.7373 35.3343H63.2855V35.8401C63.6231 35.4368 64.0305 35.322 64.2683 35.322C64.3271 35.322 64.4078 35.3275 64.4406 35.3343V35.7048C64.4406 35.7048 64.2683 35.6925 64.1221 35.6925C63.8842 35.6925 63.5438 35.739 63.2855 35.9167V38.6425H62.833Z" fill="black"/>
<path d="M67.1843 35.937C66.8206 35.6854 66.4201 35.5925 66.0291 35.5925C65.753 35.5925 65.4933 35.6513 65.3812 35.6923C65.3402 35.7784 65.2937 35.9028 65.2937 36.075C65.2937 36.3799 65.44 36.5713 65.943 36.7093L66.5062 36.8624C67.1952 37.0484 67.4987 37.3382 67.4987 37.7633C67.4987 38.0148 67.4112 38.239 67.2595 38.3853C67.0202 38.63 66.591 38.7421 66.062 38.7421C65.6327 38.7421 65.1652 38.6628 64.9793 38.6095V38.0135C65.2841 38.265 65.6519 38.4495 66.2738 38.4495C66.6648 38.4495 66.9546 38.3634 67.0612 38.3101C67.1009 38.224 67.1323 38.0859 67.1323 37.9465C67.1323 37.669 66.9806 37.4434 66.4051 37.2835L65.8159 37.1194C65.2472 36.9609 64.915 36.7216 64.915 36.2391C64.915 36.0272 64.9807 35.8153 65.1543 35.6431C65.3525 35.4435 65.7434 35.2986 66.2793 35.2986C66.5896 35.2986 66.9573 35.3451 67.1815 35.423V35.9329L67.1843 35.937Z" fill="black"/>
<path d="M68.2327 35.8443L68.0864 35.3945H68.6961V38.6425H68.2327V35.8443Z" fill="black"/>
<path d="M74.4991 35.3344L74.4731 35.8634L73.5586 38.3322L72.3611 35.333H70.2628V34.7971L69.3633 35.6378H69.8007V37.8756C69.8007 38.4716 70.1042 38.7232 70.6865 38.7232C70.9504 38.7232 71.2689 38.6698 71.3946 38.6302V38.2023C71.1896 38.3828 70.9722 38.5044 70.6797 38.5044C70.409 38.5044 70.2628 38.3923 70.2628 38.0738V35.6242L71.9893 35.6488L73.2346 38.6425H73.4465L73.3467 38.9077C73.2292 39.2317 73.102 39.4231 73.0296 39.5105C72.9366 39.5365 72.8054 39.5502 72.6783 39.5502C72.5457 39.5502 72.4336 39.5365 72.3283 39.5105V39.9726C72.3871 39.9931 72.48 39.9999 72.5388 39.9999C72.9243 39.9999 73.2879 39.7293 73.5846 39.0212L75.0938 35.3344H74.4964H74.4991Z" fill="black"/>
<path d="M54.5844 34.774C54.5844 34.8164 54.1333 34.3639 54.1757 34.3639C54.1333 34.3639 54.5844 33.9128 54.5844 33.9552C54.5844 33.9128 55.0355 34.3639 54.9931 34.3639C55.0355 34.3639 54.5844 34.8164 54.5844 34.774Z" fill="black"/>
<path d="M51.0491 27.2963H49.5837C51.2761 29.2538 49.853 31.3248 49.5044 31.3372C49.0369 31.3372 48.2235 27.2963 48.2235 27.2963H47.3541C47.3541 27.2963 47.4594 27.7119 47.6221 28.2874L46.5749 31.2633L45.428 27.2963H44.5586L45.9693 31.9345H46.8101L47.7697 28.8041C48.0226 29.6612 48.3534 30.6755 48.65 31.2551C49.1463 32.2257 49.3677 32.0685 49.6767 31.7568C49.8557 31.601 50.3369 31.02 50.5734 30.3105C51.1106 28.9312 51.0464 27.2949 51.0464 27.2949" fill="black"/>
<path d="M18.6295 30.163V31.9374H18.1538V27.3032H19.663C20.557 27.3032 21.1462 27.6682 21.1462 28.6743C21.1462 29.1241 21.0273 29.4549 20.788 29.6873C20.4121 30.0441 19.7559 30.163 18.6774 30.163H18.6295ZM20.4763 29.6873C20.557 29.4945 20.6349 29.1637 20.6349 28.7413C20.6349 27.9539 20.3574 27.5698 19.4101 27.5698C19.1326 27.5698 18.8346 27.6026 18.6295 27.6354V29.813C18.7949 29.839 18.9877 29.8541 19.1859 29.8541C19.6684 29.8541 20.192 29.7871 20.4763 29.6886" fill="black"/>
<path d="M21.7994 31.9387V29.1513L21.7051 28.6415H22.2437V29.098C22.5813 28.6948 22.9983 28.6155 23.2361 28.6155C23.2949 28.6155 23.4015 28.6223 23.4343 28.6291V28.9996C23.4343 28.9996 23.2361 28.9859 23.0899 28.9859C22.852 28.9859 22.5212 29.0324 22.2628 29.2115V31.9387H21.7994Z" fill="black"/>
<path d="M24.1016 29.1377L24.0005 28.6401H24.5651V31.9373H24.1016V29.1377Z" fill="black"/>
<path d="M33.4041 29.2308C33.0405 28.9792 32.6399 28.8863 32.249 28.8863C31.9715 28.8863 31.7131 28.9451 31.5996 28.9847C31.56 29.0722 31.5135 29.1966 31.5135 29.3702C31.5135 29.6737 31.6598 29.8664 32.1629 30.0045L32.7247 30.1562C33.4123 30.3421 33.7185 30.6333 33.7185 31.0571C33.7185 31.3086 33.6324 31.5342 33.4806 31.6791C33.2414 31.9251 32.8122 32.0372 32.2831 32.0372C31.8525 32.0372 31.3864 31.9566 31.2005 31.9033V31.3073C31.504 31.5588 31.8717 31.7447 32.4937 31.7447C32.8846 31.7447 33.1758 31.6586 33.2811 31.6053C33.3207 31.5191 33.3535 31.3811 33.3535 31.2416C33.3535 30.9641 33.2018 30.7386 32.6263 30.58L32.0357 30.4146C31.467 30.256 31.1362 30.0168 31.1362 29.5342C31.1362 29.3237 31.2018 29.1118 31.3741 28.9382C31.5737 28.74 31.9646 28.5938 32.4991 28.5938C32.8108 28.5938 33.1785 28.6402 33.4027 28.7195V29.2294L33.4041 29.2308Z" fill="black"/>
<path d="M35.6171 33.333C34.9144 33.333 34.4852 33.2004 34.2802 32.9954C34.1612 32.8764 34.1079 32.7302 34.1079 32.5853C34.1079 32.2271 34.4196 31.9756 34.816 31.8635C34.7764 31.8443 34.7367 31.817 34.7108 31.791C34.652 31.7322 34.5918 31.6325 34.5918 31.4999C34.5918 31.2811 34.7709 31.1089 35.0156 30.9777C34.8762 30.9366 34.7504 30.871 34.6451 30.7658C34.4141 30.5347 34.3335 30.1698 34.3335 29.8854C34.3335 29.5095 34.4797 29.1117 34.6985 28.9121C34.9431 28.6879 35.3601 28.595 35.8098 28.595C36.1871 28.595 36.5439 28.6756 36.7763 28.9066L37.6744 28.6141V29.1185L36.9021 29.0584C37.0538 29.2976 37.088 29.5956 37.088 29.7925C37.088 30.1971 36.954 30.6072 36.697 30.7931C36.451 30.979 36.0217 31.0501 35.6581 31.0501C35.5118 31.0501 35.3464 31.0446 35.1878 31.0173C35.0484 31.1226 34.9705 31.2292 34.9705 31.3495C34.9705 31.4014 34.9896 31.4479 35.0293 31.4875C35.0949 31.5545 35.2083 31.5873 35.9096 31.5873C36.8693 31.5873 37.1345 31.694 37.2985 31.8389C37.4379 31.9578 37.5104 32.1232 37.5104 32.3556C37.5104 32.588 37.4325 32.793 37.2862 32.9366C37.021 33.2018 36.3471 33.3344 35.6184 33.3344M37.0347 32.9434C37.0811 32.8573 37.1345 32.6919 37.1345 32.5142C37.1345 32.3611 37.088 32.2367 36.995 32.1437C36.8365 31.992 36.5713 31.966 35.8631 31.966C35.5118 31.966 35.2412 31.966 35.0361 31.9318C34.7039 32.0508 34.5194 32.2558 34.5194 32.5142C34.5194 32.6331 34.5604 32.752 34.6533 32.845C34.8119 33.0036 35.1099 33.076 35.7319 33.076C36.2664 33.076 36.7244 33.0172 37.0347 32.9434ZM35.6977 30.8054C35.9889 30.8054 36.3594 30.7521 36.5179 30.7002C36.5644 30.4814 36.5904 30.2696 36.5904 29.8991C36.5904 29.5601 36.5576 29.2238 36.3853 29.0502C36.2459 28.9107 36.0217 28.8588 35.7305 28.8588C35.438 28.8588 35.0552 28.9176 34.9035 28.9641C34.857 29.2101 34.8242 29.5081 34.8242 29.8184C34.8242 30.1766 34.883 30.4678 35.0293 30.6127C35.1878 30.7644 35.4599 30.804 35.6977 30.804" fill="black"/>
<path d="M39.7073 32.0344C39.1441 32.0344 38.7477 31.8963 38.477 31.6243C38.1913 31.34 38.0464 30.9039 38.0464 30.3133C38.0464 29.7911 38.1927 29.2881 38.477 29.0024C38.7531 28.7249 39.2165 28.5923 39.7073 28.5923C40.2637 28.5923 40.6669 28.7249 40.9376 29.0024C41.2233 29.2881 41.3682 29.7242 41.3682 30.3133C41.3682 30.8369 41.2219 31.34 40.9376 31.6243C40.6601 31.9018 40.1981 32.0344 39.7073 32.0344ZM39.7729 31.7583C40.1707 31.7583 40.481 31.6858 40.6806 31.6188C40.779 31.3536 40.8788 31.0091 40.8788 30.3475C40.8788 29.7515 40.7736 29.3742 40.5466 29.15C40.3484 28.9518 40.0572 28.8725 39.6403 28.8725C39.2234 28.8725 38.9322 28.945 38.7326 29.012C38.6342 29.2758 38.5344 29.7529 38.5344 30.2833C38.5344 30.8793 38.6397 31.2552 38.8666 31.4808C39.0648 31.679 39.356 31.7583 39.7729 31.7583Z" fill="black"/>
<path d="M42.1883 27.291L42.042 26.8577H42.6517V31.9375H42.1883V27.291Z" fill="black"/>
<path d="M60.3355 31.8704C60.1304 31.9429 59.6547 32.0344 59.1981 32.0344C58.6937 32.0344 58.3109 31.9292 58.0266 31.705C57.6753 31.4343 57.4565 30.9559 57.4565 30.3093C57.4565 29.7857 57.6096 29.3291 57.8735 29.0311C58.2057 28.6675 58.747 28.5281 59.2897 28.5281C59.6137 28.5281 60.0224 28.5814 60.2275 28.6333V29.3551C59.9158 29.1501 59.5631 29.0175 59.0846 29.0175C58.8741 29.0175 58.6417 29.0434 58.4422 29.0954C58.3492 29.366 58.2767 29.798 58.2767 30.2478C58.2767 30.8041 58.3834 31.1678 58.5884 31.3796C58.721 31.5122 58.9397 31.6107 59.276 31.6107C59.6793 31.6107 60.0443 31.4589 60.3355 31.1473V31.8704Z" fill="black"/>
<path d="M63.2472 29.3688C62.8645 29.1173 62.4612 28.9833 61.9841 28.9833C61.7722 28.9833 61.5658 29.0243 61.4606 29.0558C61.4332 29.1214 61.4018 29.2212 61.4018 29.347C61.4018 29.593 61.5262 29.7448 61.9636 29.8445L62.4803 29.9566C63.2609 30.1221 63.5917 30.4474 63.5917 30.9354C63.5917 31.228 63.4933 31.459 63.3279 31.6244C63.0572 31.8951 62.6006 32.0345 62.0251 32.0345C61.548 32.0345 61.0409 31.9415 60.8632 31.8951V31.0803C61.2268 31.3783 61.6875 31.5711 62.289 31.5711C62.587 31.5711 62.8248 31.5178 62.9232 31.4781C62.9506 31.418 62.9766 31.3059 62.9766 31.2006C62.9766 30.9682 62.8522 30.8097 62.3546 30.6907L61.805 30.5581C61.1502 30.4119 60.7798 30.1138 60.7798 29.578C60.7798 29.3142 60.8659 29.09 61.0436 28.9095C61.2678 28.6853 61.6724 28.5254 62.2562 28.5254C62.6061 28.5254 63.0299 28.5855 63.2472 28.6525V29.3688Z" fill="black"/>
<path d="M52.4903 29.3756V31.9565H51.7029V29.2621L51.6045 28.647H52.4917V29.2772C52.7897 28.8069 53.5907 28.6333 53.6304 28.647V29.2293C53.5429 29.2088 53.3843 29.1952 53.2326 29.1952C53.0084 29.1952 52.7295 29.2348 52.4917 29.3742" fill="black"/>
<path d="M55.603 32.0331C55.0466 32.0331 54.59 31.9142 54.2784 31.6025C53.9749 31.3045 53.8286 30.8548 53.8286 30.3121C53.8286 29.7707 53.9804 29.2745 54.292 28.9628C54.6092 28.6457 55.0999 28.5254 55.5825 28.5254C56.0322 28.5254 56.4095 28.6252 56.6733 28.889C56.9522 29.1665 57.0315 29.5575 57.0315 29.9484V30.1877L56.8196 30.4324H54.6488C54.668 30.9149 54.7623 31.1869 54.9345 31.366C55.0931 31.5246 55.3255 31.6244 55.6823 31.6244C56.1197 31.6244 56.4697 31.4781 56.8018 31.1801V31.8609C56.5777 31.9265 56.132 32.0331 55.603 32.0331ZM54.6474 30.3052L56.2468 30.0277C56.2468 29.9812 56.2523 29.9211 56.2523 29.8486C56.2523 29.485 56.1867 29.254 56.0486 29.1146C55.942 29.0079 55.7711 28.9287 55.4581 28.9287C55.2271 28.9287 54.9755 28.9751 54.8088 29.0408C54.7226 29.2854 54.6598 29.8528 54.6461 30.3039" fill="black"/>
<path d="M66.2478 31.5246C65.8569 31.8486 65.388 32.0345 64.9505 32.0345C64.6211 32.0345 64.3422 31.9279 64.17 31.7488C64.0114 31.5834 63.9185 31.3318 63.9185 31.0475C63.9185 30.6771 64.0784 30.4255 64.2766 30.2724C64.5869 30.0346 65.116 29.9156 65.7789 29.9156C65.917 29.9156 66.0701 29.9211 66.2082 29.9279V29.7502C66.2082 29.4645 66.148 29.254 66.0154 29.1351C65.9033 29.023 65.7311 28.9697 65.4864 28.9697C65.064 28.9697 64.3846 29.3688 64.3846 29.3688V28.6375C64.6156 28.591 65.0886 28.5254 65.5124 28.5254C65.9949 28.5254 66.4255 28.6183 66.6839 28.8767C66.9149 29.1159 66.9887 29.4796 66.9887 29.8965V31.5506L67.068 31.9347H66.2465L66.2478 31.5246ZM66.2082 31.2854V30.3531C66.0154 30.3066 65.7639 30.2793 65.5001 30.2793C65.1679 30.2793 64.9177 30.3257 64.7715 30.379C64.7441 30.5116 64.725 30.6894 64.725 30.8753C64.725 31.2389 64.8125 31.3852 64.9041 31.4631C65.0039 31.5506 65.1351 31.5902 65.295 31.5902C65.5944 31.5902 65.9293 31.4713 66.2082 31.2854Z" fill="black"/>
<path d="M68.5583 29.2621V31.9428H67.7709V29.2484L67.5986 28.6414L68.5132 28.6332V29.0297C68.8508 28.7522 69.2746 28.5334 69.7093 28.5334C69.9813 28.5334 70.2397 28.6196 70.4188 28.7973C70.4912 28.8697 70.5514 28.9627 70.5965 29.0625C70.9341 28.7713 71.3702 28.5334 71.8336 28.5334C72.1111 28.5334 72.3626 28.6196 72.5417 28.7973C72.714 28.9695 72.8001 29.2211 72.8001 29.5655V31.9414H72.0059V29.638C72.0059 29.4193 71.9594 29.2744 71.8527 29.1677C71.7598 29.0816 71.6217 29.0228 71.4426 29.0228C71.1788 29.0228 70.9068 29.1281 70.6553 29.2744C70.6758 29.3605 70.6826 29.4603 70.6826 29.5655V31.9414H69.8884V29.638C69.8884 29.4193 69.835 29.2744 69.7366 29.1677C69.6368 29.0816 69.4974 29.0228 69.3197 29.0228C69.0613 29.0228 68.803 29.1226 68.5583 29.2621Z" fill="black"/>
<path d="M30.145 28.6401L30.1191 29.1569L29.2045 31.6243L28.0084 28.6401H26.2245V28.1343C26.2245 27.7584 26.2436 27.3934 26.2969 27.1679C26.4828 27.1091 26.6947 27.0749 26.9052 27.0749C27.1581 27.0749 27.3591 27.1214 27.5846 27.2007V26.7933C27.4794 26.7673 27.2443 26.7468 27.0857 26.7468C26.2586 26.7468 25.7611 27.2759 25.7611 28.2628V28.6429H25.3113L25.165 28.8876L25.7611 28.8753V31.9442H26.2245V28.8753L27.6092 28.893L28.8819 31.9387H29.0924L28.994 32.2025C28.8751 32.5265 28.748 32.7193 28.6769 32.8054C28.5839 32.8314 28.4513 32.845 28.3256 32.845C28.193 32.845 28.0795 32.8327 27.9742 32.8054V33.2688C28.033 33.2879 28.126 33.2961 28.1861 33.2961C28.5702 33.2961 28.9339 33.0255 29.2305 32.316L30.7397 28.6429H30.1437L30.145 28.6401Z" fill="black"/>
<path d="M68.3912 34.774C68.3912 34.8164 67.9387 34.3639 67.9825 34.3639C67.9387 34.3639 68.3912 33.9128 68.3912 33.9552C68.3912 33.9128 68.8423 34.3639 68.7999 34.3639C68.8423 34.3639 68.3912 34.8164 68.3912 34.774Z" fill="black"/>
<path d="M50.7596 22.7759C51.3543 22.2619 52.9468 20.3386 53.7301 17.9873C55.5113 13.4202 55.2995 8 55.2995 8H50.4493C56.0527 14.4919 51.3379 21.3461 50.1841 21.3871C48.6367 21.3871 45.9423 8 45.9423 8H43.0661C43.0661 8 43.4161 9.37794 43.9533 11.289L40.4907 21.1424L36.6918 8H33.8115L38.4771 23.3624H41.2644L44.4468 12.9964C45.2862 15.8357 46.3784 19.1944 47.3613 21.1178C49.003 24.333 49.7358 23.8108 50.7596 22.7759Z" fill="black"/>
</svg>
